<svg width="68" height="69" viewBox="0 0 68 69" fill="none" xmlns="http://www.w3.org/2000/svg">
<path d="M16.0586 0C16.3485 1.05979e-05 16.6033 0.0747268 16.8232 0.224609C17.0432 0.364605 17.2681 0.609979 17.498 0.959961L18.6689 2.74512L20.3936 0.194336C20.4735 0.154369 20.5837 0.119823 20.7236 0.0898438C20.8735 0.0498849 21.0183 0.0293282 21.1582 0.0292969C21.618 0.0292969 21.9783 0.139545 22.2383 0.359375C22.4983 0.579375 22.6289 0.849922 22.6289 1.16992C22.6289 1.44983 22.5533 1.69998 22.4033 1.91992C22.2633 2.13987 22.0683 2.40497 21.8184 2.71484L20.2734 4.60449L22.5049 7.79395C22.5605 7.76501 22.6177 7.73723 22.6777 7.71387C22.8576 7.63395 23.0575 7.5938 23.2773 7.59375C23.5673 7.59375 23.823 7.66934 24.043 7.81934C24.2628 7.95932 24.4879 8.204 24.7178 8.55371L25.8877 10.3389L27.6123 7.78906C27.6922 7.7491 27.8026 7.71455 27.9424 7.68457C28.0924 7.64457 28.2379 7.62402 28.3779 7.62402C28.8378 7.62405 29.198 7.73413 29.458 7.9541C29.7179 8.17409 29.8477 8.44469 29.8477 8.76465C29.8476 9.04446 29.773 9.29477 29.623 9.51465C29.4831 9.73461 29.288 9.99966 29.0381 10.3096L27.4932 12.1992L29.9375 15.6943C29.8575 16.0641 29.6829 16.3592 29.4131 16.5791C29.1531 16.7891 28.7977 16.8945 28.3477 16.8945C28.0577 16.8945 27.8076 16.8245 27.5977 16.6846C27.3877 16.5346 27.173 16.2843 26.9531 15.9346L25.7373 14.0146L23.8477 16.8643C23.7678 16.8742 23.6929 16.8789 23.623 16.8789C23.5532 16.8889 23.483 16.8945 23.4131 16.8945C22.8695 16.8945 22.4631 16.7882 22.1924 16.5791C21.9325 16.7887 21.5784 16.8945 21.1289 16.8945C20.8391 16.8945 20.5888 16.8244 20.3789 16.6846C20.1689 16.5346 19.9534 16.2845 19.7334 15.9346L18.5186 14.0146L16.6289 16.8643C16.5489 16.8743 16.4733 16.8789 16.4033 16.8789C16.3334 16.8889 16.2633 16.8945 16.1934 16.8945C15.8595 16.8945 15.5776 16.8533 15.3467 16.7744C15.3093 16.8924 15.2558 17.0039 15.1846 17.1084C15.0446 17.3283 14.8495 17.5935 14.5996 17.9033L13.0547 19.7939L15.499 23.2891C15.4693 23.4264 15.4261 23.5532 15.3701 23.6699C15.3952 23.7596 15.4092 23.8538 15.4092 23.9531C15.4092 24.2331 15.3345 24.4832 15.1846 24.7031C15.0446 24.9231 14.8495 25.1881 14.5996 25.498L13.0547 27.3877L14.9287 30.0674C14.945 30.0525 14.9615 30.0378 14.9785 30.0234C15.1185 29.9034 15.279 29.8083 15.459 29.7383C15.6389 29.6584 15.8387 29.6182 16.0586 29.6182C16.3484 29.6182 16.6034 29.693 16.8232 29.8428C17.0432 29.9827 17.2681 30.2283 17.498 30.5781L18.6689 32.3633L20.3936 29.8135C20.4736 29.7735 20.5836 29.738 20.7236 29.708C20.8735 29.6681 21.0184 29.6485 21.1582 29.6484C21.6182 29.6484 21.9783 29.7585 22.2383 29.9785C22.4982 30.1985 22.6289 30.4681 22.6289 30.7881C22.6289 31.0681 22.5533 31.3181 22.4033 31.5381C22.2633 31.7581 22.0683 32.023 21.8184 32.333L20.2734 34.2236L22.7188 37.7178C22.6388 38.0878 22.4634 38.3835 22.1934 38.6035C21.9335 38.8133 21.5786 38.9179 21.1289 38.918C20.839 38.918 20.5889 38.8479 20.3789 38.708C20.1689 38.558 19.9534 38.308 19.7334 37.958L18.5186 36.0381L16.6289 38.8887C16.5489 38.8987 16.4733 38.9033 16.4033 38.9033C16.3334 38.9133 16.2633 38.918 16.1934 38.918C15.672 38.9179 15.2772 38.8204 15.0068 38.6279C14.8922 38.7889 14.7588 38.9705 14.5996 39.168L13.0547 41.0586L15.499 44.5537C15.4693 44.6911 15.4261 44.8179 15.3701 44.9346C15.3952 45.0243 15.4092 45.1184 15.4092 45.2178C15.4092 45.4977 15.3345 45.7478 15.1846 45.9678C15.0446 46.1877 14.8495 46.4528 14.5996 46.7627L13.0547 48.6523L15.2852 51.8408C15.3407 51.8119 15.3989 51.786 15.459 51.7627C15.6389 51.6828 15.8387 51.6426 16.0586 51.6426C16.3485 51.6426 16.6033 51.7173 16.8232 51.8672C17.0432 52.0072 17.2681 52.2526 17.498 52.6025L18.6689 54.3877L20.3936 51.8369C20.4735 51.7969 20.5837 51.7624 20.7236 51.7324C20.8735 51.6925 21.0183 51.6719 21.1582 51.6719C21.618 51.6719 21.9783 51.7821 22.2383 52.002C22.2408 52.0041 22.2436 52.0066 22.2461 52.0088C22.3744 51.9072 22.5179 51.8249 22.6777 51.7627C22.8576 51.6827 23.0575 51.6426 23.2773 51.6426C23.5673 51.6426 23.823 51.7172 24.043 51.8672C24.2629 52.0072 24.4878 52.2526 24.7178 52.6025L25.8877 54.3877L27.6123 51.8369C27.6922 51.797 27.8026 51.7624 27.9424 51.7324C28.0924 51.6924 28.2379 51.6719 28.3779 51.6719C28.8378 51.6719 29.198 51.782 29.458 52.002C29.718 52.222 29.8477 52.4925 29.8477 52.8125C29.8476 53.0924 29.773 53.3426 29.623 53.5625C29.4831 53.7825 29.288 54.0475 29.0381 54.3574L27.4932 56.2471L29.9375 59.7422C29.8575 60.112 29.6829 60.407 29.4131 60.627C29.1531 60.837 28.7977 60.9424 28.3477 60.9424C28.0577 60.9424 27.8076 60.8724 27.5977 60.7324C27.3877 60.5825 27.1731 60.3323 26.9531 59.9824L25.7373 58.0625L23.8477 60.9121C23.7678 60.9221 23.6929 60.9277 23.623 60.9277C23.5532 60.9377 23.483 60.9424 23.4131 60.9424C23.0789 60.9424 22.7965 60.9013 22.5654 60.8223C22.528 60.9404 22.4746 61.0526 22.4033 61.1572C22.2633 61.3771 22.0682 61.6423 21.8184 61.9521L20.2734 63.8418L22.7188 67.3369C22.6387 67.7069 22.4633 68.0017 22.1934 68.2217C21.9334 68.4316 21.5787 68.537 21.1289 68.5371C20.8391 68.5371 20.5888 68.467 20.3789 68.3271C20.1689 68.1772 19.9534 67.927 19.7334 67.5771L18.5186 65.6572L16.6289 68.5068C16.5489 68.5168 16.4733 68.5215 16.4033 68.5215C16.3334 68.5315 16.2633 68.5371 16.1934 68.5371C15.6501 68.5371 15.2444 68.4306 14.9736 68.2217C14.7137 68.4315 14.359 68.5371 13.9092 68.5371C13.6193 68.5371 13.3691 68.4671 13.1592 68.3271C12.9493 68.1772 12.7346 67.9269 12.5146 67.5771L11.2988 65.6572L9.40918 68.5068C9.32933 68.5168 9.25446 68.5215 9.18457 68.5215C9.11467 68.5315 9.04451 68.5371 8.97461 68.5371C8.40461 68.5371 7.98387 68.4214 7.71387 68.1914C7.44419 67.9615 7.30961 67.6767 7.30957 67.3369C7.30957 67.047 7.36931 66.7969 7.48926 66.5869C7.61926 66.3669 7.7993 66.1113 8.0293 65.8213L9.60449 63.7969L7.47363 60.7949C7.25589 60.8915 6.99553 60.9423 6.69043 60.9424C6.40058 60.9424 6.15036 60.8723 5.94043 60.7324C5.73044 60.5824 5.51491 60.3324 5.29492 59.9824L4.08008 58.0625L2.19043 60.9121C2.11043 60.9221 2.03484 60.9277 1.96484 60.9277C1.89494 60.9377 1.82478 60.9424 1.75488 60.9424C1.18513 60.9424 0.765095 60.8275 0.495117 60.5977C0.225117 60.3677 0.0898438 60.0822 0.0898438 59.7422C0.0898545 59.4522 0.150519 59.2022 0.270508 58.9922C0.400497 58.7722 0.580633 58.5174 0.810547 58.2275L2.38477 56.2021L0 52.8418C0.0383968 52.7344 0.0903931 52.6279 0.152344 52.5205C0.11122 52.4046 0.0898438 52.2802 0.0898438 52.1475C0.0898866 51.8576 0.150551 51.6074 0.270508 51.3975C0.400489 51.1776 0.580693 50.9226 0.810547 50.6328L2.38477 48.6074L0 45.248C0.0499639 45.1081 0.120055 44.968 0.209961 44.8281C0.299916 44.6882 0.410125 44.5631 0.540039 44.4531C0.680039 44.3331 0.840508 44.238 1.02051 44.168C1.20043 44.0881 1.40023 44.0479 1.62012 44.0479C1.90994 44.0479 2.16486 44.1226 2.38477 44.2725C2.60477 44.4125 2.83055 44.6578 3.06055 45.0078L4.23047 46.793L5.95508 44.2432C6.03508 44.2032 6.14516 44.1677 6.28516 44.1377C6.435 44.0977 6.57986 44.0782 6.71973 44.0781C6.95647 44.0781 7.16682 44.1077 7.35059 44.166C7.38049 44.0343 7.42655 43.9135 7.48926 43.8037C7.61926 43.5837 7.7993 43.3281 8.0293 43.0381L9.60449 41.0137L7.21973 37.6533C7.26972 37.5134 7.33971 37.3734 7.42969 37.2334C7.51968 37.0934 7.62979 36.9684 7.75977 36.8584C7.89971 36.7385 8.05936 36.6432 8.23926 36.5732C8.41914 36.4933 8.61904 36.4532 8.83887 36.4531C9.12887 36.4531 9.38449 36.5287 9.60449 36.6787C9.82436 36.8187 10.0494 37.0633 10.2793 37.4131L11.4492 39.1982L13.1738 36.6484C13.2538 36.6085 13.3641 36.573 13.5039 36.543C13.6539 36.503 13.7995 36.4834 13.9395 36.4834C14.3195 36.4834 14.6305 36.5597 14.874 36.71C14.9792 36.5551 15.1032 36.3857 15.248 36.2031L16.8232 34.1787L15.0586 31.6924C15.0313 31.7182 15.0041 31.7445 14.9746 31.7686C14.7146 31.9786 14.3592 32.083 13.9092 32.083C13.6192 32.083 13.3691 32.013 13.1592 31.873C12.9492 31.723 12.7346 31.4729 12.5146 31.123L11.2988 29.2031L9.40918 32.0527C9.32931 32.0627 9.25447 32.0683 9.18457 32.0684C9.11467 32.0783 9.04451 32.083 8.97461 32.083C8.40461 32.083 7.98387 31.9683 7.71387 31.7383C7.444 31.5083 7.30957 31.2227 7.30957 30.8828C7.30962 30.593 7.36931 30.3427 7.48926 30.1328C7.61925 29.9129 7.79938 29.6581 8.0293 29.3682L9.60449 27.3428L7.47363 24.3418C7.25592 24.4383 6.99545 24.4882 6.69043 24.4883C6.40047 24.4883 6.15041 24.4183 5.94043 24.2783C5.73043 24.1283 5.51492 23.8783 5.29492 23.5283L4.08008 21.6084L2.19043 24.459C2.11043 24.469 2.03484 24.4736 1.96484 24.4736C1.89492 24.4836 1.82481 24.4883 1.75488 24.4883C1.18498 24.4883 0.765087 24.3735 0.495117 24.1436C0.225244 23.9136 0.089944 23.6289 0.0898438 23.2891C0.0898438 22.9991 0.150546 22.749 0.270508 22.5391C0.400508 22.3191 0.580547 22.0634 0.810547 21.7734L2.38477 19.749L0 16.3887C0.0383739 16.2812 0.090409 16.1748 0.152344 16.0674C0.111139 15.9514 0.0898591 15.8271 0.0898438 15.6943C0.0898438 15.4043 0.150508 15.1543 0.270508 14.9443C0.400504 14.7244 0.580574 14.4687 0.810547 14.1787L2.38477 12.1543L0 8.79395C0.0499954 8.65401 0.120002 8.51396 0.209961 8.37402C0.299953 8.23405 0.410059 8.10901 0.540039 7.99902C0.680025 7.87905 0.840533 7.78386 1.02051 7.71387C1.20038 7.63401 1.40031 7.59375 1.62012 7.59375C1.91004 7.59376 2.16481 7.66941 2.38477 7.81934C2.60474 7.95932 2.83057 8.20377 3.06055 8.55371L4.23047 10.3389L5.95508 7.78906C6.03507 7.74907 6.14519 7.71456 6.28516 7.68457C6.43503 7.6446 6.57983 7.62406 6.71973 7.62402C6.95641 7.62402 7.16685 7.65367 7.35059 7.71191C7.38052 7.58026 7.42652 7.4594 7.48926 7.34961C7.61923 7.12966 7.79938 6.87487 8.0293 6.58496L9.60449 4.55957L7.21973 1.19922C7.26971 1.0594 7.33981 0.919113 7.42969 0.779297C7.51963 0.63948 7.62991 0.514179 7.75977 0.404297C7.89961 0.284525 8.05953 0.190034 8.23926 0.120117C8.41914 0.0401701 8.61904 5.30397e-05 8.83887 0C9.12887 0 9.38449 0.0746089 9.60449 0.224609C9.82446 0.36462 10.0493 0.610012 10.2793 0.959961L11.4492 2.74512L13.1738 0.194336C13.2537 0.154375 13.3641 0.119824 13.5039 0.0898438C13.6539 0.0498437 13.7995 0.0292969 13.9395 0.0292969C14.3994 0.0293205 14.7596 0.139412 15.0195 0.359375C15.022 0.361447 15.0239 0.36413 15.0264 0.366211C15.1548 0.264473 15.299 0.182344 15.459 0.120117C15.6389 0.040182 15.8387 0 16.0586 0ZM53.7588 0C54.0488 0 54.3044 0.0746089 54.5244 0.224609C54.7443 0.364641 54.9693 0.61012 55.1992 0.959961L56.3691 2.74512L58.0938 0.194336C58.1737 0.154349 58.2839 0.119837 58.4238 0.0898438C58.5738 0.0498437 58.7194 0.0292969 58.8594 0.0292969C59.3189 0.029366 59.6786 0.139685 59.9385 0.359375C60.1985 0.579375 60.3291 0.849922 60.3291 1.16992C60.3291 1.44983 60.2535 1.69998 60.1035 1.91992C59.9635 2.13985 59.7684 2.40501 59.5186 2.71484L57.9736 4.60449L60.2051 7.79395C60.2607 7.76499 60.3178 7.73725 60.3779 7.71387C60.5579 7.63387 60.7585 7.59375 60.9785 7.59375C61.2684 7.59381 61.5233 7.6694 61.7432 7.81934C61.9631 7.95929 62.1881 8.20397 62.418 8.55371L63.5879 10.3389L65.3135 7.78906C65.3935 7.74912 65.5037 7.71453 65.6436 7.68457C65.7934 7.64462 65.9382 7.62403 66.0781 7.62402C66.5381 7.62402 66.8982 7.73411 67.1582 7.9541C67.4182 8.1741 67.5479 8.44465 67.5479 8.76465C67.5478 9.04446 67.4732 9.29477 67.3232 9.51465C67.1833 9.73459 66.9882 9.99971 66.7383 10.3096L65.1934 12.1992L67.6377 15.6943C67.6079 15.832 67.5649 15.9592 67.5088 16.0762C67.5337 16.1656 67.5478 16.2594 67.5479 16.3584C67.5479 16.6383 67.4731 16.8885 67.3232 17.1084C67.1833 17.3283 66.9882 17.5934 66.7383 17.9033L65.1934 19.7939L67.6377 23.2891C67.5576 23.6588 67.3832 23.9539 67.1133 24.1738C66.8533 24.3838 66.4978 24.4883 66.0479 24.4883C65.758 24.4882 65.5078 24.4183 65.2979 24.2783C65.088 24.1283 64.8732 23.8781 64.6533 23.5283L63.4385 21.6084L61.5479 24.459C61.468 24.469 61.3931 24.4736 61.3232 24.4736C61.2533 24.4836 61.1832 24.4883 61.1133 24.4883C60.779 24.4883 60.4967 24.4473 60.2656 24.3682C60.2282 24.4865 60.1749 24.5984 60.1035 24.7031C59.9635 24.9231 59.7685 25.1881 59.5186 25.498L57.9736 27.3877L60.4189 30.8828C60.3389 31.2528 60.1636 31.5486 59.8936 31.7686C59.6336 31.9783 59.2788 32.083 58.8291 32.083C58.5391 32.083 58.2891 32.013 58.0791 31.873C57.8691 31.723 57.6536 31.473 57.4336 31.123L56.2188 29.2031L54.3291 32.0527C54.2491 32.0627 54.1735 32.0684 54.1035 32.0684C54.0337 32.0783 53.9634 32.083 53.8936 32.083C53.3237 32.083 52.9037 31.9682 52.6338 31.7383C52.437 31.5706 52.3121 31.3736 52.2588 31.1475C52.2217 31.2864 52.1653 31.4173 52.083 31.5381C51.9431 31.758 51.7479 32.0232 51.498 32.333L49.9521 34.2236L52.2197 37.4629C52.2569 37.3865 52.2995 37.3098 52.3486 37.2334C52.4386 37.0935 52.5488 36.9684 52.6787 36.8584C52.8187 36.7384 52.9792 36.6432 53.1592 36.5732C53.3391 36.4933 53.5389 36.4531 53.7588 36.4531C54.0488 36.4531 54.3044 36.5287 54.5244 36.6787C54.7442 36.8188 54.9694 37.0634 55.1992 37.4131L56.3691 39.1982L58.0938 36.6484C58.1737 36.6084 58.2839 36.573 58.4238 36.543C58.5738 36.503 58.7194 36.4834 58.8594 36.4834C59.3191 36.4835 59.6786 36.5936 59.9385 36.8135C60.1984 37.0334 60.329 37.3031 60.3291 37.623C60.3291 37.903 60.2535 38.153 60.1035 38.373C59.9635 38.593 59.7685 38.858 59.5186 39.168L57.9736 41.0586L60.2041 44.2471C60.2599 44.218 60.3177 44.1914 60.3779 44.168C60.5579 44.088 60.7585 44.0479 60.9785 44.0479C61.2683 44.0479 61.5233 44.1226 61.7432 44.2725C61.9632 44.4125 62.188 44.6578 62.418 45.0078L63.5879 46.793L65.3135 44.2432C65.3935 44.2032 65.5036 44.1677 65.6436 44.1377C65.7934 44.0978 65.9383 44.0781 66.0781 44.0781C66.5381 44.0781 66.8982 44.1882 67.1582 44.4082C67.418 44.6282 67.5479 44.8979 67.5479 45.2178C67.5479 45.4978 67.4732 45.7478 67.3232 45.9678C67.1833 46.1877 66.9882 46.4527 66.7383 46.7627L65.1934 48.6523L67.6377 52.1475C67.6079 52.2851 67.5648 52.4124 67.5088 52.5293C67.5338 52.619 67.5479 52.7132 67.5479 52.8125C67.5478 53.0924 67.4732 53.3426 67.3232 53.5625C67.1833 53.7825 66.9882 54.0475 66.7383 54.3574L65.1934 56.2471L67.6377 59.7422C67.5577 60.1121 67.3831 60.407 67.1133 60.627C66.8533 60.837 66.4978 60.9424 66.0479 60.9424C65.758 60.9423 65.5078 60.8724 65.2979 60.7324C65.0879 60.5824 64.8732 60.3323 64.6533 59.9824L63.4385 58.0625L61.5479 60.9121C61.468 60.9221 61.3931 60.9277 61.3232 60.9277C61.2533 60.9377 61.1832 60.9424 61.1133 60.9424C60.779 60.9424 60.4967 60.9014 60.2656 60.8223C60.2282 60.9404 60.1748 61.0527 60.1035 61.1572C59.9635 61.3771 59.7684 61.6424 59.5186 61.9521L57.9736 63.8418L60.4189 67.3369C60.3389 67.7068 60.1635 68.0017 59.8936 68.2217C59.6336 68.4315 59.2789 68.5371 58.8291 68.5371C58.5392 68.5371 58.289 68.467 58.0791 68.3271C57.8691 68.1772 57.6536 67.9271 57.4336 67.5771L56.2188 65.6572L54.3291 68.5068C54.2491 68.5168 54.1735 68.5215 54.1035 68.5215C54.0336 68.5314 53.9634 68.5371 53.8936 68.5371C53.3503 68.5371 52.9445 68.4307 52.6738 68.2217C52.4139 68.4314 52.0591 68.5371 51.6094 68.5371C51.3195 68.5371 51.0693 68.4671 50.8594 68.3271C50.6495 68.1772 50.4348 67.9269 50.2148 67.5771L49 65.6572L47.1094 68.5068C47.0295 68.5168 46.9547 68.5215 46.8848 68.5215C46.8148 68.5315 46.7448 68.5371 46.6748 68.5371C46.1048 68.5371 45.685 68.4214 45.415 68.1914C45.1451 67.9614 45.0098 67.6768 45.0098 67.3369C45.0098 67.047 45.0695 66.7969 45.1895 66.5869C45.3195 66.3669 45.4995 66.1113 45.7295 65.8213L47.3047 63.7969L45.1738 60.7949C44.9561 60.8915 44.6957 60.9424 44.3906 60.9424C44.1007 60.9424 43.8506 60.8723 43.6406 60.7324C43.4306 60.5824 43.2151 60.3324 42.9951 59.9824L41.7803 58.0625L39.8906 60.9121C39.8106 60.9221 39.735 60.9277 39.665 60.9277C39.5952 60.9377 39.5249 60.9424 39.4551 60.9424C38.8853 60.9423 38.4653 60.8275 38.1953 60.5977C37.9253 60.3677 37.79 60.0822 37.79 59.7422C37.7901 59.4522 37.8507 59.2022 37.9707 58.9922C38.1007 58.7722 38.2808 58.5175 38.5107 58.2275L40.0859 56.2021L37.7002 52.8418C37.7502 52.7019 37.8202 52.5618 37.9102 52.4219C38.0001 52.2819 38.1103 52.1568 38.2402 52.0469C38.3802 51.9269 38.5407 51.8327 38.7207 51.7627C38.9007 51.6827 39.1004 51.6426 39.3203 51.6426C39.6103 51.6426 39.8659 51.7172 40.0859 51.8672C40.3058 52.0072 40.5308 52.2527 40.7607 52.6025L41.9307 54.3877L43.6553 51.8369C43.7352 51.7969 43.8454 51.7624 43.9854 51.7324C44.1354 51.6924 44.2809 51.6719 44.4209 51.6719C44.8804 51.6719 45.2401 51.7823 45.5 52.002C45.5025 52.0041 45.5053 52.0067 45.5078 52.0088C45.6361 51.9072 45.7797 51.8249 45.9395 51.7627C46.1195 51.6827 46.32 51.6426 46.54 51.6426C46.8299 51.6426 47.0848 51.7173 47.3047 51.8672C47.5247 52.0072 47.7495 52.2525 47.9795 52.6025L49.1494 54.3877L50.875 51.8369C50.955 51.797 51.0653 51.7624 51.2051 51.7324C51.3549 51.6925 51.4998 51.6719 51.6396 51.6719C51.8764 51.6719 52.0867 51.7015 52.2705 51.7598C52.3004 51.6282 52.3465 51.5072 52.4092 51.3975C52.5392 51.1775 52.7193 50.9227 52.9492 50.6328L54.5244 48.6074L52.1387 45.248C52.1771 45.1406 52.23 45.0342 52.292 44.9268C52.2507 44.8107 52.2286 44.6866 52.2285 44.5537C52.2285 44.2638 52.2893 44.0137 52.4092 43.8037C52.5392 43.5837 52.7192 43.3281 52.9492 43.0381L54.5244 41.0137L52.3359 37.9316C52.2415 38.2031 52.0887 38.4278 51.873 38.6035C51.6131 38.8135 51.2576 38.918 50.8076 38.918C50.5176 38.918 50.2676 38.848 50.0576 38.708C49.8476 38.558 49.6321 38.308 49.4121 37.958L48.1973 36.0381L46.3076 38.8887C46.2278 38.8987 46.1529 38.9033 46.083 38.9033C46.0132 38.9133 45.9429 38.9179 45.873 38.918C45.303 38.918 44.8823 38.8032 44.6123 38.5732C44.3424 38.3433 44.208 38.0577 44.208 37.7178C44.2081 37.428 44.2678 37.1777 44.3877 36.9678C44.5177 36.7479 44.6979 36.493 44.9277 36.2031L46.5029 34.1787L44.1172 30.8184C44.1671 30.6785 44.2373 30.5383 44.3271 30.3984C44.4171 30.2585 44.5274 30.1334 44.6572 30.0234C44.7972 29.9034 44.9577 29.8083 45.1377 29.7383C45.3176 29.6583 45.5174 29.6182 45.7373 29.6182C46.0273 29.6182 46.2829 29.6928 46.5029 29.8428C46.7229 29.9828 46.9478 30.2281 47.1777 30.5781L48.3477 32.3633L50.0723 29.8135C50.1522 29.7735 50.2624 29.738 50.4023 29.708C50.5523 29.668 50.6979 29.6484 50.8379 29.6484C51.2977 29.6485 51.658 29.7586 51.918 29.9785C52.0975 30.1306 52.2131 30.307 52.2686 30.5068C52.2984 30.3708 52.3447 30.2457 52.4092 30.1328C52.5392 29.9129 52.7193 29.658 52.9492 29.3682L54.5244 27.3428L52.1387 23.9834C52.177 23.876 52.2291 23.7695 52.291 23.6621C52.2498 23.5461 52.2286 23.4218 52.2285 23.2891C52.2285 22.9991 52.2892 22.749 52.4092 22.5391C52.5392 22.3191 52.7192 22.0634 52.9492 21.7734L54.5244 19.749L52.3936 16.7471C52.1757 16.8437 51.9147 16.8945 51.6094 16.8945C51.3195 16.8945 51.0693 16.8245 50.8594 16.6846C50.6495 16.5346 50.4348 16.2844 50.2148 15.9346L49 14.0146L47.1094 16.8643C47.0295 16.8742 46.9547 16.8789 46.8848 16.8789C46.8148 16.8889 46.7448 16.8945 46.6748 16.8945C46.1313 16.8945 45.7258 16.7873 45.4551 16.5781V16.5791C45.1951 16.789 44.8404 16.8945 44.3906 16.8945C44.1007 16.8945 43.8506 16.8244 43.6406 16.6846C43.4306 16.5346 43.2151 16.2845 42.9951 15.9346L41.7803 14.0146L39.8906 16.8643C39.8106 16.8743 39.735 16.8789 39.665 16.8789C39.5952 16.8889 39.5249 16.8945 39.4551 16.8945C38.8853 16.8945 38.4652 16.7788 38.1953 16.5488C37.9255 16.3189 37.7901 16.0342 37.79 15.6943C37.79 15.4043 37.8507 15.1543 37.9707 14.9443C38.1007 14.7243 38.2807 14.4687 38.5107 14.1787L40.0859 12.1543L37.7002 8.79395C37.7502 8.654 37.8202 8.51397 37.9102 8.37402C38.0001 8.23405 38.1103 8.10901 38.2402 7.99902C38.3802 7.87902 38.5407 7.78387 38.7207 7.71387C38.9006 7.63398 39.1005 7.59377 39.3203 7.59375C39.6103 7.59375 39.8659 7.66934 40.0859 7.81934C40.3058 7.95935 40.5309 8.20403 40.7607 8.55371L41.9307 10.3389L43.6553 7.78906C43.7352 7.74908 43.8455 7.71456 43.9854 7.68457C44.1354 7.64457 44.2809 7.62402 44.4209 7.62402C44.6573 7.62406 44.8672 7.65375 45.0508 7.71191C45.0807 7.58027 45.1267 7.4594 45.1895 7.34961C45.3194 7.12968 45.4996 6.87485 45.7295 6.58496L47.3047 4.55957L44.9199 1.19922C44.9699 1.05938 45.04 0.919135 45.1299 0.779297C45.2198 0.639441 45.3301 0.514204 45.46 0.404297C45.5998 0.284516 45.7598 0.190048 45.9395 0.120117C46.1195 0.040117 46.32 0 46.54 0C46.8299 5.60516e-05 47.0848 0.0746905 47.3047 0.224609C47.5247 0.364609 47.7495 0.609961 47.9795 0.959961L49.1494 2.74512L50.875 0.194336C50.955 0.154413 51.0653 0.119797 51.2051 0.0898438C51.3549 0.0499035 51.4998 0.0293031 51.6396 0.0292969C52.0996 0.0292969 52.4597 0.139459 52.7197 0.359375C52.7221 0.361412 52.7242 0.364166 52.7266 0.366211C52.855 0.264425 52.9991 0.182365 53.1592 0.120117C53.3391 0.0401477 53.5389 1.83814e-05 53.7588 0ZM15.0684 61.3242C14.9423 61.507 14.7884 61.718 14.5996 61.9521L13.0547 63.8418L14.834 66.3867C14.9469 66.216 15.0847 66.0273 15.248 65.8213L16.8232 63.7969L15.0684 61.3242ZM52.7686 61.3242C52.6425 61.507 52.4886 61.7181 52.2998 61.9521L50.7549 63.8418L52.5352 66.3857C52.6479 66.2153 52.7862 66.0269 52.9492 65.8213L54.5244 63.7969L52.7686 61.3242ZM10.0723 59.9111C10.1403 59.9972 10.2104 60.0914 10.2793 60.1963L11.4492 61.9814L12.6572 60.1943C12.6102 60.1281 12.5621 60.0579 12.5146 59.9824L11.2988 58.0625L10.0723 59.9111ZM17.292 59.9121C17.3598 59.9979 17.4294 60.0918 17.498 60.1963L18.6689 61.9814L19.877 60.1943C19.8299 60.128 19.781 60.0581 19.7334 59.9824L18.5186 58.0625L17.292 59.9121ZM47.7725 59.9111C47.8405 59.9972 47.9105 60.0914 47.9795 60.1963L49.1494 61.9814L50.3574 60.1943C50.3104 60.1281 50.2623 60.0579 50.2148 59.9824L49 58.0625L47.7725 59.9111ZM54.9922 59.9121C55.0601 59.998 55.1304 60.0917 55.1992 60.1963L56.3691 61.9814L57.5771 60.1943C57.5301 60.128 57.4811 60.0581 57.4336 59.9824L56.2188 58.0625L54.9922 59.9121ZM15.0684 53.7295C14.9423 53.9123 14.7884 54.1233 14.5996 54.3574L13.0547 56.2471L14.834 58.792C14.9468 58.6215 15.0849 58.4333 15.248 58.2275L16.8232 56.2021L15.0684 53.7295ZM45.5488 53.7285C45.4227 53.9114 45.269 54.1231 45.0801 54.3574L43.5352 56.2471L45.3154 58.792C45.4283 58.6215 45.5663 58.4333 45.7295 58.2275L47.3047 56.2021L45.5488 53.7285ZM59.9873 53.7285C59.8612 53.9114 59.7075 54.1231 59.5186 54.3574L57.9736 56.2471L59.7539 58.792C59.8667 58.6215 60.0048 58.4333 60.168 58.2275L61.7432 56.2021L59.9873 53.7285ZM7.84863 53.7285C7.7225 53.9114 7.56888 54.1231 7.37988 54.3574L5.83496 56.2471L7.61523 58.791C7.72799 58.6207 7.86631 58.433 8.0293 58.2275L9.60449 56.2021L7.84863 53.7285ZM22.2871 53.7285C22.161 53.9114 22.0074 54.1231 21.8184 54.3574L20.2734 56.2471L22.0537 58.791C22.1665 58.6207 22.3048 58.433 22.4678 58.2275L24.043 56.2021L22.2871 53.7285ZM52.7686 53.7295C52.6425 53.9123 52.4886 54.1233 52.2998 54.3574L50.7549 56.2471L52.5352 58.791C52.6479 58.6207 52.7862 58.433 52.9492 58.2275L54.5244 56.2021L52.7686 53.7295ZM2.85352 52.3174C2.92145 52.4033 2.99172 52.4978 3.06055 52.6025L4.23047 54.3877L5.4375 52.6006C5.39038 52.5342 5.34251 52.4634 5.29492 52.3877L4.08008 50.4678L2.85352 52.3174ZM10.0723 52.3164C10.1404 52.4026 10.2102 52.4975 10.2793 52.6025L11.4492 54.3877L12.6572 52.5996C12.6102 52.5334 12.5621 52.4632 12.5146 52.3877L11.2988 50.4678L10.0723 52.3164ZM54.9922 52.3174C55.0601 52.4033 55.1304 52.4978 55.1992 52.6025L56.3691 54.3877L57.5762 52.6006C57.5291 52.5343 57.4812 52.4634 57.4336 52.3877L56.2188 50.4678L54.9922 52.3174ZM62.2109 52.3164C62.2791 52.4026 62.3489 52.4974 62.418 52.6025L63.5879 54.3877L64.7959 52.6006C64.7487 52.5342 64.7009 52.4634 64.6533 52.3877L63.4385 50.4678L62.2109 52.3164ZM31.2988 44.0479C31.5888 44.0479 31.8445 44.1225 32.0645 44.2725C32.2844 44.4125 32.5093 44.6579 32.7393 45.0078L33.9092 46.793L35.6338 44.2432C35.7137 44.2032 35.824 44.1677 35.9639 44.1377C36.1139 44.0977 36.2594 44.0781 36.3994 44.0781C36.8593 44.0782 37.2195 44.1882 37.4795 44.4082C37.7392 44.6281 37.8691 44.8979 37.8691 45.2178C37.8691 45.4977 37.7944 45.7478 37.6445 45.9678C37.5046 46.1877 37.3095 46.4528 37.0596 46.7627L35.5137 48.6523L37.959 52.1475C37.879 52.5174 37.7045 52.8132 37.4346 53.0332C37.1746 53.2432 36.8191 53.3477 36.3691 53.3477C36.0791 53.3477 35.8291 53.2777 35.6191 53.1377C35.4092 52.9877 35.1946 52.7376 34.9746 52.3877L33.7588 50.4678L31.8691 53.3174C31.7893 53.3274 31.7144 53.333 31.6445 53.333C31.5747 53.343 31.5044 53.3476 31.4346 53.3477C30.8646 53.3477 30.4438 53.2329 30.1738 53.0029C29.9039 52.7729 29.7695 52.4874 29.7695 52.1475C29.7696 51.8576 29.8293 51.6074 29.9492 51.3975C30.0792 51.1775 30.2594 50.9227 30.4893 50.6328L32.0645 48.6074L29.6787 45.248C29.7287 45.1082 29.7988 44.968 29.8887 44.8281C29.9786 44.6883 30.0889 44.563 30.2188 44.4531C30.3587 44.3331 30.5192 44.238 30.6992 44.168C30.8791 44.088 31.0789 44.0479 31.2988 44.0479ZM7.84863 46.1348C7.72256 46.3176 7.5687 46.5286 7.37988 46.7627L5.83496 48.6523L7.61523 51.1973C7.72808 51.0267 7.8661 50.8386 8.0293 50.6328L9.60449 48.6074L7.84863 46.1348ZM59.9873 46.1348C59.8612 46.3175 59.7073 46.5286 59.5186 46.7627L57.9736 48.6523L59.7539 51.1973C59.8667 51.0267 60.0048 50.8386 60.168 50.6328L61.7432 48.6074L59.9873 46.1348ZM10.0723 44.7227C10.1403 44.8087 10.2104 44.9029 10.2793 45.0078L11.4492 46.793L12.6572 45.0059C12.6101 44.9395 12.5623 44.8687 12.5146 44.793L11.2988 42.873L10.0723 44.7227ZM54.9922 44.7227C55.0602 44.8087 55.1303 44.903 55.1992 45.0078L56.3691 46.793L57.5771 45.0059C57.53 44.9394 57.4812 44.8688 57.4336 44.793L56.2188 42.873L54.9922 44.7227ZM31.2988 29.6182C31.5888 29.6182 31.8445 29.6928 32.0645 29.8428C32.2844 29.9828 32.5093 30.2281 32.7393 30.5781L33.9092 32.3633L35.6338 29.8135C35.7138 29.7735 35.824 29.738 35.9639 29.708C36.1139 29.668 36.2594 29.6484 36.3994 29.6484C36.8593 29.6485 37.2195 29.7586 37.4795 29.9785C37.7392 30.1984 37.8691 30.4683 37.8691 30.7881C37.8691 31.068 37.7944 31.3182 37.6445 31.5381C37.5046 31.758 37.3094 32.0232 37.0596 32.333L35.5137 34.2236L37.959 37.7178C37.879 38.0877 37.7045 38.3835 37.4346 38.6035C37.1746 38.8135 36.8191 38.918 36.3691 38.918C36.0791 38.918 35.8291 38.848 35.6191 38.708C35.4092 38.558 35.1946 38.3079 34.9746 37.958L33.7588 36.0381L31.8691 38.8887C31.7893 38.8987 31.7144 38.9033 31.6445 38.9033C31.5747 38.9133 31.5044 38.9179 31.4346 38.918C30.8646 38.918 30.4438 38.8032 30.1738 38.5732C29.9039 38.3433 29.7695 38.0577 29.7695 37.7178C29.7696 37.428 29.8293 37.1777 29.9492 36.9678C30.0792 36.7479 30.2594 36.493 30.4893 36.2031L32.0645 34.1787L29.6787 30.8184C29.7287 30.6785 29.7988 30.5383 29.8887 30.3984C29.9786 30.2586 30.0889 30.1334 30.2188 30.0234C30.3587 29.9034 30.5192 29.8083 30.6992 29.7383C30.8791 29.6583 31.079 29.6182 31.2988 29.6182ZM10.0723 23.458C10.1403 23.544 10.2104 23.6383 10.2793 23.7432L11.4492 25.5283L12.6572 23.7412C12.6101 23.6749 12.5622 23.604 12.5146 23.5283L11.2988 21.6084L10.0723 23.458ZM54.9922 23.458C55.0602 23.544 55.1303 23.6383 55.1992 23.7432L56.3691 25.5283L57.5771 23.7412C57.53 23.6748 57.4812 23.6041 57.4336 23.5283L56.2188 21.6084L54.9922 23.458ZM31.2988 15.1885C31.5888 15.1885 31.8445 15.2641 32.0645 15.4141C32.2843 15.5541 32.5094 15.7987 32.7393 16.1484L33.9092 17.9336L35.6338 15.3838C35.7138 15.3438 35.8239 15.3083 35.9639 15.2783C36.1139 15.2383 36.2594 15.2188 36.3994 15.2188C36.8593 15.2188 37.2195 15.3289 37.4795 15.5488C37.7392 15.7687 37.8691 16.0386 37.8691 16.3584C37.8691 16.6382 37.7944 16.8885 37.6445 17.1084C37.5046 17.3283 37.3094 17.5935 37.0596 17.9033L35.5137 19.7939L37.959 23.2891C37.879 23.6588 37.7044 23.9539 37.4346 24.1738C37.1746 24.3838 36.8191 24.4883 36.3691 24.4883C36.0791 24.4883 35.8291 24.4183 35.6191 24.2783C35.4092 24.1283 35.1946 23.8782 34.9746 23.5283L33.7588 21.6084L31.8691 24.459C31.7893 24.469 31.7144 24.4736 31.6445 24.4736C31.5747 24.4836 31.5044 24.4883 31.4346 24.4883C30.8646 24.4883 30.4438 24.3736 30.1738 24.1436C29.9041 23.9137 29.7696 23.6288 29.7695 23.2891C29.7695 22.9992 29.8293 22.749 29.9492 22.5391C30.0792 22.3191 30.2593 22.0634 30.4893 21.7734L32.0645 19.749L29.6787 16.3887C29.7287 16.2488 29.7987 16.1087 29.8887 15.9688C29.9786 15.8288 30.0889 15.7037 30.2188 15.5938C30.3587 15.4738 30.5192 15.3786 30.6992 15.3086C30.8791 15.2287 31.079 15.1885 31.2988 15.1885ZM59.9873 17.2754C59.8612 17.4582 59.7074 17.6692 59.5186 17.9033L57.9736 19.7939L59.7539 22.3389C59.8668 22.1682 60.0046 21.9794 60.168 21.7734L61.7432 19.749L59.9873 17.2754ZM7.84863 17.2754C7.72256 17.4582 7.56872 17.6692 7.37988 17.9033L5.83496 19.7939L7.61523 22.3379C7.72806 22.1674 7.86615 21.9791 8.0293 21.7734L9.60449 19.749L7.84863 17.2754ZM2.85352 15.8633C2.92153 15.9493 2.99163 16.0436 3.06055 16.1484L4.23047 17.9336L5.43848 16.1465C5.39137 16.0802 5.34249 16.0102 5.29492 15.9346L4.08008 14.0146L2.85352 15.8633ZM10.0723 15.8633C10.1403 15.9493 10.2104 16.0435 10.2793 16.1484L11.4492 17.9336L12.6572 16.1465C12.6102 16.0803 12.5621 16.0101 12.5146 15.9346L11.2988 14.0146L10.0723 15.8633ZM54.9922 15.8633C55.0602 15.9493 55.1303 16.0435 55.1992 16.1484L56.3691 17.9336L57.5771 16.1465C57.53 16.0802 57.4812 16.0102 57.4336 15.9346L56.2188 14.0146L54.9922 15.8633ZM62.2109 15.8633C62.279 15.9493 62.349 16.0435 62.418 16.1484L63.5879 17.9336L64.7959 16.1465C64.7489 16.0803 64.7008 16.0101 64.6533 15.9346L63.4385 14.0146L62.2109 15.8633ZM15.0684 9.68066C14.9422 9.8636 14.7886 10.0752 14.5996 10.3096L13.0547 12.1992L14.834 14.7441C14.9469 14.5735 15.0847 14.3847 15.248 14.1787L16.8232 12.1543L15.0684 9.68066ZM45.5488 9.68066C45.4227 9.86352 45.269 10.0753 45.0801 10.3096L43.5352 12.1992L45.3154 14.7441C45.4283 14.5735 45.5662 14.3847 45.7295 14.1787L47.3047 12.1543L45.5488 9.68066ZM59.9873 9.68164C59.8613 9.86434 59.7072 10.0756 59.5186 10.3096L57.9736 12.1992L59.7539 14.7441C59.8668 14.5735 60.0046 14.3847 60.168 14.1787L61.7432 12.1543L59.9873 9.68164ZM7.84863 9.68066C7.72252 9.86354 7.56882 10.0753 7.37988 10.3096L5.83496 12.1992L7.61523 14.7432C7.72804 14.5727 7.8662 14.3843 8.0293 14.1787L9.60449 12.1543L7.84863 9.68066ZM22.2871 9.68066C22.161 9.86355 22.0073 10.0753 21.8184 10.3096L20.2734 12.1992L22.0537 14.7432C22.1665 14.5727 22.3047 14.3843 22.4678 14.1787L24.043 12.1543L22.2871 9.68066ZM52.7686 9.68164C52.6425 9.86439 52.4886 10.0755 52.2998 10.3096L50.7549 12.1992L52.5352 14.7432C52.6479 14.5728 52.7862 14.3843 52.9492 14.1787L54.5244 12.1543L52.7686 9.68164ZM10.0723 8.26855C10.1403 8.35458 10.2104 8.44882 10.2793 8.55371L11.4492 10.3389L12.6572 8.55176C12.6102 8.48556 12.5621 8.41535 12.5146 8.33984L11.2988 6.41992L10.0723 8.26855ZM17.292 8.26953C17.3598 8.35527 17.4294 8.44925 17.498 8.55371L18.6689 10.3389L19.877 8.55176C19.8299 8.48543 19.781 8.41552 19.7334 8.33984L18.5186 6.41992L17.292 8.26953ZM47.7725 8.26855C47.8405 8.35458 47.9105 8.44882 47.9795 8.55371L49.1494 10.3389L50.3574 8.55176C50.3104 8.48556 50.2623 8.41535 50.2148 8.33984L49 6.41992L47.7725 8.26855ZM54.9922 8.26953C55.0601 8.3554 55.1304 8.44907 55.1992 8.55371L56.3691 10.3389L57.5771 8.55176C57.5301 8.48545 57.4811 8.4155 57.4336 8.33984L56.2188 6.41992L54.9922 8.26953ZM15.0684 2.08691C14.9423 2.26971 14.7884 2.4807 14.5996 2.71484L13.0547 4.60449L14.834 7.14941C14.9468 6.97889 15.0849 6.79074 15.248 6.58496L16.8232 4.55957L15.0684 2.08691ZM52.7686 2.08691C52.6425 2.26971 52.4886 2.48072 52.2998 2.71484L50.7549 4.60449L52.5352 7.14844C52.6479 6.97808 52.7862 6.79047 52.9492 6.58496L54.5244 4.55957L52.7686 2.08691Z" fill="#A4CCFF"/>
</svg>
