<svg width="54" height="75" viewBox="0 0 54 75" fill="none" xmlns="http://www.w3.org/2000/svg">
<path d="M17.2197 70.0303C17.3744 70.031 17.5109 70.0718 17.6279 70.1523C17.7448 70.2275 17.8637 70.3589 17.9854 70.5459L18.6055 71.501L19.5312 70.1445C19.574 70.1234 19.6333 70.1055 19.708 70.0898C19.7881 70.0689 19.8658 70.0583 19.9404 70.0586C20.1855 70.0598 20.3776 70.1194 20.5156 70.2373C20.6535 70.3552 20.7224 70.4994 20.7217 70.6699C20.721 70.8192 20.6801 70.9524 20.5996 71.0693C20.5244 71.1863 20.4201 71.3275 20.2861 71.4922L19.457 72.4961L20.7529 74.3662C20.7094 74.5633 20.6152 74.7202 20.4707 74.8369C20.3316 74.9482 20.1422 75.003 19.9023 75.002C19.7478 75.0013 19.6146 74.9638 19.5029 74.8887C19.3913 74.8082 19.2767 74.6745 19.1602 74.4873L18.5166 73.46L17.502 74.9756C17.4594 74.9807 17.4191 74.9836 17.3818 74.9834C17.3447 74.9885 17.3076 74.9904 17.2705 74.9902C16.9665 74.9889 16.7421 74.927 16.5986 74.8037C16.4553 74.6804 16.384 74.5279 16.3848 74.3467C16.3855 74.1922 16.418 74.0589 16.4824 73.9473C16.5523 73.8302 16.6491 73.6942 16.7725 73.54L17.6172 72.4639L16.3535 70.667C16.3805 70.5926 16.4176 70.5177 16.4658 70.4434C16.5141 70.3689 16.574 70.3025 16.6436 70.2441C16.7184 70.1806 16.8034 70.1297 16.8994 70.0928C16.9955 70.0506 17.1025 70.0298 17.2197 70.0303ZM11.7598 70.0059C11.9144 70.0065 12.051 70.0474 12.168 70.1279C12.2849 70.2031 12.4046 70.3343 12.5264 70.5215L13.1455 71.4766L14.0713 70.1201C14.114 70.099 14.1733 70.0811 14.248 70.0654C14.3281 70.0445 14.4058 70.0338 14.4805 70.0342C14.7256 70.0353 14.9176 70.095 15.0557 70.2129C15.1936 70.3307 15.2624 70.4751 15.2617 70.6455C15.2611 70.7947 15.2201 70.928 15.1396 71.0449C15.0645 71.1619 14.9601 71.3031 14.8262 71.4678L13.9971 72.4727L15.293 74.3418C15.2494 74.5389 15.1553 74.6958 15.0107 74.8125C14.8716 74.9238 14.6823 74.9796 14.4424 74.9785C14.2877 74.9778 14.1546 74.9394 14.043 74.8643C13.9313 74.7838 13.8167 74.6501 13.7002 74.4629L13.0576 73.4365L12.042 74.9512C11.9996 74.9563 11.9599 74.9591 11.9229 74.959C11.8855 74.9641 11.8478 74.967 11.8105 74.9668C11.5066 74.9654 11.2831 74.9025 11.1396 74.7793C10.9962 74.656 10.924 74.5036 10.9248 74.3223C10.9255 74.1678 10.959 74.0345 11.0234 73.9229C11.0932 73.806 11.1894 73.6704 11.3125 73.5166L12.1572 72.4404L10.8936 70.6426C10.9205 70.568 10.9585 70.4934 11.0068 70.4189C11.0551 70.3446 11.1141 70.278 11.1836 70.2197C11.2585 70.1561 11.3443 70.1062 11.4404 70.0693C11.5364 70.0272 11.6427 70.0054 11.7598 70.0059ZM6.7207 69.9834C6.87523 69.9841 7.01103 70.025 7.12793 70.1055C7.24492 70.1806 7.3645 70.3119 7.48633 70.499L8.10645 71.4541L9.03223 70.0977C9.07492 70.0766 9.1336 70.0586 9.20801 70.043C9.2881 70.022 9.36576 70.0114 9.44043 70.0117C9.68571 70.0128 9.8775 70.0725 10.0156 70.1904C10.1537 70.3083 10.2223 70.4525 10.2217 70.623C10.221 70.7723 10.1801 70.9055 10.0996 71.0225C10.0244 71.1394 9.92014 71.2806 9.78613 71.4453L8.95801 72.4502L10.2529 74.3193C10.2094 74.5163 10.116 74.6734 9.97168 74.79C9.83252 74.9014 9.64234 74.9571 9.40234 74.9561C9.24777 74.9553 9.11455 74.9169 9.00293 74.8418C8.89136 74.7613 8.77756 74.6275 8.66113 74.4404L8.01758 73.4141L7.00293 74.9287C6.96031 74.9338 6.92009 74.9367 6.88281 74.9365C6.84546 74.9417 6.80784 74.9445 6.77051 74.9443C6.46655 74.943 6.24305 74.8801 6.09961 74.7568C5.95617 74.6335 5.88494 74.4811 5.88574 74.2998C5.88647 74.1453 5.91896 74.012 5.9834 73.9004C6.05324 73.7834 6.15018 73.6482 6.27344 73.4941L7.11816 72.418L5.85352 70.6201C5.88051 70.5456 5.91847 70.4709 5.9668 70.3965C6.01511 70.3221 6.07399 70.2556 6.14355 70.1973C6.21849 70.1336 6.30425 70.0838 6.40039 70.0469C6.49657 70.0046 6.60339 69.9829 6.7207 69.9834ZM22.2861 64.1445C22.4407 64.1453 22.5764 64.1861 22.6934 64.2666C22.8103 64.3418 22.9299 64.473 23.0518 64.6602L23.6719 65.6152L24.5977 64.2588C24.6403 64.2377 24.699 64.2197 24.7734 64.2041C24.8535 64.1831 24.9312 64.1725 25.0059 64.1729C25.2512 64.1739 25.4429 64.2336 25.5811 64.3516C25.7191 64.4695 25.7878 64.6136 25.7871 64.7842C25.7865 64.9335 25.7456 65.0666 25.665 65.1836C25.5899 65.3006 25.4856 65.4417 25.3516 65.6064L24.5234 66.6104L25.8193 68.4805C25.7758 68.6775 25.6815 68.8345 25.5371 68.9512C25.398 69.0626 25.2078 69.1173 24.9678 69.1162C24.8132 69.1155 24.68 69.078 24.5684 69.0029C24.4568 68.9225 24.343 68.7886 24.2266 68.6016L23.583 67.5742L22.5684 69.0898C22.5257 69.095 22.4855 69.0978 22.4482 69.0977C22.4109 69.1028 22.3733 69.1047 22.3359 69.1045C22.0321 69.1031 21.8085 69.0412 21.665 68.918C21.5216 68.7947 21.4504 68.6423 21.4512 68.4609C21.4519 68.3063 21.4843 68.1732 21.5488 68.0615C21.6187 67.9445 21.7155 67.8084 21.8389 67.6543L22.6836 66.5781L21.4189 64.7812C21.4459 64.7067 21.4839 64.632 21.5322 64.5576C21.5805 64.4832 21.6394 64.4167 21.709 64.3584C21.7839 64.2947 21.8697 64.2439 21.9658 64.207C22.0619 64.1649 22.1689 64.144 22.2861 64.1445ZM17.2461 64.1221C17.4007 64.1228 17.5364 64.1637 17.6533 64.2441C17.7703 64.3193 17.8899 64.4505 18.0117 64.6377L18.6318 65.5928L19.5576 64.2363C19.6003 64.2153 19.659 64.1973 19.7334 64.1816C19.8134 64.1607 19.8912 64.1501 19.9658 64.1504C20.2111 64.1515 20.4029 64.2112 20.541 64.3291C20.6791 64.447 20.7478 64.5911 20.7471 64.7617C20.7464 64.9109 20.7063 65.0442 20.626 65.1611C20.5508 65.2781 20.4456 65.4192 20.3115 65.584L19.4834 66.5879L20.7793 68.458C20.7358 68.6551 20.6415 68.812 20.4971 68.9287C20.3579 69.0401 20.1677 69.0958 19.9277 69.0947C19.7733 69.094 19.6399 69.0556 19.5283 68.9805C19.4168 68.9 19.3029 68.7661 19.1865 68.5791L18.543 67.5518L17.5283 69.0674C17.4856 69.0725 17.4455 69.0754 17.4082 69.0752C17.3709 69.0804 17.3332 69.0832 17.2959 69.083C16.9921 69.0816 16.7684 69.0188 16.625 68.8955C16.4816 68.7722 16.4103 68.6198 16.4111 68.4385C16.4118 68.2839 16.4443 68.1507 16.5088 68.0391C16.5786 67.9221 16.6755 67.7869 16.7988 67.6328L17.6436 66.5557L16.3789 64.7588C16.4059 64.6843 16.4439 64.6096 16.4922 64.5352C16.5405 64.4608 16.5994 64.3943 16.6689 64.3359C16.7439 64.2723 16.8296 64.2215 16.9258 64.1846C17.0219 64.1424 17.1288 64.1215 17.2461 64.1221ZM11.7861 64.0986C11.9406 64.0993 12.0765 64.1394 12.1934 64.2197C12.3103 64.2949 12.43 64.4263 12.5518 64.6133L13.1719 65.5684L14.0977 64.2129C14.1404 64.1917 14.1997 64.1729 14.2744 64.1572C14.3543 64.1363 14.4314 64.1257 14.5059 64.126C14.751 64.1271 14.9429 64.1869 15.0811 64.3047C15.2191 64.4225 15.2877 64.5668 15.2871 64.7373C15.2865 64.8866 15.2465 65.0207 15.166 65.1377C15.0908 65.2547 14.9855 65.3949 14.8516 65.5596L14.0234 66.5645L15.3193 68.4336C15.2758 68.6307 15.1815 68.7876 15.0371 68.9043C14.898 69.0156 14.7086 69.0713 14.4688 69.0703C14.3142 69.0696 14.181 69.0312 14.0693 68.9561C13.9577 68.8756 13.8431 68.7419 13.7266 68.5547L13.083 67.5283L12.0684 69.0439C12.0257 69.0491 11.9855 69.0509 11.9482 69.0508C11.9109 69.0559 11.8732 69.0588 11.8359 69.0586C11.5322 69.0572 11.3084 68.9943 11.165 68.8711C11.0218 68.7478 10.9504 68.5953 10.9512 68.4141C10.9519 68.2596 10.9844 68.1262 11.0488 68.0146C11.1187 67.8977 11.2156 67.7624 11.3389 67.6084L12.1836 66.5322L10.9199 64.7344C10.9469 64.6599 10.9839 64.5851 11.0322 64.5107C11.0805 64.4363 11.1394 64.3699 11.209 64.3115C11.2839 64.2479 11.3698 64.198 11.4658 64.1611C11.562 64.1189 11.6688 64.0981 11.7861 64.0986ZM6.74609 64.0762C6.90076 64.0769 7.03732 64.1167 7.1543 64.1973C7.27116 64.2724 7.39003 64.4039 7.51172 64.5908L8.13184 65.5459L9.05762 64.1904C9.10038 64.1693 9.15964 64.1504 9.23438 64.1348C9.31422 64.1139 9.39137 64.1032 9.46582 64.1035C9.71115 64.1046 9.90384 64.1643 10.042 64.2822C10.1799 64.4 10.2487 64.5445 10.248 64.7148C10.2474 64.8642 10.2065 64.9983 10.126 65.1152C10.0508 65.2322 9.94548 65.3725 9.81152 65.5371L8.9834 66.542L10.2793 68.4111C10.2358 68.6082 10.1415 68.7651 9.99707 68.8818C9.85795 68.9932 9.66863 69.0489 9.42871 69.0479C9.27406 69.0472 9.14096 69.0087 9.0293 68.9336C8.91765 68.8531 8.80303 68.7194 8.68652 68.5322L8.04297 67.5059L7.02832 69.0215C6.98577 69.0266 6.94543 69.0285 6.9082 69.0283C6.87107 69.0334 6.83398 69.0363 6.79688 69.0361C6.49288 69.0348 6.26846 68.9719 6.125 68.8486C5.98182 68.7254 5.91034 68.5728 5.91113 68.3916C5.91188 68.2371 5.94436 68.1038 6.00879 67.9922C6.07861 67.8752 6.17556 67.74 6.29883 67.5859L7.14355 66.5098L5.87988 64.7119C5.90686 64.6374 5.94391 64.5627 5.99219 64.4883C6.04052 64.4138 6.10033 64.3474 6.16992 64.2891C6.24468 64.2256 6.32993 64.1755 6.42578 64.1387C6.52189 64.0965 6.62888 64.0757 6.74609 64.0762ZM0.866211 64.0498C1.02088 64.0505 1.15743 64.0904 1.27441 64.1709C1.39128 64.246 1.51014 64.3776 1.63184 64.5645L2.25195 65.5195L3.17773 64.1641C3.22049 64.1429 3.27976 64.1241 3.35449 64.1084C3.43452 64.0875 3.5123 64.0768 3.58691 64.0771C3.83204 64.0783 4.02404 64.138 4.16211 64.2559C4.30019 64.3738 4.36891 64.5188 4.36816 64.6895C4.36744 64.8386 4.32654 64.972 4.24609 65.0889C4.17099 65.2057 4.06642 65.3463 3.93262 65.5107L3.10352 66.5156L4.39941 68.3848C4.35588 68.5819 4.2617 68.7398 4.11719 68.8564C3.97808 68.9676 3.78855 69.0225 3.54883 69.0215C3.39416 69.0208 3.26108 68.9824 3.14941 68.9072C3.0378 68.8267 2.92312 68.693 2.80664 68.5059L2.16309 67.4795L1.14844 68.9951C1.10591 69.0002 1.06553 69.0021 1.02832 69.002C0.991182 69.0071 0.954107 69.0099 0.916992 69.0098C0.612995 69.0084 0.388576 68.9465 0.245117 68.8232C0.101784 68.7 0.0305534 68.5474 0.03125 68.3662C0.0319305 68.2115 0.0644141 68.0775 0.128906 67.9658C0.198733 67.8489 0.295688 67.7136 0.418945 67.5596L1.26367 66.4834L0 64.6855C0.026986 64.6111 0.0640248 64.5363 0.112305 64.4619C0.160633 64.3875 0.220448 64.3211 0.290039 64.2627C0.364791 64.1993 0.450061 64.1491 0.545898 64.1123C0.641984 64.0701 0.749024 64.0493 0.866211 64.0498ZM22.3115 58.2363C22.4662 58.237 22.6027 58.2779 22.7197 58.3584C22.8366 58.4336 22.9555 58.565 23.0771 58.752L23.6973 59.707L24.623 58.3506C24.6658 58.3294 24.7251 58.3116 24.7998 58.2959C24.8799 58.2749 24.9576 58.2643 25.0322 58.2646C25.2773 58.2658 25.4694 58.3255 25.6074 58.4434C25.7453 58.5612 25.8142 58.7055 25.8135 58.876C25.8128 59.0252 25.7718 59.1585 25.6914 59.2754C25.6163 59.3923 25.5119 59.5336 25.3779 59.6982L24.5488 60.7021L25.8447 62.5723C25.8012 62.7694 25.707 62.9263 25.5625 63.043C25.4234 63.1543 25.234 63.21 24.9941 63.209C24.8395 63.2083 24.7064 63.1698 24.5947 63.0947C24.4831 63.0142 24.3685 62.8805 24.252 62.6934L23.6084 61.666L22.5938 63.1816C22.5512 63.1868 22.5109 63.1896 22.4736 63.1895C22.4365 63.1946 22.3994 63.1974 22.3623 63.1973C22.0583 63.1959 21.8339 63.1331 21.6904 63.0098C21.5472 62.8865 21.4758 62.7339 21.4766 62.5527C21.4773 62.3982 21.5098 62.265 21.5742 62.1533C21.644 62.0364 21.741 61.9011 21.8643 61.7471L22.709 60.6699L21.4453 58.873C21.4723 58.7986 21.5094 58.7238 21.5576 58.6494C21.6059 58.575 21.6658 58.5086 21.7354 58.4502C21.8102 58.3866 21.8952 58.3357 21.9912 58.2988C22.0873 58.2566 22.1943 58.2358 22.3115 58.2363ZM17.2725 58.2139C17.427 58.2146 17.5628 58.2555 17.6797 58.3359C17.7967 58.4111 17.9163 58.5423 18.0381 58.7295L18.6572 59.6846L19.584 58.3281C19.6267 58.3071 19.6854 58.289 19.7598 58.2734C19.8399 58.2525 19.9175 58.2419 19.9922 58.2422C20.2374 58.2433 20.4293 58.303 20.5674 58.4209C20.7054 58.5388 20.7741 58.683 20.7734 58.8535C20.7728 59.0028 20.7318 59.136 20.6514 59.2529C20.5762 59.3699 20.4719 59.5111 20.3379 59.6758L19.5088 60.6807L20.8047 62.5498C20.7612 62.7469 20.667 62.9038 20.5225 63.0205C20.3833 63.1318 20.194 63.1876 19.9541 63.1865C19.7995 63.1858 19.6663 63.1474 19.5547 63.0723C19.4431 62.9918 19.3293 62.8579 19.2129 62.6709L18.5693 61.6445L17.5547 63.1592C17.5121 63.1643 17.4718 63.1671 17.4346 63.167C17.3972 63.1722 17.3596 63.175 17.3223 63.1748C17.0183 63.1735 16.7948 63.1106 16.6514 62.9873C16.5079 62.864 16.4367 62.7116 16.4375 62.5303C16.4382 62.3757 16.4707 62.2425 16.5352 62.1309C16.6049 62.014 16.7011 61.8785 16.8242 61.7246L17.6689 60.6484L16.4053 58.8506C16.4323 58.776 16.4702 58.7014 16.5186 58.627C16.5669 58.5526 16.6258 58.4861 16.6953 58.4277C16.7702 58.3641 16.856 58.3133 16.9521 58.2764C17.0482 58.2343 17.1553 58.2133 17.2725 58.2139ZM11.8125 58.1904C11.967 58.1912 12.1028 58.2311 12.2197 58.3115C12.3367 58.3867 12.4563 58.518 12.5781 58.7051L13.1982 59.6602L14.124 58.3047C14.1667 58.2836 14.2252 58.2647 14.2998 58.249C14.3799 58.228 14.4576 58.2174 14.5322 58.2178C14.7775 58.2189 14.9693 58.2786 15.1074 58.3965C15.2454 58.5143 15.3141 58.6586 15.3135 58.8291C15.3128 58.9784 15.2719 59.1125 15.1914 59.2295C15.1163 59.3464 15.0117 59.4869 14.8779 59.6514L14.0498 60.6562L15.3447 62.5254C15.3012 62.7223 15.2078 62.8794 15.0635 62.9961C14.9243 63.1075 14.7341 63.1632 14.4941 63.1621C14.3396 63.1614 14.2063 63.123 14.0947 63.0479C13.9832 62.9673 13.8694 62.8335 13.7529 62.6465L13.1094 61.6201L12.0947 63.1357C12.0521 63.1409 12.0119 63.1427 11.9746 63.1426C11.9373 63.1477 11.8996 63.1506 11.8623 63.1504C11.5584 63.149 11.3349 63.0862 11.1914 62.9629C11.048 62.8396 10.9767 62.6872 10.9775 62.5059C10.9783 62.3514 11.0108 62.218 11.0752 62.1064C11.145 61.9895 11.242 61.8542 11.3652 61.7002L12.21 60.624L10.9453 58.8262C10.9723 58.7516 11.0103 58.677 11.0586 58.6025C11.1069 58.5282 11.1658 58.4616 11.2354 58.4033C11.3103 58.3397 11.3961 58.2898 11.4922 58.2529C11.5884 58.2107 11.6952 58.1899 11.8125 58.1904ZM6.77246 58.168C6.92698 58.1687 7.06278 58.2087 7.17969 58.2891C7.29664 58.3642 7.4163 58.4955 7.53809 58.6826L8.1582 59.6377L9.08398 58.2822C9.12668 58.2611 9.1852 58.2422 9.25977 58.2266C9.33983 58.2056 9.41755 58.195 9.49219 58.1953C9.73743 58.1964 9.92924 58.2562 10.0674 58.374C10.2054 58.4919 10.2741 58.6362 10.2734 58.8066C10.2728 58.956 10.2319 59.0901 10.1514 59.207C10.0762 59.3239 9.9717 59.4645 9.83789 59.6289L9.00977 60.6338L10.3057 62.5029C10.2622 62.6999 10.1678 62.857 10.0234 62.9736C9.88428 63.085 9.6941 63.1407 9.4541 63.1396C9.29962 63.1389 9.16626 63.1005 9.05469 63.0254C8.94316 62.9449 8.82927 62.811 8.71289 62.624L8.06934 61.5977L7.05469 63.1133C7.012 63.1184 6.9719 63.1203 6.93457 63.1201C6.89721 63.1253 6.8596 63.1281 6.82227 63.1279C6.51841 63.1265 6.29478 63.0637 6.15137 62.9404C6.00804 62.8172 5.9367 62.6646 5.9375 62.4834C5.93825 62.3289 5.97073 62.1956 6.03516 62.084C6.10499 61.967 6.20194 61.8317 6.3252 61.6777L7.16992 60.6016L5.90527 58.8037C5.93227 58.7292 5.97023 58.6545 6.01855 58.5801C6.06687 58.5057 6.12575 58.4392 6.19531 58.3809C6.27024 58.3172 6.35601 58.2674 6.45215 58.2305C6.54834 58.1882 6.65513 58.1674 6.77246 58.168ZM0.892578 58.1416C1.04721 58.1423 1.18284 58.1832 1.2998 58.2637C1.41681 58.3389 1.53636 58.47 1.6582 58.6572L2.27832 59.6123L3.2041 58.2559C3.24676 58.2348 3.30542 58.2168 3.37988 58.2012C3.45991 58.1802 3.53769 58.1696 3.6123 58.1699C3.85764 58.171 4.04935 58.2307 4.1875 58.3486C4.32562 58.4666 4.39431 58.6106 4.39355 58.7812C4.39289 58.9305 4.35288 59.0637 4.27246 59.1807C4.19728 59.2977 4.09207 59.4388 3.95801 59.6035L3.12988 60.6074L4.42578 62.4775C4.38224 62.6746 4.28804 62.8316 4.14355 62.9482C4.00449 63.0596 3.81498 63.1143 3.5752 63.1133C3.42053 63.1126 3.28648 63.0752 3.1748 63C3.06327 62.9195 2.9494 62.7856 2.83301 62.5986L2.18945 61.5713L1.1748 63.0869C1.13212 63.0921 1.09202 63.0949 1.05469 63.0947C1.01738 63.0999 0.979668 63.1017 0.942383 63.1016C0.638579 63.1002 0.414884 63.0383 0.271484 62.915C0.128035 62.7917 0.0568226 62.6393 0.0576172 62.458C0.0582973 62.3034 0.090841 62.1703 0.155273 62.0586C0.225122 61.9416 0.321967 61.8055 0.445312 61.6514L1.29004 60.5752L0.0253906 58.7773C0.0523417 58.703 0.0905014 58.6289 0.138672 58.5547C0.18693 58.4803 0.245971 58.4138 0.31543 58.3555C0.390377 58.2918 0.476102 58.241 0.572266 58.2041C0.668446 58.1619 0.775255 58.1411 0.892578 58.1416ZM22.3379 52.3291C22.4924 52.3298 22.6282 52.3698 22.7451 52.4502C22.8621 52.5253 22.9817 52.6567 23.1035 52.8438L23.7236 53.7988L24.6494 52.4434C24.6921 52.4223 24.7507 52.4033 24.8252 52.3877C24.9052 52.3667 24.983 52.3561 25.0576 52.3564C25.3028 52.3575 25.4947 52.4173 25.6328 52.5352C25.771 52.6531 25.8396 52.7981 25.8389 52.9688C25.8381 53.1179 25.7982 53.2513 25.7178 53.3682C25.6426 53.4851 25.5373 53.6254 25.4033 53.79L24.5752 54.7949L25.8711 56.6641C25.8276 56.8611 25.7332 57.0181 25.5889 57.1348C25.4498 57.2461 25.2603 57.3018 25.0205 57.3008C24.8658 57.3001 24.7318 57.2617 24.6201 57.1865C24.5086 57.106 24.3947 56.9721 24.2783 56.7852L23.6348 55.7588L22.6201 57.2744C22.5774 57.2796 22.5373 57.2814 22.5 57.2812C22.4627 57.2864 22.425 57.2892 22.3877 57.2891C22.0839 57.2877 21.8602 57.2248 21.7168 57.1016C21.5736 56.9784 21.5022 56.8265 21.5029 56.6455C21.5036 56.4908 21.5361 56.3568 21.6006 56.2451C21.6704 56.1282 21.7674 55.9929 21.8906 55.8389L22.7354 54.7627L21.4707 52.9648C21.4977 52.8903 21.5357 52.8157 21.584 52.7412C21.6323 52.6668 21.6912 52.6003 21.7607 52.542C21.8357 52.4783 21.9215 52.4285 22.0176 52.3916C22.1138 52.3494 22.2206 52.3286 22.3379 52.3291ZM17.2979 52.3066C17.4523 52.3073 17.5882 52.3474 17.7051 52.4277C17.822 52.5029 17.9417 52.6343 18.0635 52.8213L18.6836 53.7764L19.6094 52.4209C19.6521 52.3998 19.7114 52.3809 19.7861 52.3652C19.866 52.3443 19.9431 52.3337 20.0176 52.334C20.2627 52.3351 20.4547 52.395 20.5928 52.5127C20.7309 52.6306 20.7996 52.7756 20.7988 52.9463C20.7981 53.0954 20.7582 53.2288 20.6777 53.3457C20.6026 53.4627 20.4973 53.6029 20.3633 53.7676L19.5352 54.7725L20.8311 56.6416C20.7875 56.8387 20.6933 56.9956 20.5488 57.1123C20.4097 57.2236 20.2203 57.2793 19.9805 57.2783C19.8258 57.2776 19.6927 57.2392 19.5811 57.1641C19.4694 57.0836 19.3548 56.9499 19.2383 56.7627L18.5947 55.7363L17.5801 57.252C17.5375 57.2571 17.4972 57.259 17.46 57.2588C17.4228 57.2639 17.3857 57.2667 17.3486 57.2666C17.0446 57.2653 16.8202 57.2024 16.6768 57.0791C16.5337 56.956 16.4622 56.804 16.4629 56.623C16.4636 56.4684 16.4961 56.3344 16.5605 56.2227C16.6304 56.1057 16.7273 55.9704 16.8506 55.8164L17.6953 54.7402L16.4316 52.9424C16.4586 52.8679 16.4957 52.7931 16.5439 52.7188C16.5922 52.6444 16.6512 52.5779 16.7207 52.5195C16.7956 52.4559 16.8815 52.406 16.9775 52.3691C17.0737 52.3269 17.1806 52.3061 17.2979 52.3066ZM11.8379 52.2822C11.9926 52.2829 12.1291 52.3238 12.2461 52.4043C12.3629 52.4795 12.4818 52.6109 12.6035 52.7979L13.2236 53.752L14.1494 52.3965C14.1922 52.3753 14.2514 52.3565 14.3262 52.3408C14.4062 52.3199 14.484 52.3102 14.5586 52.3105C14.8037 52.3117 14.9957 52.3704 15.1338 52.4883C15.2719 52.6062 15.3406 52.7512 15.3398 52.9219C15.3391 53.0711 15.2982 53.2044 15.2178 53.3213C15.1426 53.4383 15.0383 53.5795 14.9043 53.7441L14.0752 54.748L15.3711 56.6182C15.3275 56.8151 15.2333 56.9723 15.0889 57.0889C14.9498 57.2001 14.7603 57.2549 14.5205 57.2539C14.366 57.2532 14.2327 57.2156 14.1211 57.1406C14.0094 57.0601 13.8948 56.9255 13.7783 56.7383L13.1348 55.7119L12.1201 57.2275C12.0776 57.2327 12.0372 57.2345 12 57.2344C11.9629 57.2395 11.9258 57.2423 11.8887 57.2422C11.5847 57.2408 11.3603 57.179 11.2168 57.0557C11.0735 56.9324 11.0022 56.7798 11.0029 56.5986C11.0036 56.4442 11.0363 56.3108 11.1006 56.1992C11.1704 56.0822 11.2673 55.9461 11.3906 55.792L12.2354 54.7158L10.9717 52.918C10.9987 52.8435 11.0357 52.7687 11.084 52.6943C11.1323 52.6199 11.1921 52.5535 11.2617 52.4951C11.3365 52.4317 11.4217 52.3815 11.5176 52.3447C11.6137 52.3025 11.7207 52.2817 11.8379 52.2822ZM6.79883 52.2598C6.95331 52.2605 7.08919 52.3014 7.20605 52.3818C7.32295 52.4571 7.44273 52.5884 7.56445 52.7754L8.18359 53.7295L9.11035 52.374C9.15309 52.3529 9.21157 52.334 9.28613 52.3184C9.3662 52.2974 9.44391 52.2878 9.51855 52.2881C9.76372 52.2892 9.95566 52.3479 10.0938 52.4658C10.2319 52.5838 10.3006 52.7287 10.2998 52.8994C10.2991 53.0486 10.2582 53.1819 10.1777 53.2988C10.1026 53.4158 9.99824 53.557 9.86426 53.7217L9.03516 54.7256L10.3311 56.5957C10.2875 56.7926 10.1932 56.9498 10.0488 57.0664C9.90971 57.1776 9.72022 57.2325 9.48047 57.2314C9.32592 57.2307 9.19267 57.1932 9.08105 57.1182C8.96941 57.0377 8.85577 56.903 8.73926 56.7158L8.0957 55.6895L7.08105 57.2051C7.0385 57.2102 6.99817 57.2121 6.96094 57.2119C6.92361 57.2171 6.88594 57.2199 6.84863 57.2197C6.5449 57.2184 6.32121 57.1563 6.17773 57.0332C6.03434 56.91 5.96216 56.7574 5.96289 56.5762C5.96357 56.4216 5.99709 56.2884 6.06152 56.1768C6.13136 56.0598 6.22728 55.9236 6.35059 55.7695L7.19531 54.6934L5.93164 52.8955C5.95863 52.821 5.99664 52.7463 6.04492 52.6719C6.0932 52.5976 6.15222 52.5309 6.22168 52.4727C6.29655 52.4091 6.38249 52.3591 6.47852 52.3223C6.57462 52.2801 6.68162 52.2592 6.79883 52.2598ZM22.3643 46.4209C22.5187 46.4217 22.6546 46.4616 22.7715 46.542C22.8885 46.6172 23.0081 46.7484 23.1299 46.9355L23.749 47.8906L24.6758 46.5352C24.7185 46.5141 24.777 46.4951 24.8516 46.4795C24.9317 46.4585 25.0093 46.4479 25.084 46.4482C25.3292 46.4494 25.5211 46.509 25.6592 46.627C25.7973 46.7449 25.866 46.8899 25.8652 47.0605C25.8645 47.2097 25.8236 47.3431 25.7432 47.46C25.668 47.5768 25.5635 47.7174 25.4297 47.8818L24.6006 48.8867L25.8965 50.7559C25.853 50.9528 25.7595 51.1099 25.6152 51.2266C25.4761 51.3379 25.2859 51.3936 25.0459 51.3926C24.8913 51.3919 24.7581 51.3535 24.6465 51.2783C24.5349 51.1978 24.4211 51.064 24.3047 50.877L23.6611 49.8506L22.6465 51.3662C22.6039 51.3713 22.5636 51.3732 22.5264 51.373C22.489 51.3782 22.4514 51.381 22.4141 51.3809C22.1101 51.3795 21.8866 51.3167 21.7432 51.1934C21.5999 51.0702 21.5286 50.9184 21.5293 50.7373C21.53 50.5826 21.5625 50.4486 21.627 50.3369C21.6967 50.2201 21.7929 50.0845 21.916 49.9307L22.7607 48.8545L21.4971 47.0566C21.5241 46.9821 21.562 46.9074 21.6104 46.833C21.6586 46.7587 21.7176 46.6921 21.7871 46.6338C21.862 46.5702 21.9479 46.5203 22.0439 46.4834C22.1401 46.4412 22.247 46.4204 22.3643 46.4209ZM22.3896 40.5127C22.5443 40.5134 22.6799 40.5543 22.7969 40.6348C22.9139 40.71 23.0334 40.8411 23.1553 41.0283L23.7754 41.9824L24.7012 40.627C24.7439 40.6058 24.8032 40.587 24.8779 40.5713C24.9578 40.5504 25.0349 40.5407 25.1094 40.541C25.3547 40.5421 25.5464 40.6018 25.6846 40.7197C25.8227 40.8377 25.8914 40.9817 25.8906 41.1523C25.8899 41.3016 25.85 41.4348 25.7695 41.5518C25.6943 41.6688 25.5891 41.8099 25.4551 41.9746L24.627 42.9785L25.9229 44.8486C25.8793 45.0456 25.7851 45.2027 25.6406 45.3193C25.5015 45.4306 25.312 45.4854 25.0723 45.4844C24.9178 45.4837 24.7844 45.4461 24.6729 45.3711C24.5613 45.2906 24.4465 45.1568 24.3301 44.9697L23.6865 43.9424L22.6719 45.458C22.6293 45.4631 22.589 45.466 22.5518 45.4658C22.5147 45.4709 22.4775 45.4728 22.4404 45.4727C22.1364 45.4713 21.912 45.4094 21.7686 45.2861C21.6252 45.1629 21.5539 45.0103 21.5547 44.8291C21.5554 44.6746 21.588 44.5413 21.6523 44.4297C21.7222 44.3127 21.819 44.1766 21.9424 44.0225L22.7871 42.9463L21.5234 41.1484C21.5504 41.074 21.5875 40.9991 21.6357 40.9248C21.684 40.8504 21.743 40.7839 21.8125 40.7256C21.8874 40.662 21.9733 40.6121 22.0693 40.5752C22.1655 40.533 22.2724 40.5122 22.3896 40.5127ZM22.416 34.6045C22.5706 34.6052 22.7063 34.6461 22.8232 34.7266C22.9402 34.8018 23.0598 34.933 23.1816 35.1201L23.8018 36.0742L24.7275 34.7188C24.7703 34.6976 24.8287 34.6787 24.9033 34.6631C24.9834 34.6421 25.0611 34.6325 25.1357 34.6328C25.3811 34.6339 25.5728 34.6936 25.7109 34.8115C25.8489 34.9294 25.9177 35.0736 25.917 35.2441C25.9163 35.3934 25.8754 35.5266 25.7949 35.6436C25.7198 35.7605 25.6154 35.9018 25.4814 36.0664L24.6533 37.0703L25.9492 38.9404C25.9057 39.1375 25.8114 39.2945 25.667 39.4111C25.5278 39.5225 25.3377 39.5772 25.0977 39.5762C24.9431 39.5754 24.8098 39.538 24.6982 39.4629C24.5867 39.3825 24.4729 39.2485 24.3564 39.0615L23.7129 38.0342L22.6982 39.5498C22.6556 39.5549 22.6154 39.5578 22.5781 39.5576C22.5408 39.5628 22.5032 39.5646 22.4658 39.5645C22.162 39.5631 21.9384 39.5011 21.7949 39.3779C21.6515 39.2547 21.5803 39.1022 21.5811 38.9209C21.5817 38.7663 21.6143 38.6332 21.6787 38.5215C21.7486 38.4045 21.8454 38.2684 21.9688 38.1143L22.8135 37.0381L21.5488 35.2402C21.5758 35.1658 21.6138 35.091 21.6621 35.0166C21.7104 34.9423 21.7694 34.8756 21.8389 34.8174C21.9138 34.7538 21.9996 34.7039 22.0957 34.667C22.1919 34.6248 22.2987 34.604 22.416 34.6045ZM44.7012 28.7949C44.8558 28.7956 44.9915 28.8366 45.1084 28.917C45.2254 28.9922 45.345 29.1234 45.4668 29.3105L46.0869 30.2656L47.0127 28.9092C47.0554 28.8881 47.114 28.8701 47.1885 28.8545C47.2685 28.8335 47.3463 28.8229 47.4209 28.8232C47.6662 28.8243 47.8579 28.884 47.9961 29.002C48.1342 29.1199 48.2028 29.264 48.2021 29.4346C48.2015 29.5837 48.1614 29.7171 48.0811 29.834C48.0059 29.951 47.9007 30.0921 47.7666 30.2568L46.9385 31.2607L48.2344 33.1309C48.1909 33.3279 48.0966 33.4849 47.9521 33.6016C47.813 33.7129 47.6228 33.7686 47.3828 33.7676C47.2283 33.7668 47.095 33.7284 46.9834 33.6533C46.8719 33.5728 46.758 33.4389 46.6416 33.252L45.998 32.2246L44.9834 33.7402C44.9407 33.7454 44.9006 33.7482 44.8633 33.748C44.8259 33.7532 44.7883 33.756 44.751 33.7559C44.4471 33.7545 44.2235 33.6916 44.0801 33.5684C43.9367 33.4451 43.8654 33.2926 43.8662 33.1113C43.8669 32.9568 43.8994 32.8236 43.9639 32.7119C44.0337 32.5949 44.1306 32.4597 44.2539 32.3057L45.0986 31.2295L43.834 29.4316C43.861 29.3571 43.899 29.2824 43.9473 29.208C43.9956 29.1336 44.0545 29.0671 44.124 29.0088C44.199 28.9451 44.2847 28.8943 44.3809 28.8574C44.477 28.8152 44.5839 28.7944 44.7012 28.7949ZM22.4414 28.6963C22.5961 28.697 22.7326 28.7378 22.8496 28.8184C22.9665 28.8936 23.0863 29.0249 23.208 29.2119L23.8271 30.166L24.7529 28.8105C24.7957 28.7894 24.855 28.7706 24.9297 28.7549C25.0097 28.7339 25.0875 28.7243 25.1621 28.7246C25.4073 28.7258 25.5992 28.7854 25.7373 28.9033C25.8752 29.0212 25.9441 29.1654 25.9434 29.3359C25.9427 29.4852 25.9018 29.6184 25.8213 29.7354C25.7461 29.8523 25.6419 29.9935 25.5078 30.1582L24.6787 31.1621L25.9746 33.0322C25.9311 33.2293 25.8368 33.3863 25.6924 33.5029C25.5533 33.6142 25.3639 33.669 25.124 33.668C24.9694 33.6673 24.8362 33.6298 24.7246 33.5547C24.613 33.4742 24.4983 33.3405 24.3818 33.1533L23.7393 32.126L22.7236 33.6416C22.6813 33.6467 22.6416 33.6496 22.6045 33.6494C22.5672 33.6546 22.5295 33.6564 22.4922 33.6562C22.1884 33.6549 21.9648 33.5929 21.8213 33.4697C21.6778 33.3464 21.6057 33.194 21.6064 33.0127C21.6071 32.858 21.6406 32.725 21.7051 32.6133C21.7749 32.4963 21.8708 32.3601 21.9941 32.2061L22.8389 31.1299L21.5752 29.332C21.6022 29.2577 21.6403 29.1837 21.6885 29.1094C21.7368 29.0349 21.7956 28.9685 21.8652 28.9102C21.9401 28.8466 22.0251 28.7957 22.1211 28.7588C22.2172 28.7166 22.3242 28.6958 22.4414 28.6963ZM49.7666 22.9092C49.9213 22.9099 50.0578 22.9507 50.1748 23.0312C50.2918 23.1065 50.4114 23.2377 50.5332 23.4248L51.1523 24.3799L52.0781 23.0234C52.1209 23.0023 52.1801 22.9844 52.2549 22.9688C52.3349 22.9478 52.4127 22.9372 52.4873 22.9375C52.7324 22.9387 52.9244 22.9983 53.0625 23.1162C53.2004 23.234 53.2692 23.3784 53.2686 23.5488C53.2679 23.698 53.2269 23.8313 53.1465 23.9482C53.0713 24.0652 52.967 24.2065 52.833 24.3711L52.0039 25.376L53.2998 27.2451C53.2563 27.4423 53.1621 27.5991 53.0176 27.7158C52.8784 27.8272 52.6892 27.8829 52.4492 27.8818C52.2946 27.8811 52.1615 27.8427 52.0498 27.7676C51.9382 27.6871 51.8235 27.5534 51.707 27.3662L51.0635 26.3398L50.0488 27.8545C50.0063 27.8596 49.9659 27.8625 49.9287 27.8623C49.8916 27.8674 49.8545 27.8703 49.8174 27.8701C49.5134 27.8688 49.289 27.8059 49.1455 27.6826C49.0023 27.5594 48.9308 27.4067 48.9316 27.2256C48.9324 27.0711 48.9649 26.9378 49.0293 26.8262C49.0991 26.7092 49.1961 26.5739 49.3193 26.4199L50.1641 25.3438L48.9004 23.5459C48.9274 23.4714 48.9644 23.3966 49.0127 23.3223C49.061 23.2478 49.1208 23.1814 49.1904 23.123C49.2652 23.0596 49.3504 23.0095 49.4463 22.9727C49.5424 22.9305 49.6494 22.9087 49.7666 22.9092ZM22.4678 22.7881C22.6224 22.7888 22.7581 22.8297 22.875 22.9102C22.992 22.9853 23.1116 23.1165 23.2334 23.3037L23.8535 24.2588L24.7793 22.9023C24.8221 22.8812 24.8813 22.8633 24.9561 22.8477C25.0359 22.8268 25.113 22.8161 25.1875 22.8164C25.4328 22.8175 25.6245 22.8772 25.7627 22.9951C25.9008 23.1131 25.9695 23.2571 25.9688 23.4277C25.9681 23.577 25.9281 23.7102 25.8477 23.8271C25.7725 23.9441 25.6673 24.0853 25.5332 24.25L24.7051 25.2539L26.001 27.124C25.9574 27.3212 25.8633 27.478 25.7188 27.5947C25.5797 27.7061 25.3902 27.7608 25.1504 27.7598C24.9959 27.7591 24.8626 27.7215 24.751 27.6465C24.6394 27.566 24.5247 27.4322 24.4082 27.2451L23.7646 26.2178L22.75 27.7334C22.7073 27.7385 22.6672 27.7414 22.6299 27.7412C22.5926 27.7464 22.5548 27.7482 22.5176 27.748C22.2138 27.7466 21.9901 27.6848 21.8467 27.5615C21.7033 27.4382 21.632 27.2858 21.6328 27.1045C21.6335 26.9499 21.666 26.8167 21.7305 26.7051C21.8003 26.5881 21.8972 26.452 22.0205 26.2979L22.8652 25.2217L21.6006 23.4248C21.6275 23.3503 21.6656 23.2755 21.7139 23.2012C21.7621 23.1268 21.8212 23.0602 21.8906 23.002C21.9656 22.9383 22.0513 22.8875 22.1475 22.8506C22.2436 22.8084 22.3505 22.7876 22.4678 22.7881ZM49.793 17.002C49.9475 17.0026 50.0833 17.0427 50.2002 17.123C50.3171 17.1982 50.4368 17.3295 50.5586 17.5166L51.1787 18.4717L52.1045 17.1162C52.1472 17.0951 52.2058 17.0762 52.2803 17.0605C52.3603 17.0396 52.4381 17.029 52.5127 17.0293C52.7579 17.0304 52.9498 17.0902 53.0879 17.208C53.2259 17.3258 53.2946 17.4702 53.2939 17.6406C53.2933 17.79 53.2534 17.924 53.1729 18.041C53.0977 18.158 52.9924 18.2983 52.8584 18.4629L52.0303 19.4678L53.3262 21.3369C53.2827 21.5339 53.1883 21.6909 53.0439 21.8076C52.9049 21.9189 52.7154 21.9746 52.4756 21.9736C52.3209 21.9729 52.1869 21.9345 52.0752 21.8594C51.9637 21.7788 51.8498 21.6449 51.7334 21.458L51.0898 20.4316L50.0752 21.9473C50.0325 21.9524 49.9924 21.9543 49.9551 21.9541C49.9178 21.9593 49.8801 21.9621 49.8428 21.9619C49.539 21.9605 49.3153 21.8977 49.1719 21.7744C49.0286 21.6511 48.9572 21.4986 48.958 21.3174C48.9588 21.1629 48.9912 21.0296 49.0557 20.918C49.1255 20.801 49.2224 20.6657 49.3457 20.5117L50.1904 19.4355L48.9258 17.6377C48.9528 17.5631 48.9907 17.4885 49.0391 17.4141C49.0874 17.3397 49.1463 17.2732 49.2158 17.2148C49.2907 17.1512 49.3766 17.1014 49.4727 17.0645C49.5688 17.0222 49.6756 17.0014 49.793 17.002ZM43.9131 16.9756C44.0677 16.9763 44.2033 17.0171 44.3203 17.0977C44.4373 17.1728 44.5569 17.304 44.6787 17.4912L45.2988 18.4453L46.2246 17.0898C46.2674 17.0687 46.3266 17.0498 46.4014 17.0342C46.4812 17.0133 46.5584 17.0036 46.6328 17.0039C46.8779 17.005 47.0699 17.0639 47.208 17.1816C47.3462 17.2996 47.4148 17.4446 47.4141 17.6152C47.4134 17.7645 47.3734 17.8977 47.293 18.0146C47.2178 18.1316 47.1126 18.2728 46.9785 18.4375L46.1504 19.4414L47.4463 21.3115C47.4027 21.5085 47.3085 21.6656 47.1641 21.7822C47.025 21.8935 46.8354 21.9483 46.5957 21.9473C46.4413 21.9466 46.3079 21.9089 46.1963 21.834C46.0846 21.7535 45.97 21.6188 45.8535 21.4316L45.21 20.4053L44.1953 21.9209C44.1527 21.926 44.1125 21.9279 44.0752 21.9277C44.0379 21.9329 44.0002 21.9357 43.9629 21.9355C43.6592 21.9341 43.4354 21.8722 43.292 21.749C43.1486 21.6258 43.0774 21.4732 43.0781 21.292C43.0788 21.1375 43.1114 21.0042 43.1758 20.8926C43.2456 20.7756 43.3425 20.6395 43.4658 20.4854L44.3105 19.4092L43.0459 17.6113C43.0729 17.5368 43.1109 17.4621 43.1592 17.3877C43.2075 17.3133 43.2664 17.2468 43.3359 17.1885C43.4108 17.1248 43.4967 17.075 43.5928 17.0381C43.6889 16.9959 43.7958 16.9751 43.9131 16.9756ZM22.4941 16.8799C22.6487 16.8806 22.7845 16.9215 22.9014 17.002C23.0184 17.0771 23.1379 17.2083 23.2598 17.3955L23.8789 18.3506L24.8057 16.9941C24.8484 16.9731 24.907 16.9551 24.9814 16.9395C25.0615 16.9185 25.1392 16.9079 25.2139 16.9082C25.4591 16.9093 25.6509 16.969 25.7891 17.0869C25.9271 17.2048 25.9958 17.349 25.9951 17.5195C25.9945 17.6688 25.9535 17.802 25.873 17.9189C25.7979 18.0359 25.6936 18.1771 25.5596 18.3418L24.7314 19.3457L26.0264 21.2158C25.9829 21.4128 25.8895 21.5699 25.7451 21.6865C25.606 21.7979 25.4158 21.8536 25.1758 21.8525C25.0212 21.8518 24.888 21.8134 24.7764 21.7383C24.6648 21.6578 24.551 21.5239 24.4346 21.3369L23.791 20.3096L22.7764 21.8252C22.7338 21.8303 22.6935 21.8332 22.6562 21.833C22.6189 21.8382 22.5813 21.841 22.5439 21.8408C22.24 21.8395 22.0165 21.7766 21.873 21.6533C21.7296 21.53 21.6584 21.3776 21.6592 21.1963C21.6599 21.0417 21.6924 20.9085 21.7568 20.7969C21.8267 20.6799 21.9236 20.5447 22.0469 20.3906L22.8916 19.3135L21.627 17.5166C21.6539 17.4421 21.6919 17.3674 21.7402 17.293C21.7886 17.2185 21.8474 17.1521 21.917 17.0938C21.9919 17.0301 22.0777 16.9793 22.1738 16.9424C22.2699 16.9002 22.377 16.8794 22.4941 16.8799ZM43.9355 11.9111C44.0901 11.9118 44.2258 11.9527 44.3428 12.0332C44.4598 12.1084 44.5793 12.2395 44.7012 12.4268L45.3213 13.3818L46.2471 12.0254C46.2897 12.0043 46.3484 11.9863 46.4229 11.9707C46.5029 11.9497 46.5806 11.9391 46.6553 11.9395C46.9006 11.9405 47.0923 12.0002 47.2305 12.1182C47.3686 12.2361 47.4372 12.3802 47.4365 12.5508C47.4359 12.7001 47.395 12.8332 47.3145 12.9502C47.2393 13.0672 47.135 13.2084 47.001 13.373L46.1729 14.377L47.4688 16.2471C47.4252 16.4442 47.331 16.6011 47.1865 16.7178C47.0474 16.8292 46.8572 16.8839 46.6172 16.8828C46.4627 16.8821 46.3293 16.8446 46.2178 16.7695C46.1062 16.689 45.9924 16.5551 45.876 16.3682L45.2324 15.3408L44.2178 16.8564C44.1751 16.8616 44.135 16.8644 44.0977 16.8643C44.0603 16.8694 44.0227 16.8722 43.9854 16.8721C43.6815 16.8707 43.4579 16.8078 43.3145 16.6846C43.171 16.5613 43.0998 16.4089 43.1006 16.2275C43.1013 16.0729 43.1338 15.9398 43.1982 15.8281C43.2681 15.7111 43.3649 15.575 43.4883 15.4209L44.333 14.3447L43.0684 12.5479C43.0953 12.4734 43.1334 12.3986 43.1816 12.3242C43.2299 12.2498 43.2889 12.1833 43.3584 12.125C43.4333 12.0613 43.5191 12.0105 43.6152 11.9736C43.7114 11.9314 43.8183 11.9106 43.9355 11.9111ZM38.8955 11.8887C39.0501 11.8894 39.1858 11.9303 39.3027 12.0107C39.4197 12.0859 39.5393 12.2171 39.6611 12.4043L40.2812 13.3594L41.207 12.0029C41.2498 11.9818 41.3091 11.9639 41.3838 11.9482C41.4637 11.9273 41.5407 11.9167 41.6152 11.917C41.8605 11.9181 42.0523 11.9778 42.1904 12.0957C42.3286 12.2136 42.3972 12.3577 42.3965 12.5283C42.3958 12.6775 42.3558 12.8108 42.2754 12.9277C42.2002 13.0447 42.095 13.1858 41.9609 13.3506L41.1328 14.3545L42.4287 16.2246C42.3852 16.4217 42.291 16.5786 42.1465 16.6953C42.0074 16.8066 41.8179 16.8614 41.5781 16.8604C41.4236 16.8597 41.2903 16.8221 41.1787 16.7471C41.0671 16.6666 40.9524 16.5328 40.8359 16.3457L40.1924 15.3184L39.1777 16.834C39.1351 16.8391 39.0949 16.842 39.0576 16.8418C39.0203 16.8469 38.9826 16.8498 38.9453 16.8496C38.6415 16.8482 38.4178 16.7854 38.2744 16.6621C38.131 16.5388 38.0597 16.3864 38.0605 16.2051C38.0612 16.0505 38.0938 15.9173 38.1582 15.8057C38.2281 15.6886 38.3249 15.5526 38.4482 15.3984L39.293 14.3223L38.0283 12.5254C38.0553 12.4509 38.0934 12.3761 38.1416 12.3018C38.1899 12.2274 38.2489 12.1608 38.3184 12.1025C38.3933 12.0389 38.479 11.9881 38.5752 11.9512C38.6714 11.9089 38.7782 11.8882 38.8955 11.8887ZM22.5166 11.8164C22.6711 11.8172 22.807 11.858 22.9238 11.9385C23.0407 12.0137 23.1605 12.145 23.2822 12.332L23.9014 13.2861L24.8281 11.9307C24.8709 11.9096 24.9293 11.8906 25.0039 11.875C25.084 11.854 25.1617 11.8444 25.2363 11.8447C25.4815 11.8459 25.6734 11.9046 25.8115 12.0225C25.9497 12.1404 26.0183 12.2854 26.0176 12.4561C26.0169 12.6053 25.976 12.7386 25.8955 12.8555C25.8204 12.9723 25.7158 13.1129 25.582 13.2773L24.7529 14.2822L26.0488 16.1523C26.0052 16.3493 25.911 16.5064 25.7666 16.623C25.6275 16.7342 25.438 16.7892 25.1982 16.7881C25.0437 16.7874 24.9104 16.7499 24.7988 16.6748C24.6872 16.5943 24.5726 16.4596 24.4561 16.2725L23.8135 15.2461L22.7988 16.7617C22.7563 16.7668 22.7159 16.7687 22.6787 16.7686C22.6414 16.7737 22.6037 16.7765 22.5664 16.7764C22.2627 16.775 22.039 16.7129 21.8955 16.5898C21.7521 16.4666 21.6799 16.314 21.6807 16.1328C21.6813 15.9782 21.7149 15.8451 21.7793 15.7334C21.8491 15.6164 21.9451 15.4802 22.0684 15.3262L22.9131 14.25L21.6494 12.4521C21.6764 12.3777 21.7144 12.3029 21.7627 12.2285C21.811 12.1542 21.87 12.0875 21.9395 12.0293C22.0143 11.9658 22.1003 11.9158 22.1963 11.8789C22.2924 11.8368 22.3994 11.8159 22.5166 11.8164ZM38.9219 5.98047C39.0764 5.9812 39.2122 6.02207 39.3291 6.10254C39.4461 6.17773 39.5657 6.30889 39.6875 6.49609L40.3076 7.45117L41.2334 6.09473C41.2761 6.07368 41.3348 6.05565 41.4092 6.04004C41.4893 6.01906 41.5669 6.00846 41.6416 6.00879C41.8869 6.0099 42.0787 6.06957 42.2168 6.1875C42.3548 6.30538 42.4235 6.44958 42.4229 6.62012C42.4222 6.76943 42.3813 6.90257 42.3008 7.01953C42.2256 7.13651 42.1213 7.27767 41.9873 7.44238L41.1592 8.44629L42.4541 10.3164C42.4106 10.5134 42.3172 10.6704 42.1729 10.7871C42.0337 10.8985 41.8435 10.9542 41.6035 10.9531C41.4489 10.9524 41.3157 10.914 41.2041 10.8389C41.0925 10.7584 40.9787 10.6245 40.8623 10.4375L40.2188 9.41016L39.2041 10.9258C39.1615 10.9309 39.1213 10.9338 39.084 10.9336C39.0466 10.9388 39.009 10.9416 38.9717 10.9414C38.6678 10.94 38.4442 10.8772 38.3008 10.7539C38.1573 10.6306 38.0861 10.4782 38.0869 10.2969C38.0876 10.1423 38.1201 10.0091 38.1846 9.89746C38.2544 9.78047 38.3513 9.64526 38.4746 9.49121L39.3193 8.41504L38.0547 6.61719C38.0817 6.54264 38.1196 6.46801 38.168 6.39355C38.2163 6.31911 38.2751 6.25269 38.3447 6.19434C38.4197 6.13067 38.5054 6.07988 38.6016 6.04297C38.6977 6.00083 38.8047 5.97995 38.9219 5.98047ZM33.4619 5.95703C33.6164 5.95774 33.7523 5.99774 33.8691 6.07812C33.9861 6.15327 34.1058 6.28462 34.2275 6.47168L34.8477 7.42676L35.7734 6.07129C35.8161 6.05017 35.8746 6.03128 35.9492 6.01562C36.0293 5.99465 36.107 5.98405 36.1816 5.98438C36.4269 5.98546 36.6187 6.04523 36.7568 6.16309C36.895 6.28103 36.9636 6.42601 36.9629 6.59668C36.9622 6.74584 36.9213 6.87923 36.8408 6.99609C36.7657 7.11296 36.6612 7.25353 36.5273 7.41797L35.6992 8.42285L36.9951 10.292C36.9516 10.489 36.8572 10.646 36.7129 10.7627C36.5737 10.8741 36.3836 10.9298 36.1436 10.9287C35.989 10.928 35.8557 10.8896 35.7441 10.8145C35.6326 10.7339 35.5187 10.6001 35.4023 10.4131L34.7588 9.38672L33.7441 10.9023C33.7015 10.9075 33.6613 10.9093 33.624 10.9092C33.5867 10.9143 33.5491 10.9172 33.5117 10.917C33.208 10.9156 32.9843 10.8536 32.8408 10.7305C32.6975 10.6073 32.6263 10.4546 32.627 10.2734C32.6276 10.1188 32.6601 9.98476 32.7246 9.87305C32.7944 9.7561 32.8914 9.62077 33.0146 9.4668L33.8594 8.39062L32.5947 6.59277C32.6217 6.51823 32.6597 6.44359 32.708 6.36914C32.7563 6.29476 32.8152 6.22824 32.8848 6.16992C32.9597 6.10628 33.0455 6.05643 33.1416 6.01953C33.2378 5.97729 33.3446 5.95651 33.4619 5.95703ZM28.4219 5.93457C28.5764 5.93526 28.7122 5.97532 28.8291 6.05566C28.946 6.1308 29.0657 6.26221 29.1875 6.44922L29.8076 7.4043L30.7334 6.04883C30.7762 6.02768 30.8354 6.00883 30.9102 5.99316C30.99 5.97229 31.0672 5.96161 31.1416 5.96191C31.3868 5.963 31.5787 6.02283 31.7168 6.14062C31.8549 6.25857 31.9236 6.40355 31.9229 6.57422C31.9221 6.72338 31.8822 6.85677 31.8018 6.97363C31.7266 7.09059 31.6213 7.23086 31.4873 7.39551L30.6592 8.40039L31.9551 10.2695C31.9116 10.4666 31.8172 10.6236 31.6729 10.7402C31.5338 10.8516 31.3443 10.9073 31.1045 10.9062C30.9498 10.9056 30.8158 10.8672 30.7041 10.792C30.5926 10.7115 30.4786 10.5775 30.3623 10.3906L29.7188 9.36426L28.7041 10.8799C28.6615 10.885 28.6213 10.8869 28.584 10.8867C28.5467 10.8919 28.509 10.8947 28.4717 10.8945C28.168 10.8931 27.9442 10.8312 27.8008 10.708C27.6574 10.5848 27.5862 10.4321 27.5869 10.251C27.5876 10.0963 27.6201 9.9623 27.6846 9.85059C27.7544 9.73362 27.8513 9.59835 27.9746 9.44434L28.8193 8.36816L27.5547 6.57031C27.5817 6.49577 27.6196 6.42113 27.668 6.34668C27.7163 6.27228 27.7752 6.20579 27.8447 6.14746C27.9196 6.08383 28.0055 6.03397 28.1016 5.99707C28.1977 5.95484 28.3046 5.93406 28.4219 5.93457ZM22.542 5.9082C22.6966 5.90889 22.8323 5.9498 22.9492 6.03027C23.0662 6.10546 23.1858 6.23662 23.3076 6.42383L23.9277 7.37793L24.8535 6.02246C24.8963 6.00132 24.9555 5.98246 25.0303 5.9668C25.1101 5.94593 25.1873 5.93622 25.2617 5.93652C25.507 5.93761 25.6988 5.99729 25.8369 6.11523C25.975 6.23318 26.0437 6.3772 26.043 6.54785C26.0423 6.69709 26.0023 6.83035 25.9219 6.94727C25.8467 7.06427 25.7415 7.20538 25.6074 7.37012L24.7793 8.37402L26.0752 10.2441C26.0316 10.4412 25.9374 10.5982 25.793 10.7148C25.6539 10.8261 25.4644 10.8809 25.2246 10.8799C25.0701 10.8792 24.9368 10.8416 24.8252 10.7666C24.7136 10.6861 24.5989 10.5523 24.4824 10.3652L23.8389 9.33789L22.8242 10.8535C22.7816 10.8586 22.7414 10.8615 22.7041 10.8613C22.667 10.8664 22.6299 10.8683 22.5928 10.8682C22.2888 10.8668 22.0644 10.8049 21.9209 10.6816C21.7775 10.5584 21.7063 10.4059 21.707 10.2246C21.7077 10.0701 21.7403 9.93684 21.8047 9.8252C21.8745 9.70817 21.9714 9.57209 22.0947 9.41797L22.9395 8.3418L21.6758 6.54395C21.7028 6.46954 21.7399 6.39462 21.7881 6.32031C21.8364 6.24595 21.8953 6.1794 21.9648 6.12109C22.0397 6.05747 22.1256 6.0076 22.2217 5.9707C22.3178 5.92848 22.4247 5.9077 22.542 5.9082ZM28.4482 0.0263672C28.6028 0.0271087 28.7386 0.0679723 28.8555 0.148438C28.9724 0.223647 29.0921 0.354898 29.2139 0.541992L29.833 1.49609L30.7598 0.140625C30.8025 0.119534 30.861 0.100598 30.9355 0.0849609C31.0156 0.0639831 31.0933 0.0543558 31.168 0.0546875C31.4132 0.0558 31.605 0.115473 31.7432 0.233398C31.8811 0.351298 31.95 0.495478 31.9492 0.666016C31.9485 0.815273 31.9076 0.948501 31.8271 1.06543C31.752 1.18239 31.6477 1.32364 31.5137 1.48828L30.6855 2.49219L31.9805 4.3623C31.9369 4.55922 31.8436 4.7164 31.6992 4.83301C31.5601 4.94439 31.3699 4.99911 31.1299 4.99805C30.9753 4.99733 30.8421 4.95987 30.7305 4.88477C30.6189 4.80434 30.5051 4.67033 30.3887 4.4834L29.7451 3.45605L28.7305 4.97168C28.6879 4.97681 28.6476 4.97965 28.6104 4.97949C28.573 4.98466 28.5354 4.98649 28.498 4.98633C28.1943 4.98497 27.9706 4.92296 27.8271 4.7998C27.6837 4.67654 27.6125 4.52403 27.6133 4.34277C27.614 4.18817 27.6465 4.05505 27.7109 3.94336C27.7808 3.82636 27.8767 3.6902 28 3.53613L28.8457 2.45996L27.5811 0.662109C27.608 0.58765 27.6461 0.512842 27.6943 0.438477C27.7426 0.364196 27.8016 0.297505 27.8711 0.239258C27.946 0.175707 28.0319 0.125726 28.1279 0.0888672C28.2241 0.046696 28.331 0.0258464 28.4482 0.0263672ZM22.5684 0C22.7229 0.000725755 22.8587 0.0415891 22.9756 0.12207C23.0926 0.197262 23.2122 0.328437 23.334 0.515625L23.9541 1.4707L24.8799 0.114258C24.9226 0.0931939 24.9812 0.0751943 25.0557 0.0595703C25.1358 0.0385925 25.2134 0.0279886 25.2881 0.0283203C25.5334 0.0294183 25.7251 0.0890914 25.8633 0.207031C26.0013 0.324944 26.0701 0.469065 26.0693 0.639648C26.0687 0.78898 26.0278 0.922086 25.9473 1.03906C25.8721 1.15605 25.7678 1.29721 25.6338 1.46191L24.8057 2.46582L26.1016 4.33594C26.058 4.53299 25.9637 4.68996 25.8193 4.80664C25.6802 4.91802 25.49 4.97275 25.25 4.97168C25.0955 4.97095 24.9622 4.93352 24.8506 4.8584C24.739 4.77793 24.6252 4.64402 24.5088 4.45703L23.8652 3.42969L22.8506 4.94531C22.8079 4.95045 22.7678 4.95328 22.7305 4.95312C22.6931 4.95829 22.6555 4.96013 22.6182 4.95996C22.3143 4.95859 22.0907 4.89668 21.9473 4.77344C21.8038 4.65013 21.7326 4.49774 21.7334 4.31641C21.7341 4.16177 21.7666 4.02869 21.8311 3.91699C21.9009 3.79997 21.9978 3.66388 22.1211 3.50977L22.9658 2.43359L21.7012 0.636719C21.7282 0.562215 21.7662 0.487495 21.8145 0.413086C21.8628 0.338677 21.9217 0.272201 21.9912 0.213867C22.0662 0.1502 22.1519 0.0994067 22.248 0.0625C22.3442 0.0203326 22.4511 -0.00052075 22.5684 0Z" fill="#A4CCFF"/>
</svg>
