<svg width="122" height="148" viewBox="0 0 122 148" fill="none" xmlns="http://www.w3.org/2000/svg">
<path d="M80.4443 136C80.7922 136 81.0984 136.09 81.3623 136.27C81.6262 136.438 81.896 136.732 82.1719 137.151L83.5762 139.294L85.6455 136.233C85.7415 136.185 85.874 136.143 86.042 136.107C86.2218 136.059 86.3957 136.035 86.5635 136.035C87.1155 136.035 87.5484 136.168 87.8604 136.432C88.1721 136.696 88.328 137.02 88.3281 137.403C88.3281 137.739 88.2376 138.04 88.0576 138.304C87.8896 138.568 87.6554 138.886 87.3555 139.258L85.502 141.525L88.4355 145.72C88.3395 146.164 88.1296 146.517 87.8057 146.781C87.4937 147.033 87.0681 147.159 86.5283 147.159C86.1803 147.159 85.8799 147.075 85.6279 146.907C85.376 146.727 85.1174 146.428 84.8535 146.008L83.3955 143.704L81.1279 147.124C81.0321 147.136 80.9423 147.142 80.8584 147.142C80.7744 147.154 80.6895 147.159 80.6055 147.159C79.9218 147.159 79.4177 147.022 79.0938 146.746C78.7698 146.47 78.6084 146.128 78.6084 145.72C78.6084 145.372 78.6802 145.071 78.8242 144.819C78.9802 144.555 79.1958 144.249 79.4717 143.901L81.3623 141.472L78.5 137.439C78.56 137.272 78.644 137.103 78.752 136.936C78.8599 136.768 78.9915 136.617 79.1475 136.485C79.3154 136.341 79.5077 136.228 79.7236 136.144C79.9396 136.048 80.1803 136 80.4443 136ZM92.4443 136C92.7922 136 93.0984 136.09 93.3623 136.27C93.6262 136.438 93.896 136.732 94.1719 137.151L95.5762 139.294L97.6455 136.233C97.7415 136.185 97.874 136.143 98.042 136.107C98.2218 136.059 98.3957 136.035 98.5635 136.035C99.1155 136.035 99.5484 136.168 99.8604 136.432C100.172 136.696 100.328 137.02 100.328 137.403C100.328 137.739 100.238 138.04 100.058 138.304C99.8896 138.568 99.6554 138.886 99.3555 139.258L97.502 141.525L100.436 145.72C100.34 146.164 100.13 146.517 99.8057 146.781C99.4937 147.033 99.0681 147.159 98.5283 147.159C98.1803 147.159 97.8799 147.075 97.6279 146.907C97.376 146.727 97.1174 146.428 96.8535 146.008L95.3955 143.704L93.1279 147.124C93.0321 147.136 92.9423 147.142 92.8584 147.142C92.7744 147.154 92.6895 147.159 92.6055 147.159C91.9218 147.159 91.4177 147.022 91.0938 146.746C90.7698 146.47 90.6084 146.128 90.6084 145.72C90.6084 145.372 90.6802 145.071 90.8242 144.819C90.9802 144.555 91.1958 144.249 91.4717 143.901L93.3623 141.472L90.5 137.439C90.56 137.272 90.644 137.103 90.752 136.936C90.8599 136.768 90.9915 136.617 91.1475 136.485C91.3154 136.341 91.5077 136.228 91.7236 136.144C91.9396 136.048 92.1803 136 92.4443 136ZM102.944 136C103.292 136 103.598 136.09 103.862 136.27C104.126 136.438 104.396 136.732 104.672 137.151L106.076 139.294L108.146 136.233C108.242 136.185 108.374 136.143 108.542 136.107C108.722 136.059 108.896 136.035 109.063 136.035C109.615 136.035 110.048 136.168 110.36 136.432C110.672 136.696 110.828 137.02 110.828 137.403C110.828 137.739 110.738 138.04 110.558 138.304C110.39 138.568 110.155 138.886 109.855 139.258L108.002 141.525L110.936 145.72C110.84 146.164 110.63 146.517 110.306 146.781C109.994 147.033 109.568 147.159 109.028 147.159C108.68 147.159 108.38 147.075 108.128 146.907C107.876 146.727 107.617 146.428 107.354 146.008L105.896 143.704L103.628 147.124C103.532 147.136 103.442 147.142 103.358 147.142C103.274 147.154 103.189 147.159 103.105 147.159C102.422 147.159 101.918 147.022 101.594 146.746C101.27 146.47 101.108 146.128 101.108 145.72C101.108 145.372 101.18 145.071 101.324 144.819C101.48 144.555 101.696 144.249 101.972 143.901L103.862 141.472L101 137.439C101.06 137.272 101.144 137.103 101.252 136.936C101.36 136.768 101.492 136.617 101.647 136.485C101.815 136.341 102.008 136.228 102.224 136.144C102.44 136.048 102.68 136 102.944 136ZM12.9443 122C13.2922 122 13.5984 122.09 13.8623 122.27C14.1262 122.438 14.396 122.732 14.6719 123.151L16.0762 125.294L18.1455 122.233C18.2415 122.185 18.374 122.143 18.542 122.107C18.7218 122.059 18.8957 122.035 19.0635 122.035C19.6155 122.035 20.0484 122.168 20.3604 122.432C20.6721 122.696 20.828 123.02 20.8281 123.403C20.8281 123.739 20.7376 124.04 20.5576 124.304C20.3896 124.568 20.1554 124.886 19.8555 125.258L18.002 127.525L20.9355 131.72C20.8395 132.164 20.6296 132.517 20.3057 132.781C19.9937 133.033 19.5681 133.159 19.0283 133.159C18.6803 133.159 18.3799 133.075 18.1279 132.907C17.876 132.727 17.6174 132.428 17.3535 132.008L15.8955 129.704L13.6279 133.124C13.5321 133.136 13.4423 133.142 13.3584 133.142C13.2744 133.154 13.1895 133.159 13.1055 133.159C12.4218 133.159 11.9177 133.022 11.5938 132.746C11.2698 132.47 11.1084 132.128 11.1084 131.72C11.1084 131.372 11.1802 131.071 11.3242 130.819C11.4802 130.555 11.6958 130.249 11.9717 129.901L13.8623 127.472L11 123.439C11.06 123.272 11.144 123.103 11.252 122.936C11.3599 122.768 11.4915 122.617 11.6475 122.485C11.8154 122.341 12.0077 122.228 12.2236 122.144C12.4396 122.048 12.6803 122 12.9443 122ZM23.4443 122C23.7922 122 24.0984 122.09 24.3623 122.27C24.6262 122.438 24.896 122.732 25.1719 123.151L26.5762 125.294L28.6455 122.233C28.7415 122.185 28.874 122.143 29.042 122.107C29.2218 122.059 29.3957 122.035 29.5635 122.035C30.1155 122.035 30.5484 122.168 30.8604 122.432C31.1721 122.696 31.328 123.02 31.3281 123.403C31.3281 123.739 31.2376 124.04 31.0576 124.304C30.8896 124.568 30.6554 124.886 30.3555 125.258L28.502 127.525L31.4355 131.72C31.3395 132.164 31.1296 132.517 30.8057 132.781C30.4937 133.033 30.0681 133.159 29.5283 133.159C29.1803 133.159 28.8799 133.075 28.6279 132.907C28.376 132.727 28.1174 132.428 27.8535 132.008L26.3955 129.704L24.1279 133.124C24.0321 133.136 23.9423 133.142 23.8584 133.142C23.7744 133.154 23.6895 133.159 23.6055 133.159C22.9218 133.159 22.4177 133.022 22.0938 132.746C21.7698 132.47 21.6084 132.128 21.6084 131.72C21.6084 131.372 21.6802 131.071 21.8242 130.819C21.9802 130.555 22.1958 130.249 22.4717 129.901L24.3623 127.472L21.5 123.439C21.56 123.272 21.644 123.103 21.752 122.936C21.8599 122.768 21.9915 122.617 22.1475 122.485C22.3154 122.341 22.5077 122.228 22.7236 122.144C22.9396 122.048 23.1803 122 23.4443 122ZM35.4443 122C35.7922 122 36.0984 122.09 36.3623 122.27C36.6262 122.438 36.896 122.732 37.1719 123.151L38.5762 125.294L40.6455 122.233C40.7415 122.185 40.874 122.143 41.042 122.107C41.2218 122.059 41.3957 122.035 41.5635 122.035C42.1155 122.035 42.5484 122.168 42.8604 122.432C43.1721 122.696 43.328 123.02 43.3281 123.403C43.3281 123.739 43.2376 124.04 43.0576 124.304C42.8896 124.568 42.6554 124.886 42.3555 125.258L40.502 127.525L43.4355 131.72C43.3395 132.164 43.1296 132.517 42.8057 132.781C42.4937 133.033 42.0681 133.159 41.5283 133.159C41.1803 133.159 40.8799 133.075 40.6279 132.907C40.376 132.727 40.1174 132.428 39.8535 132.008L38.3955 129.704L36.1279 133.124C36.0321 133.136 35.9423 133.142 35.8584 133.142C35.7744 133.154 35.6895 133.159 35.6055 133.159C34.9218 133.159 34.4177 133.022 34.0938 132.746C33.7698 132.47 33.6084 132.128 33.6084 131.72C33.6084 131.372 33.6802 131.071 33.8242 130.819C33.9802 130.555 34.1958 130.249 34.4717 129.901L36.3623 127.472L33.5 123.439C33.56 123.272 33.644 123.103 33.752 122.936C33.8599 122.768 33.9915 122.617 34.1475 122.485C34.3154 122.341 34.5077 122.228 34.7236 122.144C34.9396 122.048 35.1803 122 35.4443 122ZM69.4443 122C69.7922 122 70.0984 122.09 70.3623 122.27C70.6262 122.438 70.896 122.732 71.1719 123.151L72.5762 125.294L74.6455 122.233C74.7415 122.185 74.874 122.143 75.042 122.107C75.2218 122.059 75.3957 122.035 75.5635 122.035C76.1155 122.035 76.5484 122.168 76.8604 122.432C77.1721 122.696 77.328 123.02 77.3281 123.403C77.3281 123.739 77.2376 124.04 77.0576 124.304C76.8896 124.568 76.6554 124.886 76.3555 125.258L74.502 127.525L77.4355 131.72C77.3395 132.164 77.1296 132.517 76.8057 132.781C76.4937 133.033 76.0681 133.159 75.5283 133.159C75.1803 133.159 74.8799 133.075 74.6279 132.907C74.376 132.727 74.1174 132.428 73.8535 132.008L72.3955 129.704L70.1279 133.124C70.0321 133.136 69.9423 133.142 69.8584 133.142C69.7744 133.154 69.6895 133.159 69.6055 133.159C68.9218 133.159 68.4177 133.022 68.0938 132.746C67.7698 132.47 67.6084 132.128 67.6084 131.72C67.6084 131.372 67.6802 131.071 67.8242 130.819C67.9802 130.555 68.1958 130.249 68.4717 129.901L70.3623 127.472L67.5 123.439C67.56 123.272 67.644 123.103 67.752 122.936C67.8599 122.768 67.9915 122.617 68.1475 122.485C68.3154 122.341 68.5077 122.228 68.7236 122.144C68.9396 122.048 69.1803 122 69.4443 122ZM80.4443 122C80.7922 122 81.0984 122.09 81.3623 122.27C81.6262 122.438 81.896 122.732 82.1719 123.151L83.5762 125.294L85.6455 122.233C85.7415 122.185 85.874 122.143 86.042 122.107C86.2218 122.059 86.3957 122.035 86.5635 122.035C87.1155 122.035 87.5484 122.168 87.8604 122.432C88.1721 122.696 88.328 123.02 88.3281 123.403C88.3281 123.739 88.2376 124.04 88.0576 124.304C87.8896 124.568 87.6554 124.886 87.3555 125.258L85.502 127.525L88.4355 131.72C88.3395 132.164 88.1296 132.517 87.8057 132.781C87.4937 133.033 87.0681 133.159 86.5283 133.159C86.1803 133.159 85.8799 133.075 85.6279 132.907C85.376 132.727 85.1174 132.428 84.8535 132.008L83.3955 129.704L81.1279 133.124C81.0321 133.136 80.9423 133.142 80.8584 133.142C80.7744 133.154 80.6895 133.159 80.6055 133.159C79.9218 133.159 79.4177 133.022 79.0938 132.746C78.7698 132.47 78.6084 132.128 78.6084 131.72C78.6084 131.372 78.6802 131.071 78.8242 130.819C78.9802 130.555 79.1958 130.249 79.4717 129.901L81.3623 127.472L78.5 123.439C78.56 123.272 78.644 123.103 78.752 122.936C78.8599 122.768 78.9915 122.617 79.1475 122.485C79.3154 122.341 79.5077 122.228 79.7236 122.144C79.9396 122.048 80.1803 122 80.4443 122ZM92.4443 122C92.7922 122 93.0984 122.09 93.3623 122.27C93.6262 122.438 93.896 122.732 94.1719 123.151L95.5762 125.294L97.6455 122.233C97.7415 122.185 97.874 122.143 98.042 122.107C98.2218 122.059 98.3957 122.035 98.5635 122.035C99.1155 122.035 99.5484 122.168 99.8604 122.432C100.172 122.696 100.328 123.02 100.328 123.403C100.328 123.739 100.238 124.04 100.058 124.304C99.8896 124.568 99.6554 124.886 99.3555 125.258L97.502 127.525L100.436 131.72C100.34 132.164 100.13 132.517 99.8057 132.781C99.4937 133.033 99.0681 133.159 98.5283 133.159C98.1803 133.159 97.8799 133.075 97.6279 132.907C97.376 132.727 97.1174 132.428 96.8535 132.008L95.3955 129.704L93.1279 133.124C93.0321 133.136 92.9423 133.142 92.8584 133.142C92.7744 133.154 92.6895 133.159 92.6055 133.159C91.9218 133.159 91.4177 133.022 91.0938 132.746C90.7698 132.47 90.6084 132.128 90.6084 131.72C90.6084 131.372 90.6802 131.071 90.8242 130.819C90.9802 130.555 91.1958 130.249 91.4717 129.901L93.3623 127.472L90.5 123.439C90.56 123.272 90.644 123.103 90.752 122.936C90.8599 122.768 90.9915 122.617 91.1475 122.485C91.3154 122.341 91.5077 122.228 91.7236 122.144C91.9396 122.048 92.1803 122 92.4443 122ZM102.944 122C103.292 122 103.598 122.09 103.862 122.27C104.126 122.438 104.396 122.732 104.672 123.151L106.076 125.294L108.146 122.233C108.242 122.185 108.374 122.143 108.542 122.107C108.722 122.059 108.896 122.035 109.063 122.035C109.615 122.035 110.048 122.168 110.36 122.432C110.672 122.696 110.828 123.02 110.828 123.403C110.828 123.739 110.738 124.04 110.558 124.304C110.39 124.568 110.155 124.886 109.855 125.258L108.002 127.525L110.936 131.72C110.84 132.164 110.63 132.517 110.306 132.781C109.994 133.033 109.568 133.159 109.028 133.159C108.68 133.159 108.38 133.075 108.128 132.907C107.876 132.727 107.617 132.428 107.354 132.008L105.896 129.704L103.628 133.124C103.532 133.136 103.442 133.142 103.358 133.142C103.274 133.154 103.189 133.159 103.105 133.159C102.422 133.159 101.918 133.022 101.594 132.746C101.27 132.47 101.108 132.128 101.108 131.72C101.108 131.372 101.18 131.071 101.324 130.819C101.48 130.555 101.696 130.249 101.972 129.901L103.862 127.472L101 123.439C101.06 123.272 101.144 123.103 101.252 122.936C101.36 122.768 101.492 122.617 101.647 122.485C101.815 122.341 102.008 122.228 102.224 122.144C102.44 122.048 102.68 122 102.944 122ZM113.944 122C114.292 122 114.598 122.09 114.862 122.27C115.126 122.438 115.396 122.732 115.672 123.151L117.076 125.294L119.146 122.233C119.242 122.185 119.374 122.143 119.542 122.107C119.722 122.059 119.896 122.035 120.063 122.035C120.615 122.035 121.048 122.168 121.36 122.432C121.672 122.696 121.828 123.02 121.828 123.403C121.828 123.739 121.738 124.04 121.558 124.304C121.39 124.568 121.155 124.886 120.855 125.258L119.002 127.525L121.936 131.72C121.84 132.164 121.63 132.517 121.306 132.781C120.994 133.033 120.568 133.159 120.028 133.159C119.68 133.159 119.38 133.075 119.128 132.907C118.876 132.727 118.617 132.428 118.354 132.008L116.896 129.704L114.628 133.124C114.532 133.136 114.442 133.142 114.358 133.142C114.274 133.154 114.189 133.159 114.105 133.159C113.422 133.159 112.918 133.022 112.594 132.746C112.27 132.47 112.108 132.128 112.108 131.72C112.108 131.372 112.18 131.071 112.324 130.819C112.48 130.555 112.696 130.249 112.972 129.901L114.862 127.472L112 123.439C112.06 123.272 112.144 123.103 112.252 122.936C112.36 122.768 112.492 122.617 112.647 122.485C112.815 122.341 113.008 122.228 113.224 122.144C113.44 122.048 113.68 122 113.944 122ZM1.94434 110C2.29217 110 2.59841 110.09 2.8623 110.27C3.12619 110.438 3.396 110.732 3.67188 111.151L5.07617 113.294L7.14551 110.233C7.24151 110.185 7.37399 110.143 7.54199 110.107C7.72179 110.059 7.89565 110.035 8.06348 110.035C8.61548 110.035 9.04835 110.168 9.36035 110.432C9.6721 110.696 9.82804 111.02 9.82812 111.403C9.82812 111.739 9.73762 112.04 9.55762 112.304C9.38963 112.568 9.15539 112.886 8.85547 113.258L7.00195 115.525L9.93555 119.72C9.83953 120.164 9.62961 120.517 9.30566 120.781C8.99374 121.033 8.56814 121.159 8.02832 121.159C7.68032 121.159 7.37993 121.075 7.12793 120.907C6.87599 120.727 6.61745 120.428 6.35352 120.008L4.89551 117.704L2.62793 121.124C2.53213 121.136 2.44225 121.142 2.3584 121.142C2.2744 121.154 2.18947 121.159 2.10547 121.159C1.42179 121.159 0.917681 121.022 0.59375 120.746C0.269777 120.47 0.108425 120.128 0.108398 119.72C0.108398 119.372 0.180219 119.071 0.324219 118.819C0.480203 118.555 0.695797 118.249 0.97168 117.901L2.8623 115.472L0 111.439C0.0599959 111.272 0.14399 111.103 0.251953 110.936C0.359913 110.768 0.491543 110.617 0.647461 110.485C0.815398 110.341 1.00773 110.228 1.22363 110.144C1.43963 110.048 1.68034 110 1.94434 110ZM12.9443 110C13.2922 110 13.5984 110.09 13.8623 110.27C14.1262 110.438 14.396 110.732 14.6719 111.151L16.0762 113.294L18.1455 110.233C18.2415 110.185 18.374 110.143 18.542 110.107C18.7218 110.059 18.8957 110.035 19.0635 110.035C19.6155 110.035 20.0484 110.168 20.3604 110.432C20.6721 110.696 20.828 111.02 20.8281 111.403C20.8281 111.739 20.7376 112.04 20.5576 112.304C20.3896 112.568 20.1554 112.886 19.8555 113.258L18.002 115.525L20.9355 119.72C20.8395 120.164 20.6296 120.517 20.3057 120.781C19.9937 121.033 19.5681 121.159 19.0283 121.159C18.6803 121.159 18.3799 121.075 18.1279 120.907C17.876 120.727 17.6174 120.428 17.3535 120.008L15.8955 117.704L13.6279 121.124C13.5321 121.136 13.4423 121.142 13.3584 121.142C13.2744 121.154 13.1895 121.159 13.1055 121.159C12.4218 121.159 11.9177 121.022 11.5938 120.746C11.2698 120.47 11.1084 120.128 11.1084 119.72C11.1084 119.372 11.1802 119.071 11.3242 118.819C11.4802 118.555 11.6958 118.249 11.9717 117.901L13.8623 115.472L11 111.439C11.06 111.272 11.144 111.103 11.252 110.936C11.3599 110.768 11.4915 110.617 11.6475 110.485C11.8154 110.341 12.0077 110.228 12.2236 110.144C12.4396 110.048 12.6803 110 12.9443 110ZM23.4443 110C23.7922 110 24.0984 110.09 24.3623 110.27C24.6262 110.438 24.896 110.732 25.1719 111.151L26.5762 113.294L28.6455 110.233C28.7415 110.185 28.874 110.143 29.042 110.107C29.2218 110.059 29.3957 110.035 29.5635 110.035C30.1155 110.035 30.5484 110.168 30.8604 110.432C31.1721 110.696 31.328 111.02 31.3281 111.403C31.3281 111.739 31.2376 112.04 31.0576 112.304C30.8896 112.568 30.6554 112.886 30.3555 113.258L28.502 115.525L31.4355 119.72C31.3395 120.164 31.1296 120.517 30.8057 120.781C30.4937 121.033 30.0681 121.159 29.5283 121.159C29.1803 121.159 28.8799 121.075 28.6279 120.907C28.376 120.727 28.1174 120.428 27.8535 120.008L26.3955 117.704L24.1279 121.124C24.0321 121.136 23.9423 121.142 23.8584 121.142C23.7744 121.154 23.6895 121.159 23.6055 121.159C22.9218 121.159 22.4177 121.022 22.0938 120.746C21.7698 120.47 21.6084 120.128 21.6084 119.72C21.6084 119.372 21.6802 119.071 21.8242 118.819C21.9802 118.555 22.1958 118.249 22.4717 117.901L24.3623 115.472L21.5 111.439C21.56 111.272 21.644 111.103 21.752 110.936C21.8599 110.768 21.9915 110.617 22.1475 110.485C22.3154 110.341 22.5077 110.228 22.7236 110.144C22.9396 110.048 23.1803 110 23.4443 110ZM35.4443 110C35.7922 110 36.0984 110.09 36.3623 110.27C36.6262 110.438 36.896 110.732 37.1719 111.151L38.5762 113.294L40.6455 110.233C40.7415 110.185 40.874 110.143 41.042 110.107C41.2218 110.059 41.3957 110.035 41.5635 110.035C42.1155 110.035 42.5484 110.168 42.8604 110.432C43.1721 110.696 43.328 111.02 43.3281 111.403C43.3281 111.739 43.2376 112.04 43.0576 112.304C42.8896 112.568 42.6554 112.886 42.3555 113.258L40.502 115.525L43.4355 119.72C43.3395 120.164 43.1296 120.517 42.8057 120.781C42.4937 121.033 42.0681 121.159 41.5283 121.159C41.1803 121.159 40.8799 121.075 40.6279 120.907C40.376 120.727 40.1174 120.428 39.8535 120.008L38.3955 117.704L36.1279 121.124C36.0321 121.136 35.9423 121.142 35.8584 121.142C35.7744 121.154 35.6895 121.159 35.6055 121.159C34.9218 121.159 34.4177 121.022 34.0938 120.746C33.7698 120.47 33.6084 120.128 33.6084 119.72C33.6084 119.372 33.6802 119.071 33.8242 118.819C33.9802 118.555 34.1958 118.249 34.4717 117.901L36.3623 115.472L33.5 111.439C33.56 111.272 33.644 111.103 33.752 110.936C33.8599 110.768 33.9915 110.617 34.1475 110.485C34.3154 110.341 34.5077 110.228 34.7236 110.144C34.9396 110.048 35.1803 110 35.4443 110ZM46.4443 110C46.7922 110 47.0984 110.09 47.3623 110.27C47.6262 110.438 47.896 110.732 48.1719 111.151L49.5762 113.294L51.6455 110.233C51.7415 110.185 51.874 110.143 52.042 110.107C52.2218 110.059 52.3957 110.035 52.5635 110.035C53.1155 110.035 53.5484 110.168 53.8604 110.432C54.1721 110.696 54.328 111.02 54.3281 111.403C54.3281 111.739 54.2376 112.04 54.0576 112.304C53.8896 112.568 53.6554 112.886 53.3555 113.258L51.502 115.525L54.4355 119.72C54.3395 120.164 54.1296 120.517 53.8057 120.781C53.4937 121.033 53.0681 121.159 52.5283 121.159C52.1803 121.159 51.8799 121.075 51.6279 120.907C51.376 120.727 51.1174 120.428 50.8535 120.008L49.3955 117.704L47.1279 121.124C47.0321 121.136 46.9423 121.142 46.8584 121.142C46.7744 121.154 46.6895 121.159 46.6055 121.159C45.9218 121.159 45.4177 121.022 45.0938 120.746C44.7698 120.47 44.6084 120.128 44.6084 119.72C44.6084 119.372 44.6802 119.071 44.8242 118.819C44.9802 118.555 45.1958 118.249 45.4717 117.901L47.3623 115.472L44.5 111.439C44.56 111.272 44.644 111.103 44.752 110.936C44.8599 110.768 44.9915 110.617 45.1475 110.485C45.3154 110.341 45.5077 110.228 45.7236 110.144C45.9396 110.048 46.1803 110 46.4443 110ZM69.4443 110C69.7922 110 70.0984 110.09 70.3623 110.27C70.6262 110.438 70.896 110.732 71.1719 111.151L72.5762 113.294L74.6455 110.233C74.7415 110.185 74.874 110.143 75.042 110.107C75.2218 110.059 75.3957 110.035 75.5635 110.035C76.1155 110.035 76.5484 110.168 76.8604 110.432C77.1721 110.696 77.328 111.02 77.3281 111.403C77.3281 111.739 77.2376 112.04 77.0576 112.304C76.8896 112.568 76.6554 112.886 76.3555 113.258L74.502 115.525L77.4355 119.72C77.3395 120.164 77.1296 120.517 76.8057 120.781C76.4937 121.033 76.0681 121.159 75.5283 121.159C75.1803 121.159 74.8799 121.075 74.6279 120.907C74.376 120.727 74.1174 120.428 73.8535 120.008L72.3955 117.704L70.1279 121.124C70.0321 121.136 69.9423 121.142 69.8584 121.142C69.7744 121.154 69.6895 121.159 69.6055 121.159C68.9218 121.159 68.4177 121.022 68.0938 120.746C67.7698 120.47 67.6084 120.128 67.6084 119.72C67.6084 119.372 67.6802 119.071 67.8242 118.819C67.9802 118.555 68.1958 118.249 68.4717 117.901L70.3623 115.472L67.5 111.439C67.56 111.272 67.644 111.103 67.752 110.936C67.8599 110.768 67.9915 110.617 68.1475 110.485C68.3154 110.341 68.5077 110.228 68.7236 110.144C68.9396 110.048 69.1803 110 69.4443 110ZM80.4443 110C80.7922 110 81.0984 110.09 81.3623 110.27C81.6262 110.438 81.896 110.732 82.1719 111.151L83.5762 113.294L85.6455 110.233C85.7415 110.185 85.874 110.143 86.042 110.107C86.2218 110.059 86.3957 110.035 86.5635 110.035C87.1155 110.035 87.5484 110.168 87.8604 110.432C88.1721 110.696 88.328 111.02 88.3281 111.403C88.3281 111.739 88.2376 112.04 88.0576 112.304C87.8896 112.568 87.6554 112.886 87.3555 113.258L85.502 115.525L88.4355 119.72C88.3395 120.164 88.1296 120.517 87.8057 120.781C87.4937 121.033 87.0681 121.159 86.5283 121.159C86.1803 121.159 85.8799 121.075 85.6279 120.907C85.376 120.727 85.1174 120.428 84.8535 120.008L83.3955 117.704L81.1279 121.124C81.0321 121.136 80.9423 121.142 80.8584 121.142C80.7744 121.154 80.6895 121.159 80.6055 121.159C79.9218 121.159 79.4177 121.022 79.0938 120.746C78.7698 120.47 78.6084 120.128 78.6084 119.72C78.6084 119.372 78.6802 119.071 78.8242 118.819C78.9802 118.555 79.1958 118.249 79.4717 117.901L81.3623 115.472L78.5 111.439C78.56 111.272 78.644 111.103 78.752 110.936C78.8599 110.768 78.9915 110.617 79.1475 110.485C79.3154 110.341 79.5077 110.228 79.7236 110.144C79.9396 110.048 80.1803 110 80.4443 110ZM92.4443 110C92.7922 110 93.0984 110.09 93.3623 110.27C93.6262 110.438 93.896 110.732 94.1719 111.151L95.5762 113.294L97.6455 110.233C97.7415 110.185 97.874 110.143 98.042 110.107C98.2218 110.059 98.3957 110.035 98.5635 110.035C99.1155 110.035 99.5484 110.168 99.8604 110.432C100.172 110.696 100.328 111.02 100.328 111.403C100.328 111.739 100.238 112.04 100.058 112.304C99.8896 112.568 99.6554 112.886 99.3555 113.258L97.502 115.525L100.436 119.72C100.34 120.164 100.13 120.517 99.8057 120.781C99.4937 121.033 99.0681 121.159 98.5283 121.159C98.1803 121.159 97.8799 121.075 97.6279 120.907C97.376 120.727 97.1174 120.428 96.8535 120.008L95.3955 117.704L93.1279 121.124C93.0321 121.136 92.9423 121.142 92.8584 121.142C92.7744 121.154 92.6895 121.159 92.6055 121.159C91.9218 121.159 91.4177 121.022 91.0938 120.746C90.7698 120.47 90.6084 120.128 90.6084 119.72C90.6084 119.372 90.6802 119.071 90.8242 118.819C90.9802 118.555 91.1958 118.249 91.4717 117.901L93.3623 115.472L90.5 111.439C90.56 111.272 90.644 111.103 90.752 110.936C90.8599 110.768 90.9915 110.617 91.1475 110.485C91.3154 110.341 91.5077 110.228 91.7236 110.144C91.9396 110.048 92.1803 110 92.4443 110ZM102.944 110C103.292 110 103.598 110.09 103.862 110.27C104.126 110.438 104.396 110.732 104.672 111.151L106.076 113.294L108.146 110.233C108.242 110.185 108.374 110.143 108.542 110.107C108.722 110.059 108.896 110.035 109.063 110.035C109.615 110.035 110.048 110.168 110.36 110.432C110.672 110.696 110.828 111.02 110.828 111.403C110.828 111.739 110.738 112.04 110.558 112.304C110.39 112.568 110.155 112.886 109.855 113.258L108.002 115.525L110.936 119.72C110.84 120.164 110.63 120.517 110.306 120.781C109.994 121.033 109.568 121.159 109.028 121.159C108.68 121.159 108.38 121.075 108.128 120.907C107.876 120.727 107.617 120.428 107.354 120.008L105.896 117.704L103.628 121.124C103.532 121.136 103.442 121.142 103.358 121.142C103.274 121.154 103.189 121.159 103.105 121.159C102.422 121.159 101.918 121.022 101.594 120.746C101.27 120.47 101.108 120.128 101.108 119.72C101.108 119.372 101.18 119.071 101.324 118.819C101.48 118.555 101.696 118.249 101.972 117.901L103.862 115.472L101 111.439C101.06 111.272 101.144 111.103 101.252 110.936C101.36 110.768 101.492 110.617 101.647 110.485C101.815 110.341 102.008 110.228 102.224 110.144C102.44 110.048 102.68 110 102.944 110ZM113.944 110C114.292 110 114.598 110.09 114.862 110.27C115.126 110.438 115.396 110.732 115.672 111.151L117.076 113.294L119.146 110.233C119.242 110.185 119.374 110.143 119.542 110.107C119.722 110.059 119.896 110.035 120.063 110.035C120.615 110.035 121.048 110.168 121.36 110.432C121.672 110.696 121.828 111.02 121.828 111.403C121.828 111.739 121.738 112.04 121.558 112.304C121.39 112.568 121.155 112.886 120.855 113.258L119.002 115.525L121.936 119.72C121.84 120.164 121.63 120.517 121.306 120.781C120.994 121.033 120.568 121.159 120.028 121.159C119.68 121.159 119.38 121.075 119.128 120.907C118.876 120.727 118.617 120.428 118.354 120.008L116.896 117.704L114.628 121.124C114.532 121.136 114.442 121.142 114.358 121.142C114.274 121.154 114.189 121.159 114.105 121.159C113.422 121.159 112.918 121.022 112.594 120.746C112.27 120.47 112.108 120.128 112.108 119.72C112.108 119.372 112.18 119.071 112.324 118.819C112.48 118.555 112.696 118.249 112.972 117.901L114.862 115.472L112 111.439C112.06 111.272 112.144 111.103 112.252 110.936C112.36 110.768 112.492 110.617 112.647 110.485C112.815 110.341 113.008 110.228 113.224 110.144C113.44 110.048 113.68 110 113.944 110ZM1.94434 98C2.29217 98.0001 2.59841 98.0896 2.8623 98.2695C3.12619 98.4375 3.396 98.7316 3.67188 99.1514L5.07617 101.294L7.14551 98.2334C7.24151 98.1854 7.37399 98.1434 7.54199 98.1074C7.72179 98.0595 7.89565 98.0352 8.06348 98.0352C8.61548 98.0352 9.04835 98.1676 9.36035 98.4316C9.6721 98.6955 9.82804 99.0196 9.82812 99.4033C9.82812 99.7393 9.73762 100.04 9.55762 100.304C9.38963 100.568 9.15539 100.886 8.85547 101.258L7.00195 103.525L9.93555 107.72C9.83953 108.164 9.62961 108.517 9.30566 108.781C8.99374 109.033 8.56814 109.159 8.02832 109.159C7.68032 109.159 7.37993 109.075 7.12793 108.907C6.87599 108.727 6.61745 108.428 6.35352 108.008L4.89551 105.704L2.62793 109.124C2.53213 109.136 2.44225 109.142 2.3584 109.142C2.2744 109.154 2.18947 109.159 2.10547 109.159C1.42179 109.159 0.917681 109.022 0.59375 108.746C0.269777 108.47 0.108425 108.128 0.108398 107.72C0.108398 107.372 0.180219 107.071 0.324219 106.819C0.480203 106.555 0.695797 106.249 0.97168 105.901L2.8623 103.472L0 99.4395C0.0599959 99.2715 0.14399 99.1035 0.251953 98.9355C0.359913 98.7676 0.491543 98.6173 0.647461 98.4854C0.815398 98.3414 1.00773 98.2275 1.22363 98.1436C1.43963 98.0476 1.68034 98 1.94434 98ZM12.9443 98C13.2922 98.0001 13.5984 98.0896 13.8623 98.2695C14.1262 98.4375 14.396 98.7316 14.6719 99.1514L16.0762 101.294L18.1455 98.2334C18.2415 98.1854 18.374 98.1434 18.542 98.1074C18.7218 98.0595 18.8957 98.0352 19.0635 98.0352C19.6155 98.0352 20.0484 98.1676 20.3604 98.4316C20.6721 98.6955 20.828 99.0196 20.8281 99.4033C20.8281 99.7393 20.7376 100.04 20.5576 100.304C20.3896 100.568 20.1554 100.886 19.8555 101.258L18.002 103.525L20.9355 107.72C20.8395 108.164 20.6296 108.517 20.3057 108.781C19.9937 109.033 19.5681 109.159 19.0283 109.159C18.6803 109.159 18.3799 109.075 18.1279 108.907C17.876 108.727 17.6174 108.428 17.3535 108.008L15.8955 105.704L13.6279 109.124C13.5321 109.136 13.4423 109.142 13.3584 109.142C13.2744 109.154 13.1895 109.159 13.1055 109.159C12.4218 109.159 11.9177 109.022 11.5938 108.746C11.2698 108.47 11.1084 108.128 11.1084 107.72C11.1084 107.372 11.1802 107.071 11.3242 106.819C11.4802 106.555 11.6958 106.249 11.9717 105.901L13.8623 103.472L11 99.4395C11.06 99.2715 11.144 99.1035 11.252 98.9355C11.3599 98.7676 11.4915 98.6173 11.6475 98.4854C11.8154 98.3414 12.0077 98.2275 12.2236 98.1436C12.4396 98.0476 12.6803 98 12.9443 98ZM23.4443 98C23.7922 98.0001 24.0984 98.0896 24.3623 98.2695C24.6262 98.4375 24.896 98.7316 25.1719 99.1514L26.5762 101.294L28.6455 98.2334C28.7415 98.1854 28.874 98.1434 29.042 98.1074C29.2218 98.0595 29.3957 98.0352 29.5635 98.0352C30.1155 98.0352 30.5484 98.1676 30.8604 98.4316C31.1721 98.6955 31.328 99.0196 31.3281 99.4033C31.3281 99.7393 31.2376 100.04 31.0576 100.304C30.8896 100.568 30.6554 100.886 30.3555 101.258L28.502 103.525L31.4355 107.72C31.3395 108.164 31.1296 108.517 30.8057 108.781C30.4937 109.033 30.0681 109.159 29.5283 109.159C29.1803 109.159 28.8799 109.075 28.6279 108.907C28.376 108.727 28.1174 108.428 27.8535 108.008L26.3955 105.704L24.1279 109.124C24.0321 109.136 23.9423 109.142 23.8584 109.142C23.7744 109.154 23.6895 109.159 23.6055 109.159C22.9218 109.159 22.4177 109.022 22.0938 108.746C21.7698 108.47 21.6084 108.128 21.6084 107.72C21.6084 107.372 21.6802 107.071 21.8242 106.819C21.9802 106.555 22.1958 106.249 22.4717 105.901L24.3623 103.472L21.5 99.4395C21.56 99.2715 21.644 99.1035 21.752 98.9355C21.8599 98.7676 21.9915 98.6173 22.1475 98.4854C22.3154 98.3414 22.5077 98.2275 22.7236 98.1436C22.9396 98.0476 23.1803 98 23.4443 98ZM35.4443 98C35.7922 98.0001 36.0984 98.0896 36.3623 98.2695C36.6262 98.4375 36.896 98.7316 37.1719 99.1514L38.5762 101.294L40.6455 98.2334C40.7415 98.1854 40.874 98.1434 41.042 98.1074C41.2218 98.0595 41.3957 98.0352 41.5635 98.0352C42.1155 98.0352 42.5484 98.1676 42.8604 98.4316C43.1721 98.6955 43.328 99.0196 43.3281 99.4033C43.3281 99.7393 43.2376 100.04 43.0576 100.304C42.8896 100.568 42.6554 100.886 42.3555 101.258L40.502 103.525L43.4355 107.72C43.3395 108.164 43.1296 108.517 42.8057 108.781C42.4937 109.033 42.0681 109.159 41.5283 109.159C41.1803 109.159 40.8799 109.075 40.6279 108.907C40.376 108.727 40.1174 108.428 39.8535 108.008L38.3955 105.704L36.1279 109.124C36.0321 109.136 35.9423 109.142 35.8584 109.142C35.7744 109.154 35.6895 109.159 35.6055 109.159C34.9218 109.159 34.4177 109.022 34.0938 108.746C33.7698 108.47 33.6084 108.128 33.6084 107.72C33.6084 107.372 33.6802 107.071 33.8242 106.819C33.9802 106.555 34.1958 106.249 34.4717 105.901L36.3623 103.472L33.5 99.4395C33.56 99.2715 33.644 99.1035 33.752 98.9355C33.8599 98.7676 33.9915 98.6173 34.1475 98.4854C34.3154 98.3414 34.5077 98.2275 34.7236 98.1436C34.9396 98.0476 35.1803 98 35.4443 98ZM46.4443 98C46.7922 98.0001 47.0984 98.0896 47.3623 98.2695C47.6262 98.4375 47.896 98.7316 48.1719 99.1514L49.5762 101.294L51.6455 98.2334C51.7415 98.1854 51.874 98.1434 52.042 98.1074C52.2218 98.0595 52.3957 98.0352 52.5635 98.0352C53.1155 98.0352 53.5484 98.1676 53.8604 98.4316C54.1721 98.6955 54.328 99.0196 54.3281 99.4033C54.3281 99.7393 54.2376 100.04 54.0576 100.304C53.8896 100.568 53.6554 100.886 53.3555 101.258L51.502 103.525L54.4355 107.72C54.3395 108.164 54.1296 108.517 53.8057 108.781C53.4937 109.033 53.0681 109.159 52.5283 109.159C52.1803 109.159 51.8799 109.075 51.6279 108.907C51.376 108.727 51.1174 108.428 50.8535 108.008L49.3955 105.704L47.1279 109.124C47.0321 109.136 46.9423 109.142 46.8584 109.142C46.7744 109.154 46.6895 109.159 46.6055 109.159C45.9218 109.159 45.4177 109.022 45.0938 108.746C44.7698 108.47 44.6084 108.128 44.6084 107.72C44.6084 107.372 44.6802 107.071 44.8242 106.819C44.9802 106.555 45.1958 106.249 45.4717 105.901L47.3623 103.472L44.5 99.4395C44.56 99.2715 44.644 99.1035 44.752 98.9355C44.8599 98.7676 44.9915 98.6173 45.1475 98.4854C45.3154 98.3414 45.5077 98.2275 45.7236 98.1436C45.9396 98.0476 46.1803 98 46.4443 98ZM80.4443 98C80.7922 98.0001 81.0984 98.0896 81.3623 98.2695C81.6262 98.4375 81.896 98.7316 82.1719 99.1514L83.5762 101.294L85.6455 98.2334C85.7415 98.1854 85.874 98.1434 86.042 98.1074C86.2218 98.0595 86.3957 98.0352 86.5635 98.0352C87.1155 98.0352 87.5484 98.1676 87.8604 98.4316C88.1721 98.6955 88.328 99.0196 88.3281 99.4033C88.3281 99.7393 88.2376 100.04 88.0576 100.304C87.8896 100.568 87.6554 100.886 87.3555 101.258L85.502 103.525L88.4355 107.72C88.3395 108.164 88.1296 108.517 87.8057 108.781C87.4937 109.033 87.0681 109.159 86.5283 109.159C86.1803 109.159 85.8799 109.075 85.6279 108.907C85.376 108.727 85.1174 108.428 84.8535 108.008L83.3955 105.704L81.1279 109.124C81.0321 109.136 80.9423 109.142 80.8584 109.142C80.7744 109.154 80.6895 109.159 80.6055 109.159C79.9218 109.159 79.4177 109.022 79.0938 108.746C78.7698 108.47 78.6084 108.128 78.6084 107.72C78.6084 107.372 78.6802 107.071 78.8242 106.819C78.9802 106.555 79.1958 106.249 79.4717 105.901L81.3623 103.472L78.5 99.4395C78.56 99.2715 78.644 99.1035 78.752 98.9355C78.8599 98.7676 78.9915 98.6173 79.1475 98.4854C79.3154 98.3414 79.5077 98.2275 79.7236 98.1436C79.9396 98.0476 80.1803 98 80.4443 98ZM92.4443 98C92.7922 98.0001 93.0984 98.0896 93.3623 98.2695C93.6262 98.4375 93.896 98.7316 94.1719 99.1514L95.5762 101.294L97.6455 98.2334C97.7415 98.1854 97.874 98.1434 98.042 98.1074C98.2218 98.0595 98.3957 98.0352 98.5635 98.0352C99.1155 98.0352 99.5484 98.1676 99.8604 98.4316C100.172 98.6955 100.328 99.0196 100.328 99.4033C100.328 99.7393 100.238 100.04 100.058 100.304C99.8896 100.568 99.6554 100.886 99.3555 101.258L97.502 103.525L100.436 107.72C100.34 108.164 100.13 108.517 99.8057 108.781C99.4937 109.033 99.0681 109.159 98.5283 109.159C98.1803 109.159 97.8799 109.075 97.6279 108.907C97.376 108.727 97.1174 108.428 96.8535 108.008L95.3955 105.704L93.1279 109.124C93.0321 109.136 92.9423 109.142 92.8584 109.142C92.7744 109.154 92.6895 109.159 92.6055 109.159C91.9218 109.159 91.4177 109.022 91.0938 108.746C90.7698 108.47 90.6084 108.128 90.6084 107.72C90.6084 107.372 90.6802 107.071 90.8242 106.819C90.9802 106.555 91.1958 106.249 91.4717 105.901L93.3623 103.472L90.5 99.4395C90.56 99.2715 90.644 99.1035 90.752 98.9355C90.8599 98.7676 90.9915 98.6173 91.1475 98.4854C91.3154 98.3414 91.5077 98.2275 91.7236 98.1436C91.9396 98.0476 92.1803 98 92.4443 98ZM102.944 98C103.292 98.0001 103.598 98.0896 103.862 98.2695C104.126 98.4375 104.396 98.7316 104.672 99.1514L106.076 101.294L108.146 98.2334C108.242 98.1854 108.374 98.1434 108.542 98.1074C108.722 98.0595 108.896 98.0352 109.063 98.0352C109.615 98.0352 110.048 98.1676 110.36 98.4316C110.672 98.6955 110.828 99.0196 110.828 99.4033C110.828 99.7393 110.738 100.04 110.558 100.304C110.39 100.568 110.155 100.886 109.855 101.258L108.002 103.525L110.936 107.72C110.84 108.164 110.63 108.517 110.306 108.781C109.994 109.033 109.568 109.159 109.028 109.159C108.68 109.159 108.38 109.075 108.128 108.907C107.876 108.727 107.617 108.428 107.354 108.008L105.896 105.704L103.628 109.124C103.532 109.136 103.442 109.142 103.358 109.142C103.274 109.154 103.189 109.159 103.105 109.159C102.422 109.159 101.918 109.022 101.594 108.746C101.27 108.47 101.108 108.128 101.108 107.72C101.108 107.372 101.18 107.071 101.324 106.819C101.48 106.555 101.696 106.249 101.972 105.901L103.862 103.472L101 99.4395C101.06 99.2715 101.144 99.1035 101.252 98.9355C101.36 98.7676 101.492 98.6173 101.647 98.4854C101.815 98.3414 102.008 98.2275 102.224 98.1436C102.44 98.0476 102.68 98 102.944 98ZM113.944 98C114.292 98.0001 114.598 98.0896 114.862 98.2695C115.126 98.4375 115.396 98.7316 115.672 99.1514L117.076 101.294L119.146 98.2334C119.242 98.1854 119.374 98.1434 119.542 98.1074C119.722 98.0595 119.896 98.0352 120.063 98.0352C120.615 98.0352 121.048 98.1676 121.36 98.4316C121.672 98.6955 121.828 99.0196 121.828 99.4033C121.828 99.7393 121.738 100.04 121.558 100.304C121.39 100.568 121.155 100.886 120.855 101.258L119.002 103.525L121.936 107.72C121.84 108.164 121.63 108.517 121.306 108.781C120.994 109.033 120.568 109.159 120.028 109.159C119.68 109.159 119.38 109.075 119.128 108.907C118.876 108.727 118.617 108.428 118.354 108.008L116.896 105.704L114.628 109.124C114.532 109.136 114.442 109.142 114.358 109.142C114.274 109.154 114.189 109.159 114.105 109.159C113.422 109.159 112.918 109.022 112.594 108.746C112.27 108.47 112.108 108.128 112.108 107.72C112.108 107.372 112.18 107.071 112.324 106.819C112.48 106.555 112.696 106.249 112.972 105.901L114.862 103.472L112 99.4395C112.06 99.2715 112.144 99.1035 112.252 98.9355C112.36 98.7676 112.492 98.6173 112.647 98.4854C112.815 98.3414 113.008 98.2275 113.224 98.1436C113.44 98.0476 113.68 98 113.944 98ZM12.9443 86C13.2922 86.0001 13.5984 86.0896 13.8623 86.2695C14.1262 86.4375 14.396 86.7316 14.6719 87.1514L16.0762 89.2939L18.1455 86.2334C18.2415 86.1854 18.374 86.1434 18.542 86.1074C18.7218 86.0595 18.8957 86.0352 19.0635 86.0352C19.6155 86.0352 20.0484 86.1676 20.3604 86.4316C20.6721 86.6955 20.828 87.0196 20.8281 87.4033C20.8281 87.7393 20.7376 88.0397 20.5576 88.3037C20.3896 88.5677 20.1554 88.8859 19.8555 89.2578L18.002 91.5254L20.9355 95.7197C20.8395 96.1636 20.6296 96.5173 20.3057 96.7812C19.9937 97.0332 19.5681 97.1591 19.0283 97.1592C18.6803 97.1592 18.3799 97.0752 18.1279 96.9072C17.876 96.7272 17.6174 96.4277 17.3535 96.0078L15.8955 93.7041L13.6279 97.124C13.5321 97.136 13.4423 97.1416 13.3584 97.1416C13.2744 97.1536 13.1895 97.1592 13.1055 97.1592C12.4218 97.1591 11.9177 97.022 11.5938 96.7461C11.2698 96.4701 11.1084 96.1277 11.1084 95.7197C11.1084 95.3717 11.1802 95.0713 11.3242 94.8193C11.4802 94.5554 11.6958 94.2492 11.9717 93.9014L13.8623 91.4717L11 87.4395C11.06 87.2715 11.144 87.1035 11.252 86.9355C11.3599 86.7676 11.4915 86.6173 11.6475 86.4854C11.8154 86.3414 12.0077 86.2275 12.2236 86.1436C12.4396 86.0476 12.6803 86 12.9443 86ZM23.4443 86C23.7922 86.0001 24.0984 86.0896 24.3623 86.2695C24.6262 86.4375 24.896 86.7316 25.1719 87.1514L26.5762 89.2939L28.6455 86.2334C28.7415 86.1854 28.874 86.1434 29.042 86.1074C29.2218 86.0595 29.3957 86.0352 29.5635 86.0352C30.1155 86.0352 30.5484 86.1676 30.8604 86.4316C31.1721 86.6955 31.328 87.0196 31.3281 87.4033C31.3281 87.7393 31.2376 88.0397 31.0576 88.3037C30.8896 88.5677 30.6554 88.8859 30.3555 89.2578L28.502 91.5254L31.4355 95.7197C31.3395 96.1636 31.1296 96.5173 30.8057 96.7812C30.4937 97.0332 30.0681 97.1591 29.5283 97.1592C29.1803 97.1592 28.8799 97.0752 28.6279 96.9072C28.376 96.7272 28.1174 96.4277 27.8535 96.0078L26.3955 93.7041L24.1279 97.124C24.0321 97.136 23.9423 97.1416 23.8584 97.1416C23.7744 97.1536 23.6895 97.1592 23.6055 97.1592C22.9218 97.1591 22.4177 97.022 22.0938 96.7461C21.7698 96.4701 21.6084 96.1277 21.6084 95.7197C21.6084 95.3717 21.6802 95.0713 21.8242 94.8193C21.9802 94.5554 22.1958 94.2492 22.4717 93.9014L24.3623 91.4717L21.5 87.4395C21.56 87.2715 21.644 87.1035 21.752 86.9355C21.8599 86.7676 21.9915 86.6173 22.1475 86.4854C22.3154 86.3414 22.5077 86.2275 22.7236 86.1436C22.9396 86.0476 23.1803 86 23.4443 86ZM35.4443 86C35.7922 86.0001 36.0984 86.0896 36.3623 86.2695C36.6262 86.4375 36.896 86.7316 37.1719 87.1514L38.5762 89.2939L40.6455 86.2334C40.7415 86.1854 40.874 86.1434 41.042 86.1074C41.2218 86.0595 41.3957 86.0352 41.5635 86.0352C42.1155 86.0352 42.5484 86.1676 42.8604 86.4316C43.1721 86.6955 43.328 87.0196 43.3281 87.4033C43.3281 87.7393 43.2376 88.0397 43.0576 88.3037C42.8896 88.5677 42.6554 88.8859 42.3555 89.2578L40.502 91.5254L43.4355 95.7197C43.3395 96.1636 43.1296 96.5173 42.8057 96.7812C42.4937 97.0332 42.0681 97.1591 41.5283 97.1592C41.1803 97.1592 40.8799 97.0752 40.6279 96.9072C40.376 96.7272 40.1174 96.4277 39.8535 96.0078L38.3955 93.7041L36.1279 97.124C36.0321 97.136 35.9423 97.1416 35.8584 97.1416C35.7744 97.1536 35.6895 97.1592 35.6055 97.1592C34.9218 97.1591 34.4177 97.022 34.0938 96.7461C33.7698 96.4701 33.6084 96.1277 33.6084 95.7197C33.6084 95.3717 33.6802 95.0713 33.8242 94.8193C33.9802 94.5554 34.1958 94.2492 34.4717 93.9014L36.3623 91.4717L33.5 87.4395C33.56 87.2715 33.644 87.1035 33.752 86.9355C33.8599 86.7676 33.9915 86.6173 34.1475 86.4854C34.3154 86.3414 34.5077 86.2275 34.7236 86.1436C34.9396 86.0476 35.1803 86 35.4443 86ZM46.4443 86C46.7922 86.0001 47.0984 86.0896 47.3623 86.2695C47.6262 86.4375 47.896 86.7316 48.1719 87.1514L49.5762 89.2939L51.6455 86.2334C51.7415 86.1854 51.874 86.1434 52.042 86.1074C52.2218 86.0595 52.3957 86.0352 52.5635 86.0352C53.1155 86.0352 53.5484 86.1676 53.8604 86.4316C54.1721 86.6955 54.328 87.0196 54.3281 87.4033C54.3281 87.7393 54.2376 88.0397 54.0576 88.3037C53.8896 88.5677 53.6554 88.8859 53.3555 89.2578L51.502 91.5254L54.4355 95.7197C54.3395 96.1636 54.1296 96.5173 53.8057 96.7812C53.4937 97.0332 53.0681 97.1591 52.5283 97.1592C52.1803 97.1592 51.8799 97.0752 51.6279 96.9072C51.376 96.7272 51.1174 96.4277 50.8535 96.0078L49.3955 93.7041L47.1279 97.124C47.0321 97.136 46.9423 97.1416 46.8584 97.1416C46.7744 97.1536 46.6895 97.1592 46.6055 97.1592C45.9218 97.1591 45.4177 97.022 45.0938 96.7461C44.7698 96.4701 44.6084 96.1277 44.6084 95.7197C44.6084 95.3717 44.6802 95.0713 44.8242 94.8193C44.9802 94.5554 45.1958 94.2492 45.4717 93.9014L47.3623 91.4717L44.5 87.4395C44.56 87.2715 44.644 87.1035 44.752 86.9355C44.8599 86.7676 44.9915 86.6173 45.1475 86.4854C45.3154 86.3414 45.5077 86.2275 45.7236 86.1436C45.9396 86.0476 46.1803 86 46.4443 86ZM113.944 86C114.292 86.0001 114.598 86.0896 114.862 86.2695C115.126 86.4375 115.396 86.7316 115.672 87.1514L117.076 89.2939L119.146 86.2334C119.242 86.1854 119.374 86.1434 119.542 86.1074C119.722 86.0595 119.896 86.0352 120.063 86.0352C120.615 86.0352 121.048 86.1676 121.36 86.4316C121.672 86.6955 121.828 87.0196 121.828 87.4033C121.828 87.7393 121.738 88.0397 121.558 88.3037C121.39 88.5677 121.155 88.8859 120.855 89.2578L119.002 91.5254L121.936 95.7197C121.84 96.1636 121.63 96.5173 121.306 96.7812C120.994 97.0332 120.568 97.1591 120.028 97.1592C119.68 97.1592 119.38 97.0752 119.128 96.9072C118.876 96.7272 118.617 96.4277 118.354 96.0078L116.896 93.7041L114.628 97.124C114.532 97.136 114.442 97.1416 114.358 97.1416C114.274 97.1536 114.189 97.1592 114.105 97.1592C113.422 97.1591 112.918 97.022 112.594 96.7461C112.27 96.4701 112.108 96.1277 112.108 95.7197C112.108 95.3717 112.18 95.0713 112.324 94.8193C112.48 94.5554 112.696 94.2492 112.972 93.9014L114.862 91.4717L112 87.4395C112.06 87.2715 112.144 87.1035 112.252 86.9355C112.36 86.7676 112.492 86.6173 112.647 86.4854C112.815 86.3414 113.008 86.2275 113.224 86.1436C113.44 86.0476 113.68 86 113.944 86ZM46.4443 62C46.7922 62.0001 47.0984 62.0896 47.3623 62.2695C47.6262 62.4375 47.896 62.7316 48.1719 63.1514L49.5762 65.2939L51.6455 62.2334C51.7415 62.1854 51.874 62.1434 52.042 62.1074C52.2218 62.0595 52.3957 62.0352 52.5635 62.0352C53.1155 62.0352 53.5484 62.1676 53.8604 62.4316C54.1721 62.6955 54.328 63.0196 54.3281 63.4033C54.3281 63.7393 54.2376 64.0397 54.0576 64.3037C53.8896 64.5677 53.6554 64.8859 53.3555 65.2578L51.502 67.5254L54.4355 71.7197C54.3395 72.1636 54.1296 72.5173 53.8057 72.7812C53.6229 72.9289 53.4007 73.0316 53.1396 73.0928C53.426 73.1549 53.6666 73.2677 53.8604 73.4316C54.1721 73.6955 54.328 74.0196 54.3281 74.4033C54.3281 74.7393 54.2376 75.0397 54.0576 75.3037C53.8896 75.5677 53.6554 75.8859 53.3555 76.2578L51.502 78.5254L54.4355 82.7197C54.3395 83.1636 54.1296 83.5173 53.8057 83.7812C53.4937 84.0332 53.0681 84.1591 52.5283 84.1592C52.1803 84.1592 51.8799 84.0752 51.6279 83.9072C51.376 83.7272 51.1174 83.4277 50.8535 83.0078L49.3955 80.7041L47.1279 84.124C47.0321 84.136 46.9423 84.1416 46.8584 84.1416C46.7744 84.1536 46.6895 84.1592 46.6055 84.1592C45.9218 84.1591 45.4177 84.022 45.0938 83.7461C44.7698 83.4701 44.6084 83.1277 44.6084 82.7197C44.6084 82.3717 44.6802 82.0713 44.8242 81.8193C44.9802 81.5554 45.1958 81.2492 45.4717 80.9014L47.3623 78.4717L44.5 74.4395C44.56 74.2715 44.644 74.1035 44.752 73.9355C44.8599 73.7676 44.9915 73.6173 45.1475 73.4854C45.3154 73.3414 45.5077 73.2275 45.7236 73.1436C45.7693 73.1233 45.8165 73.1058 45.8643 73.0898C45.5439 73.0234 45.2866 72.9103 45.0938 72.7461C44.7698 72.4701 44.6084 72.1277 44.6084 71.7197C44.6084 71.3717 44.6802 71.0713 44.8242 70.8193C44.9802 70.5554 45.1958 70.2492 45.4717 69.9014L47.3623 67.4717L44.5 63.4395C44.56 63.2715 44.644 63.1035 44.752 62.9355C44.8599 62.7676 44.9915 62.6173 45.1475 62.4854C45.3154 62.3414 45.5077 62.2275 45.7236 62.1436C45.9396 62.0476 46.1803 62 46.4443 62ZM113.944 62C114.292 62.0001 114.598 62.0896 114.862 62.2695C115.126 62.4375 115.396 62.7316 115.672 63.1514L117.076 65.2939L119.146 62.2334C119.242 62.1854 119.374 62.1434 119.542 62.1074C119.722 62.0595 119.896 62.0352 120.063 62.0352C120.615 62.0352 121.048 62.1676 121.36 62.4316C121.672 62.6955 121.828 63.0196 121.828 63.4033C121.828 63.7393 121.738 64.0397 121.558 64.3037C121.39 64.5677 121.155 64.8859 120.855 65.2578L119.002 67.5254L121.936 71.7197C121.84 72.1636 121.63 72.5173 121.306 72.7812C121.123 72.9289 120.901 73.0316 120.64 73.0928C120.926 73.1549 121.167 73.2677 121.36 73.4316C121.672 73.6955 121.828 74.0196 121.828 74.4033C121.828 74.7393 121.738 75.0397 121.558 75.3037C121.39 75.5677 121.155 75.8859 120.855 76.2578L119.002 78.5254L121.936 82.7197C121.84 83.1636 121.63 83.5173 121.306 83.7812C120.994 84.0332 120.568 84.1591 120.028 84.1592C119.68 84.1592 119.38 84.0752 119.128 83.9072C118.876 83.7272 118.617 83.4277 118.354 83.0078L116.896 80.7041L114.628 84.124C114.532 84.136 114.442 84.1416 114.358 84.1416C114.274 84.1536 114.189 84.1592 114.105 84.1592C113.422 84.1591 112.918 84.022 112.594 83.7461C112.27 83.4701 112.108 83.1277 112.108 82.7197C112.108 82.3717 112.18 82.0713 112.324 81.8193C112.48 81.5554 112.696 81.2492 112.972 80.9014L114.862 78.4717L112 74.4395C112.06 74.2715 112.144 74.1035 112.252 73.9355C112.36 73.7676 112.492 73.6173 112.647 73.4854C112.815 73.3414 113.008 73.2275 113.224 73.1436C113.269 73.1233 113.316 73.1058 113.364 73.0898C113.044 73.0234 112.787 72.9103 112.594 72.7461C112.27 72.4701 112.108 72.1277 112.108 71.7197C112.108 71.3717 112.18 71.0713 112.324 70.8193C112.48 70.5554 112.696 70.2492 112.972 69.9014L114.862 67.4717L112 63.4395C112.06 63.2715 112.144 63.1035 112.252 62.9355C112.36 62.7676 112.492 62.6173 112.647 62.4854C112.815 62.3414 113.008 62.2275 113.224 62.1436C113.44 62.0476 113.68 62 113.944 62ZM47.1279 73.124C47.1175 73.1253 47.107 73.1248 47.0967 73.126C47.1892 73.165 47.2783 73.2122 47.3623 73.2695C47.6262 73.4375 47.896 73.7316 48.1719 74.1514L49.5762 76.2939L51.6455 73.2334C51.6936 73.2093 51.7512 73.1871 51.8174 73.166L52.0645 73.1016C51.9058 73.0597 51.7601 72.9954 51.6279 72.9072C51.376 72.7272 51.1174 72.4277 50.8535 72.0078L49.3955 69.7041L47.1279 73.124ZM114.628 73.124C114.618 73.1253 114.607 73.1248 114.597 73.126C114.689 73.165 114.778 73.2122 114.862 73.2695C115.126 73.4375 115.396 73.7316 115.672 74.1514L117.076 76.2939L119.146 73.2334C119.194 73.2093 119.251 73.1871 119.317 73.166L119.564 73.1016C119.406 73.0597 119.26 72.9954 119.128 72.9072C118.876 72.7272 118.617 72.4277 118.354 72.0078L116.896 69.7041L114.628 73.124ZM46.4443 49C46.7922 49.0001 47.0984 49.0896 47.3623 49.2695C47.6262 49.4375 47.896 49.7316 48.1719 50.1514L49.5762 52.2939L51.6455 49.2334C51.7415 49.1854 51.874 49.1434 52.042 49.1074C52.2218 49.0595 52.3957 49.0352 52.5635 49.0352C53.1155 49.0352 53.5484 49.1676 53.8604 49.4316C54.1721 49.6955 54.328 50.0196 54.3281 50.4033C54.3281 50.7393 54.2376 51.0397 54.0576 51.3037C53.8896 51.5677 53.6554 51.8859 53.3555 52.2578L51.502 54.5254L54.4355 58.7197C54.3395 59.1636 54.1296 59.5173 53.8057 59.7812C53.4937 60.0332 53.0681 60.1591 52.5283 60.1592C52.1803 60.1592 51.8799 60.0752 51.6279 59.9072C51.376 59.7272 51.1174 59.4277 50.8535 59.0078L49.3955 56.7041L47.1279 60.124C47.0321 60.136 46.9423 60.1416 46.8584 60.1416C46.7744 60.1536 46.6895 60.1592 46.6055 60.1592C45.9218 60.1591 45.4177 60.022 45.0938 59.7461C44.7698 59.4701 44.6084 59.1277 44.6084 58.7197C44.6084 58.3717 44.6802 58.0713 44.8242 57.8193C44.9802 57.5554 45.1958 57.2492 45.4717 56.9014L47.3623 54.4717L44.5 50.4395C44.56 50.2715 44.644 50.1035 44.752 49.9355C44.8599 49.7676 44.9915 49.6173 45.1475 49.4854C45.3154 49.3414 45.5077 49.2275 45.7236 49.1436C45.9396 49.0476 46.1803 49 46.4443 49ZM113.944 49C114.292 49.0001 114.598 49.0896 114.862 49.2695C115.126 49.4375 115.396 49.7316 115.672 50.1514L117.076 52.2939L119.146 49.2334C119.242 49.1854 119.374 49.1434 119.542 49.1074C119.722 49.0595 119.896 49.0352 120.063 49.0352C120.615 49.0352 121.048 49.1676 121.36 49.4316C121.672 49.6955 121.828 50.0196 121.828 50.4033C121.828 50.7393 121.738 51.0397 121.558 51.3037C121.39 51.5677 121.155 51.8859 120.855 52.2578L119.002 54.5254L121.936 58.7197C121.84 59.1636 121.63 59.5173 121.306 59.7812C120.994 60.0332 120.568 60.1591 120.028 60.1592C119.68 60.1592 119.38 60.0752 119.128 59.9072C118.876 59.7272 118.617 59.4277 118.354 59.0078L116.896 56.7041L114.628 60.124C114.532 60.136 114.442 60.1416 114.358 60.1416C114.274 60.1536 114.189 60.1592 114.105 60.1592C113.422 60.1591 112.918 60.022 112.594 59.7461C112.27 59.4701 112.108 59.1277 112.108 58.7197C112.108 58.3717 112.18 58.0713 112.324 57.8193C112.48 57.5554 112.696 57.2492 112.972 56.9014L114.862 54.4717L112 50.4395C112.06 50.2715 112.144 50.1035 112.252 49.9355C112.36 49.7676 112.492 49.6173 112.647 49.4854C112.815 49.3414 113.008 49.2275 113.224 49.1436C113.44 49.0476 113.68 49 113.944 49ZM46.4443 37C46.7922 37.0001 47.0984 37.0896 47.3623 37.2695C47.6262 37.4375 47.896 37.7316 48.1719 38.1514L49.5762 40.2939L51.6455 37.2334C51.7415 37.1854 51.874 37.1434 52.042 37.1074C52.2218 37.0595 52.3957 37.0352 52.5635 37.0352C53.1155 37.0352 53.5484 37.1676 53.8604 37.4316C54.1721 37.6955 54.328 38.0196 54.3281 38.4033C54.3281 38.7393 54.2376 39.0397 54.0576 39.3037C53.8896 39.5677 53.6554 39.8859 53.3555 40.2578L51.502 42.5254L54.4355 46.7197C54.3395 47.1636 54.1296 47.5173 53.8057 47.7812C53.4937 48.0332 53.0681 48.1591 52.5283 48.1592C52.1803 48.1592 51.8799 48.0752 51.6279 47.9072C51.376 47.7272 51.1174 47.4277 50.8535 47.0078L49.3955 44.7041L47.1279 48.124C47.0321 48.136 46.9423 48.1416 46.8584 48.1416C46.7744 48.1536 46.6895 48.1592 46.6055 48.1592C45.9218 48.1591 45.4177 48.022 45.0938 47.7461C44.7698 47.4701 44.6084 47.1277 44.6084 46.7197C44.6084 46.3717 44.6802 46.0713 44.8242 45.8193C44.9802 45.5554 45.1958 45.2492 45.4717 44.9014L47.3623 42.4717L44.5 38.4395C44.56 38.2715 44.644 38.1035 44.752 37.9355C44.8599 37.7676 44.9915 37.6173 45.1475 37.4854C45.3154 37.3414 45.5077 37.2275 45.7236 37.1436C45.9396 37.0476 46.1803 37 46.4443 37ZM113.944 37C114.292 37.0001 114.598 37.0896 114.862 37.2695C115.126 37.4375 115.396 37.7316 115.672 38.1514L117.076 40.2939L119.146 37.2334C119.242 37.1854 119.374 37.1434 119.542 37.1074C119.722 37.0595 119.896 37.0352 120.063 37.0352C120.615 37.0352 121.048 37.1676 121.36 37.4316C121.672 37.6955 121.828 38.0196 121.828 38.4033C121.828 38.7393 121.738 39.0397 121.558 39.3037C121.39 39.5677 121.155 39.8859 120.855 40.2578L119.002 42.5254L121.936 46.7197C121.84 47.1636 121.63 47.5173 121.306 47.7812C120.994 48.0332 120.568 48.1591 120.028 48.1592C119.68 48.1592 119.38 48.0752 119.128 47.9072C118.876 47.7272 118.617 47.4277 118.354 47.0078L116.896 44.7041L114.628 48.124C114.532 48.136 114.442 48.1416 114.358 48.1416C114.274 48.1536 114.189 48.1592 114.105 48.1592C113.422 48.1591 112.918 48.022 112.594 47.7461C112.27 47.4701 112.108 47.1277 112.108 46.7197C112.108 46.3717 112.18 46.0713 112.324 45.8193C112.48 45.5554 112.696 45.2492 112.972 44.9014L114.862 42.4717L112 38.4395C112.06 38.2715 112.144 38.1035 112.252 37.9355C112.36 37.7676 112.492 37.6173 112.647 37.4854C112.815 37.3414 113.008 37.2275 113.224 37.1436C113.44 37.0476 113.68 37 113.944 37ZM46.4443 13C46.7922 13.0001 47.0984 13.0896 47.3623 13.2695C47.6262 13.4375 47.896 13.7316 48.1719 14.1514L49.5762 16.2939L51.6455 13.2334C51.7415 13.1854 51.874 13.1434 52.042 13.1074C52.2218 13.0595 52.3957 13.0352 52.5635 13.0352C53.1155 13.0352 53.5484 13.1676 53.8604 13.4316C54.1721 13.6955 54.328 14.0196 54.3281 14.4033C54.3281 14.7393 54.2376 15.0397 54.0576 15.3037C53.8896 15.5677 53.6554 15.8859 53.3555 16.2578L51.502 18.5254L54.4355 22.7197C54.3395 23.1636 54.1296 23.5173 53.8057 23.7812C53.6229 23.9289 53.4007 24.0316 53.1396 24.0928C53.426 24.1549 53.6666 24.2677 53.8604 24.4316C54.1721 24.6955 54.328 25.0196 54.3281 25.4033C54.3281 25.7393 54.2376 26.0397 54.0576 26.3037C53.8896 26.5677 53.6554 26.8859 53.3555 27.2578L51.502 29.5254L54.4355 33.7197C54.3395 34.1636 54.1296 34.5173 53.8057 34.7812C53.4937 35.0332 53.0681 35.1591 52.5283 35.1592C52.1803 35.1592 51.8799 35.0752 51.6279 34.9072C51.376 34.7272 51.1174 34.4277 50.8535 34.0078L49.3955 31.7041L47.1279 35.124C47.0321 35.136 46.9423 35.1416 46.8584 35.1416C46.7744 35.1536 46.6895 35.1592 46.6055 35.1592C45.9218 35.1591 45.4177 35.022 45.0938 34.7461C44.7698 34.4701 44.6084 34.1277 44.6084 33.7197C44.6084 33.3717 44.6802 33.0713 44.8242 32.8193C44.9802 32.5554 45.1958 32.2492 45.4717 31.9014L47.3623 29.4717L44.5 25.4395C44.56 25.2715 44.644 25.1035 44.752 24.9355C44.8599 24.7676 44.9915 24.6173 45.1475 24.4854C45.3154 24.3414 45.5077 24.2275 45.7236 24.1436C45.7693 24.1233 45.8165 24.1058 45.8643 24.0898C45.5439 24.0234 45.2866 23.9103 45.0938 23.7461C44.7698 23.4701 44.6084 23.1277 44.6084 22.7197C44.6084 22.3717 44.6802 22.0713 44.8242 21.8193C44.9802 21.5554 45.1958 21.2492 45.4717 20.9014L47.3623 18.4717L44.5 14.4395C44.56 14.2715 44.644 14.1035 44.752 13.9355C44.8599 13.7676 44.9915 13.6173 45.1475 13.4854C45.3154 13.3414 45.5077 13.2275 45.7236 13.1436C45.9396 13.0476 46.1803 13 46.4443 13ZM113.944 13C114.292 13.0001 114.598 13.0896 114.862 13.2695C115.126 13.4375 115.396 13.7316 115.672 14.1514L117.076 16.2939L119.146 13.2334C119.242 13.1854 119.374 13.1434 119.542 13.1074C119.722 13.0595 119.896 13.0352 120.063 13.0352C120.615 13.0352 121.048 13.1676 121.36 13.4316C121.672 13.6955 121.828 14.0196 121.828 14.4033C121.828 14.7393 121.738 15.0397 121.558 15.3037C121.39 15.5677 121.155 15.8859 120.855 16.2578L119.002 18.5254L121.936 22.7197C121.84 23.1636 121.63 23.5173 121.306 23.7812C121.123 23.9289 120.901 24.0316 120.64 24.0928C120.926 24.1549 121.167 24.2677 121.36 24.4316C121.672 24.6955 121.828 25.0196 121.828 25.4033C121.828 25.7393 121.738 26.0397 121.558 26.3037C121.39 26.5677 121.155 26.8859 120.855 27.2578L119.002 29.5254L121.936 33.7197C121.84 34.1636 121.63 34.5173 121.306 34.7812C120.994 35.0332 120.568 35.1591 120.028 35.1592C119.68 35.1592 119.38 35.0752 119.128 34.9072C118.876 34.7272 118.617 34.4277 118.354 34.0078L116.896 31.7041L114.628 35.124C114.532 35.136 114.442 35.1416 114.358 35.1416C114.274 35.1536 114.189 35.1592 114.105 35.1592C113.422 35.1591 112.918 35.022 112.594 34.7461C112.27 34.4701 112.108 34.1277 112.108 33.7197C112.108 33.3717 112.18 33.0713 112.324 32.8193C112.48 32.5554 112.696 32.2492 112.972 31.9014L114.862 29.4717L112 25.4395C112.06 25.2715 112.144 25.1035 112.252 24.9355C112.36 24.7676 112.492 24.6173 112.647 24.4854C112.815 24.3414 113.008 24.2275 113.224 24.1436C113.269 24.1233 113.316 24.1058 113.364 24.0898C113.044 24.0234 112.787 23.9103 112.594 23.7461C112.27 23.4701 112.108 23.1277 112.108 22.7197C112.108 22.3717 112.18 22.0713 112.324 21.8193C112.48 21.5554 112.696 21.2492 112.972 20.9014L114.862 18.4717L112 14.4395C112.06 14.2715 112.144 14.1035 112.252 13.9355C112.36 13.7676 112.492 13.6173 112.647 13.4854C112.815 13.3414 113.008 13.2275 113.224 13.1436C113.44 13.0476 113.68 13 113.944 13ZM47.1279 24.124C47.1175 24.1253 47.107 24.1248 47.0967 24.126C47.1892 24.165 47.2783 24.2122 47.3623 24.2695C47.6262 24.4375 47.896 24.7316 48.1719 25.1514L49.5762 27.2939L51.6455 24.2334C51.6936 24.2093 51.7512 24.1871 51.8174 24.166L52.0645 24.1016C51.9058 24.0597 51.7601 23.9954 51.6279 23.9072C51.376 23.7272 51.1174 23.4277 50.8535 23.0078L49.3955 20.7041L47.1279 24.124ZM114.628 24.124C114.618 24.1253 114.607 24.1248 114.597 24.126C114.689 24.165 114.778 24.2122 114.862 24.2695C115.126 24.4375 115.396 24.7316 115.672 25.1514L117.076 27.2939L119.146 24.2334C119.194 24.2093 119.251 24.1871 119.317 24.166L119.564 24.1016C119.406 24.0597 119.26 23.9954 119.128 23.9072C118.876 23.7272 118.617 23.4277 118.354 23.0078L116.896 20.7041L114.628 24.124ZM46.4443 0C46.7922 6.86483e-05 47.0984 0.0895994 47.3623 0.269531C47.6262 0.437527 47.896 0.731595 48.1719 1.15137L49.5762 3.29395L51.6455 0.233398C51.7415 0.185398 51.874 0.143421 52.042 0.107422C52.2218 0.0594836 52.3957 0.0352001 52.5635 0.0351562C53.1155 0.0351562 53.5484 0.16764 53.8604 0.431641C54.1721 0.695532 54.328 1.01956 54.3281 1.40332C54.3281 1.73932 54.2376 2.03971 54.0576 2.30371C53.8896 2.56767 53.6554 2.88591 53.3555 3.25781L51.502 5.52539L54.4355 9.71973C54.3395 10.1636 54.1296 10.5173 53.8057 10.7812C53.4937 11.0332 53.0681 11.1591 52.5283 11.1592C52.1803 11.1592 51.8799 11.0752 51.6279 10.9072C51.376 10.7272 51.1174 10.4277 50.8535 10.0078L49.3955 7.7041L47.1279 11.124C47.0321 11.136 46.9423 11.1416 46.8584 11.1416C46.7744 11.1536 46.6895 11.1592 46.6055 11.1592C45.9218 11.1591 45.4177 11.022 45.0938 10.7461C44.7698 10.4701 44.6084 10.1277 44.6084 9.71973C44.6084 9.37173 44.6802 9.07134 44.8242 8.81934C44.9802 8.55541 45.1958 8.24922 45.4717 7.90137L47.3623 5.47168L44.5 1.43945C44.56 1.27151 44.644 1.10349 44.752 0.935547C44.8599 0.767624 44.9915 0.617306 45.1475 0.485352C45.3154 0.341406 45.5077 0.227546 45.7236 0.143555C45.9396 0.0475545 46.1803 0 46.4443 0ZM57.9443 0C58.2922 6.86483e-05 58.5984 0.0895994 58.8623 0.269531C59.1262 0.437527 59.396 0.731595 59.6719 1.15137L61.0762 3.29395L63.1455 0.233398C63.2415 0.185398 63.374 0.143421 63.542 0.107422C63.7218 0.0594836 63.8957 0.0352001 64.0635 0.0351562C64.6155 0.0351562 65.0484 0.16764 65.3604 0.431641C65.6721 0.695532 65.828 1.01956 65.8281 1.40332C65.8281 1.73932 65.7376 2.03971 65.5576 2.30371C65.3896 2.56767 65.1554 2.88591 64.8555 3.25781L63.002 5.52539L65.9355 9.71973C65.8395 10.1636 65.6296 10.5173 65.3057 10.7812C64.9937 11.0332 64.5681 11.1591 64.0283 11.1592C63.6803 11.1592 63.3799 11.0752 63.1279 10.9072C62.876 10.7272 62.6174 10.4277 62.3535 10.0078L60.8955 7.7041L58.6279 11.124C58.5321 11.136 58.4423 11.1416 58.3584 11.1416C58.2744 11.1536 58.1895 11.1592 58.1055 11.1592C57.4218 11.1591 56.9177 11.022 56.5938 10.7461C56.2698 10.4701 56.1084 10.1277 56.1084 9.71973C56.1084 9.37173 56.1802 9.07134 56.3242 8.81934C56.4802 8.55541 56.6958 8.24922 56.9717 7.90137L58.8623 5.47168L56 1.43945C56.06 1.27151 56.144 1.10349 56.252 0.935547C56.3599 0.767624 56.4915 0.617306 56.6475 0.485352C56.8154 0.341406 57.0077 0.227546 57.2236 0.143555C57.4396 0.0475545 57.6803 0 57.9443 0ZM69.4443 0C69.7922 6.86483e-05 70.0984 0.0895994 70.3623 0.269531C70.6262 0.437527 70.896 0.731595 71.1719 1.15137L72.5762 3.29395L74.6455 0.233398C74.7415 0.185398 74.874 0.143421 75.042 0.107422C75.2218 0.0594836 75.3957 0.0352001 75.5635 0.0351562C76.1155 0.0351562 76.5484 0.16764 76.8604 0.431641C77.1721 0.695532 77.328 1.01956 77.3281 1.40332C77.3281 1.73932 77.2376 2.03971 77.0576 2.30371C76.8896 2.56767 76.6554 2.88591 76.3555 3.25781L74.502 5.52539L77.4355 9.71973C77.3395 10.1636 77.1296 10.5173 76.8057 10.7812C76.4937 11.0332 76.0681 11.1591 75.5283 11.1592C75.1803 11.1592 74.8799 11.0752 74.6279 10.9072C74.376 10.7272 74.1174 10.4277 73.8535 10.0078L72.3955 7.7041L70.1279 11.124C70.0321 11.136 69.9423 11.1416 69.8584 11.1416C69.7744 11.1536 69.6895 11.1592 69.6055 11.1592C68.9218 11.1591 68.4177 11.022 68.0938 10.7461C67.7698 10.4701 67.6084 10.1277 67.6084 9.71973C67.6084 9.37173 67.6802 9.07134 67.8242 8.81934C67.9802 8.55541 68.1958 8.24922 68.4717 7.90137L70.3623 5.47168L67.5 1.43945C67.56 1.27151 67.644 1.10349 67.752 0.935547C67.8599 0.767624 67.9915 0.617306 68.1475 0.485352C68.3154 0.341406 68.5077 0.227546 68.7236 0.143555C68.9396 0.0475545 69.1803 0 69.4443 0ZM80.4443 0C80.7922 6.86483e-05 81.0984 0.0895994 81.3623 0.269531C81.6262 0.437527 81.896 0.731595 82.1719 1.15137L83.5762 3.29395L85.6455 0.233398C85.7415 0.185398 85.874 0.143421 86.042 0.107422C86.2218 0.0594836 86.3957 0.0352001 86.5635 0.0351562C87.1155 0.0351562 87.5484 0.16764 87.8604 0.431641C88.1721 0.695532 88.328 1.01956 88.3281 1.40332C88.3281 1.73932 88.2376 2.03971 88.0576 2.30371C87.8896 2.56767 87.6554 2.88591 87.3555 3.25781L85.502 5.52539L88.4355 9.71973C88.3395 10.1636 88.1296 10.5173 87.8057 10.7812C87.4937 11.0332 87.0681 11.1591 86.5283 11.1592C86.1803 11.1592 85.8799 11.0752 85.6279 10.9072C85.376 10.7272 85.1174 10.4277 84.8535 10.0078L83.3955 7.7041L81.1279 11.124C81.0321 11.136 80.9423 11.1416 80.8584 11.1416C80.7744 11.1536 80.6895 11.1592 80.6055 11.1592C79.9218 11.1591 79.4177 11.022 79.0938 10.7461C78.7698 10.4701 78.6084 10.1277 78.6084 9.71973C78.6084 9.37173 78.6802 9.07134 78.8242 8.81934C78.9802 8.55541 79.1958 8.24922 79.4717 7.90137L81.3623 5.47168L78.5 1.43945C78.56 1.27151 78.644 1.10349 78.752 0.935547C78.8599 0.767624 78.9915 0.617306 79.1475 0.485352C79.3154 0.341406 79.5077 0.227546 79.7236 0.143555C79.9396 0.0475545 80.1803 0 80.4443 0ZM92.4443 0C92.7922 6.86483e-05 93.0984 0.0895994 93.3623 0.269531C93.6262 0.437527 93.896 0.731595 94.1719 1.15137L95.5762 3.29395L97.6455 0.233398C97.7415 0.185398 97.874 0.143421 98.042 0.107422C98.2218 0.0594836 98.3957 0.0352001 98.5635 0.0351562C99.1155 0.0351562 99.5484 0.16764 99.8604 0.431641C100.172 0.695532 100.328 1.01956 100.328 1.40332C100.328 1.73932 100.238 2.03971 100.058 2.30371C99.8896 2.56767 99.6554 2.88591 99.3555 3.25781L97.502 5.52539L100.436 9.71973C100.34 10.1636 100.13 10.5173 99.8057 10.7812C99.4937 11.0332 99.0681 11.1591 98.5283 11.1592C98.1803 11.1592 97.8799 11.0752 97.6279 10.9072C97.376 10.7272 97.1174 10.4277 96.8535 10.0078L95.3955 7.7041L93.1279 11.124C93.0321 11.136 92.9423 11.1416 92.8584 11.1416C92.7744 11.1536 92.6895 11.1592 92.6055 11.1592C91.9218 11.1591 91.4177 11.022 91.0938 10.7461C90.7698 10.4701 90.6084 10.1277 90.6084 9.71973C90.6084 9.37173 90.6802 9.07134 90.8242 8.81934C90.9802 8.55541 91.1958 8.24922 91.4717 7.90137L93.3623 5.47168L90.5 1.43945C90.56 1.27151 90.644 1.10349 90.752 0.935547C90.8599 0.767624 90.9915 0.617306 91.1475 0.485352C91.3154 0.341406 91.5077 0.227546 91.7236 0.143555C91.9396 0.0475545 92.1803 0 92.4443 0ZM102.944 0C103.292 6.86483e-05 103.598 0.0895994 103.862 0.269531C104.126 0.437527 104.396 0.731595 104.672 1.15137L106.076 3.29395L108.146 0.233398C108.242 0.185398 108.374 0.143421 108.542 0.107422C108.722 0.0594836 108.896 0.0352001 109.063 0.0351562C109.615 0.0351562 110.048 0.16764 110.36 0.431641C110.672 0.695532 110.828 1.01956 110.828 1.40332C110.828 1.73932 110.738 2.03971 110.558 2.30371C110.39 2.56767 110.155 2.88591 109.855 3.25781L108.002 5.52539L110.936 9.71973C110.84 10.1636 110.63 10.5173 110.306 10.7812C109.994 11.0332 109.568 11.1591 109.028 11.1592C108.68 11.1592 108.38 11.0752 108.128 10.9072C107.876 10.7272 107.617 10.4277 107.354 10.0078L105.896 7.7041L103.628 11.124C103.532 11.136 103.442 11.1416 103.358 11.1416C103.274 11.1536 103.189 11.1592 103.105 11.1592C102.422 11.1591 101.918 11.022 101.594 10.7461C101.27 10.4701 101.108 10.1277 101.108 9.71973C101.108 9.37173 101.18 9.07134 101.324 8.81934C101.48 8.55541 101.696 8.24922 101.972 7.90137L103.862 5.47168L101 1.43945C101.06 1.27151 101.144 1.10349 101.252 0.935547C101.36 0.767624 101.492 0.617306 101.647 0.485352C101.815 0.341406 102.008 0.227546 102.224 0.143555C102.44 0.0475545 102.68 0 102.944 0ZM113.944 0C114.292 6.86483e-05 114.598 0.0895994 114.862 0.269531C115.126 0.437527 115.396 0.731595 115.672 1.15137L117.076 3.29395L119.146 0.233398C119.242 0.185398 119.374 0.143421 119.542 0.107422C119.722 0.0594836 119.896 0.0352001 120.063 0.0351562C120.615 0.0351562 121.048 0.16764 121.36 0.431641C121.672 0.695532 121.828 1.01956 121.828 1.40332C121.828 1.73932 121.738 2.03971 121.558 2.30371C121.39 2.56767 121.155 2.88591 120.855 3.25781L119.002 5.52539L121.936 9.71973C121.84 10.1636 121.63 10.5173 121.306 10.7812C120.994 11.0332 120.568 11.1591 120.028 11.1592C119.68 11.1592 119.38 11.0752 119.128 10.9072C118.876 10.7272 118.617 10.4277 118.354 10.0078L116.896 7.7041L114.628 11.124C114.532 11.136 114.442 11.1416 114.358 11.1416C114.274 11.1536 114.189 11.1592 114.105 11.1592C113.422 11.1591 112.918 11.022 112.594 10.7461C112.27 10.4701 112.108 10.1277 112.108 9.71973C112.108 9.37173 112.18 9.07134 112.324 8.81934C112.48 8.55541 112.696 8.24922 112.972 7.90137L114.862 5.47168L112 1.43945C112.06 1.27151 112.144 1.10349 112.252 0.935547C112.36 0.767624 112.492 0.617306 112.647 0.485352C112.815 0.341406 113.008 0.227546 113.224 0.143555C113.44 0.0475545 113.68 0 113.944 0Z" fill="#A4CCFF"/>
</svg>
