<svg width="184" height="196" viewBox="0 0 184 196" fill="none" xmlns="http://www.w3.org/2000/svg">
<path fill-rule="evenodd" clip-rule="evenodd" d="M39.7117 2.15254C42.7646 0.49035 46.1717 -0.249308 50.0574 0.0744187C53.2385 0.339513 56.1023 1.16178 58.6746 2.75118C61.2299 4.33021 63.2316 6.50201 64.9354 9.07344C69.7391 16.3239 68.7057 25.0696 68.1678 31.4377C67.8595 35.0875 67.3742 37.9468 66.3485 40.7561C65.3365 43.5273 63.8801 46.0204 61.9696 48.9924C57.2533 56.3288 55.0399 58.3623 50.5858 63.5051C46.2 68.5689 42.99 71.6262 38.9627 75.633C40.2081 79.9998 41.7273 84.6328 43.4774 90.2121C44.1562 92.3764 44.8296 94.3233 45.5028 96.1486C45.976 96.12 46.454 96.0922 46.9364 96.0656C55.3558 95.6021 62.8372 95.6589 70.5653 102.103C72.9957 104.129 75.1786 106.241 76.8582 108.825C78.5791 111.473 79.6371 114.405 80.1385 117.924C80.6114 121.243 80.4666 124.172 79.6766 127.044C78.9058 129.846 77.5789 132.371 76.0184 134.913C74.0557 138.11 70.7039 140.912 68.2567 142.734C66.9647 143.695 65.7787 144.489 64.9149 145.043C64.5205 145.296 64.1883 145.5 63.9412 145.651C65.8477 151.057 67.7863 156.506 67.6834 163.624C67.6312 167.235 67.5492 170.573 66.7625 173.888C65.9459 177.329 64.4348 180.523 61.8543 184.162C60.1152 186.615 58.2937 188.598 56.0535 190.211C53.8245 191.817 51.383 192.911 48.5955 193.832C41.0807 196.315 34.0114 195.618 27.3387 195.046C27.2787 195.042 27.199 195.038 27.1033 195.03C26.9029 195.016 26.626 194.992 26.2918 194.956C25.6282 194.885 24.7072 194.763 23.6844 194.555C21.8966 194.191 18.8005 193.382 16.6199 191.355C14.9679 189.819 13.5582 187.99 12.7362 185.762C11.8996 183.494 11.7827 181.113 12.2713 178.675C12.7094 176.489 13.559 174.397 15.0438 172.615C16.543 170.816 18.4832 169.582 20.7049 168.809L20.8035 168.775L20.9031 168.745L22.1834 173.059C20.961 168.942 20.9062 168.754 20.9041 168.745H20.9051L20.9061 168.744C20.9073 168.744 20.9095 168.744 20.911 168.743C20.914 168.742 20.9178 168.741 20.9217 168.739C20.9296 168.737 20.9397 168.734 20.951 168.731C20.9742 168.724 21.0054 168.716 21.0418 168.705C21.1149 168.685 21.2146 168.657 21.3348 168.625C21.5734 168.562 21.9066 168.478 22.2899 168.396C22.9531 168.253 24.1544 168.024 25.3289 168.062C26.7672 168.108 27.8685 168.292 29.3416 168.875C34.4207 170.888 35.8442 175.265 36.578 178.589C37.0558 180.754 36.7066 182.845 36.2108 184.489C35.9934 185.21 35.7262 185.908 35.4373 186.571C39.0963 186.671 42.3827 186.406 45.7723 185.286C48.0278 184.541 49.5511 183.803 50.7928 182.908C52.0233 182.022 53.1798 180.836 54.5125 178.956C56.5729 176.05 57.509 173.902 58.0057 171.81C58.5322 169.591 58.6308 167.202 58.6844 163.494C58.7688 157.655 57.2585 153.912 55.2342 148.071C54.7869 148.192 54.3272 148.318 53.8338 148.445C52.0195 148.91 50.0832 149.329 47.5653 149.543C40.0538 150.181 35.4178 149.49 28.3836 147.367C22.0631 145.46 17.3 144.036 11.6512 138.884C5.22753 133.025 2.46855 127.261 0.78596 119.514C-0.0632399 115.604 -0.261684 112.234 0.374828 108.75C0.994635 105.359 2.35846 102.148 4.15901 98.5471C6.18248 94.5001 8.41512 91.8545 10.7742 89.5803C11.8974 88.4976 13.0796 87.4709 14.1571 86.5158C15.2653 85.5335 16.351 84.5508 17.4715 83.4084C20.0328 80.7969 22.073 79.046 24.0008 77.3918C25.6084 76.0124 27.1329 74.7005 28.9373 72.9357C27.4024 66.5913 26.4065 60.0506 26.1854 51.6779C26.0723 47.3947 26.0726 42.2095 26.1004 38.1232C26.1144 36.0745 26.1357 34.2903 26.1531 33.0178C26.1619 32.3815 26.1699 31.872 26.1756 31.5217C26.1784 31.347 26.1808 31.2115 26.1824 31.1193C26.1832 31.0735 26.183 31.0378 26.1834 31.0139C26.1836 31.0022 26.1843 30.9927 26.1844 30.9865V30.9602L30.6834 31.0588C26.3944 30.9644 26.1946 30.9592 26.1854 30.9582V30.9387C26.1856 30.9281 26.1859 30.9138 26.1864 30.8967C26.1873 30.8623 26.1893 30.8147 26.1912 30.7551C26.1952 30.6353 26.2012 30.4648 26.2108 30.2512C26.23 29.8241 26.2628 29.2179 26.3172 28.4777C26.4257 27.0025 26.6229 24.9643 26.9793 22.7238C27.3338 20.4959 27.8588 17.9824 28.6473 15.5861C29.4194 13.2398 30.5365 10.7154 32.2205 8.68575C34.3465 6.12379 36.7517 3.76436 39.7117 2.15254ZM107.941 143.633C108.205 142.684 109.537 142.647 109.852 143.58L115.614 160.629C115.755 161.045 116.15 161.321 116.589 161.309L133.804 160.831C134.758 160.805 135.204 162.005 134.463 162.608L120.74 173.766C120.416 174.029 120.29 174.466 120.424 174.862L126.237 192.066C126.549 192.989 125.492 193.767 124.703 193.196L110.597 182.97C110.231 182.704 109.731 182.718 109.38 183.003L95.8621 193.995C95.1063 194.61 94.0073 193.891 94.2674 192.952L99.119 175.452C99.2305 175.05 99.081 174.62 98.743 174.375L84.4227 163.994C83.6493 163.434 84.0274 162.211 84.9822 162.185L102.197 161.708C102.636 161.696 103.015 161.399 103.133 160.976L107.941 143.633ZM29.8612 84.2219C27.9582 85.8548 26.1684 87.3935 23.8963 89.7102C22.5514 91.0814 21.2785 92.2311 20.1278 93.2512C18.9463 94.2985 17.968 95.1462 17.0203 96.0598C15.2377 97.7783 13.6851 99.6189 12.2088 102.571C10.5096 105.97 9.61357 108.26 9.22834 110.368C8.85999 112.384 8.91007 114.515 9.58088 117.604C10.9388 123.856 12.9026 127.844 17.7166 132.235C21.7451 135.909 24.7652 136.875 30.9842 138.751C37.1202 140.603 40.607 141.102 46.8026 140.575C48.6615 140.417 50.0786 140.117 51.5955 139.728C51.8233 139.669 52.0619 139.603 52.3114 139.536C49.9426 132.711 48.3076 127.823 45.4627 120.118C43.5477 114.932 41.8239 111.007 40.0858 106.87C39.9533 106.555 39.8214 106.239 39.6893 105.922C37.4592 106.465 35.5907 107.379 33.5125 109.059C31.2826 110.861 29.941 112.21 29.1405 113.54C28.4326 114.716 28.0196 116.095 28.1727 118.238C28.2665 119.551 29.3461 121.228 32.0281 122.806C34.4716 124.243 37.2355 124.965 38.8719 125.05L39.1834 125.059H39.1844C40.8411 125.059 42.1843 127.074 42.1844 129.559C42.1844 132.044 40.8412 134.059 39.1844 134.059L39.1834 134.058V134.059C35.7618 134.059 31.2327 132.779 27.4647 130.563C23.7723 128.391 19.6016 124.567 19.1951 118.88C18.9208 115.04 19.6898 111.79 21.4295 108.9C23.0766 106.163 25.4496 104.004 27.8553 102.06C30.784 99.6926 33.5895 98.3169 36.4178 97.4846C35.9124 96.0524 35.402 94.5372 34.8905 92.9064C33.7327 89.2153 32.6474 85.8636 31.6619 82.6633C31.043 83.2054 30.447 83.7192 29.8612 84.2219ZM154.294 80.6643C154.739 79.8282 155.988 80.0212 156.16 80.9523L160.022 101.904C160.09 102.27 160.354 102.564 160.7 102.675L160.853 102.71L183.136 106.154C184.109 106.304 184.301 107.625 183.411 108.046L182.799 108.335L163.635 117.397C163.225 117.591 162.997 118.036 163.079 118.482L166.768 138.494L166.903 139.228C167.067 140.115 166.081 140.718 165.376 140.249L165.24 140.142L164.693 139.634L148.961 125.029C148.661 124.751 148.223 124.683 147.853 124.858L127.772 134.352C126.902 134.763 126.01 133.829 126.462 132.979L126.811 132.321L136.37 114.355C136.556 114.005 136.516 113.583 136.281 113.277L136.168 113.152L120.137 98.2688C119.415 97.5981 119.996 96.397 120.97 96.5471L143.252 99.9904C143.62 100.047 143.984 99.8952 144.203 99.6047L144.288 99.4729L154.294 80.6643ZM64.8016 109.015C60.2146 105.19 56.0812 104.669 49.0535 104.972C50.5522 108.512 52.1641 112.285 53.9051 117C56.8098 124.867 58.5214 129.984 60.9217 136.896C61.5066 136.503 62.1794 136.037 62.8836 135.513C65.1934 133.794 67.3414 131.845 68.3485 130.205C69.7362 127.945 70.558 126.259 70.9988 124.656C71.4204 123.124 71.5503 121.453 71.2283 119.194C70.8889 116.811 70.2365 115.152 69.3123 113.73C68.3467 112.244 66.9491 110.806 64.8016 109.015ZM146.936 100.881C146.137 102.383 144.475 103.215 142.794 102.955L126.959 100.508L138.209 110.953C139.538 112.188 139.871 114.162 139.019 115.764L131.944 129.061L146.57 122.146L146.851 122.027C148.172 121.521 149.665 121.751 150.771 122.632L151.003 122.831L162.858 133.838L160.128 119.026C159.799 117.242 160.713 115.46 162.352 114.685L176.231 108.122L160.395 105.675C158.714 105.415 157.381 104.12 157.072 102.447L154.25 87.1359L146.936 100.881ZM85.0115 55.3615C85.1104 54.426 86.3282 54.1324 86.8426 54.9201L92.8758 64.1594C93.1071 64.5136 93.5368 64.6843 93.9481 64.5852L105.385 61.8273C106.347 61.5955 107.025 62.7539 106.351 63.4797L98.7108 71.7072C98.3982 72.0438 98.3552 72.5502 98.6063 72.9348L104.493 81.9504C105.018 82.7551 104.216 83.7655 103.313 83.4367L92.3563 79.4475C91.9785 79.3099 91.5547 79.4117 91.2811 79.7063L83.3455 88.2512C82.6914 88.9548 81.518 88.4207 81.619 87.465L82.7498 76.757C82.798 76.3004 82.529 75.8692 82.0975 75.7121L71.5477 71.8713C70.6169 71.5324 70.6922 70.1924 71.6551 69.9602L83.0916 67.2023C83.5028 67.1032 83.8069 66.7558 83.8514 66.3352L85.0115 55.3615ZM49.3104 9.04415C47.1053 8.86046 45.4634 9.26849 44.0155 10.0568C42.4746 10.896 40.9236 12.2911 39.1463 14.4328C38.4832 15.2321 37.8015 16.5601 37.1961 18.3996C36.6071 20.1898 36.1756 22.1985 35.867 24.1379C35.5605 26.0646 35.3881 27.8412 35.2928 29.1379C35.2453 29.7834 35.2178 30.3036 35.202 30.6555C35.1941 30.8309 35.1892 30.9644 35.1864 31.05C35.185 31.0925 35.1839 31.1236 35.1834 31.1418C35.1832 31.1508 35.1825 31.1577 35.1824 31.1604C35.1824 31.1644 35.1825 31.1697 35.1824 31.175C35.182 31.1974 35.1813 31.2315 35.1805 31.2756C35.1789 31.3646 35.1764 31.4969 35.1737 31.6682C35.1681 32.0116 35.1608 32.5129 35.1522 33.1408C35.1349 34.3974 35.1142 36.1607 35.1004 38.1848C35.0727 42.245 35.0734 47.3104 35.1824 51.4406C35.3222 56.7315 35.7848 61.1723 36.5311 65.3596C38.862 63.0311 41.0317 60.7891 43.7821 57.6135C48.4316 52.245 50.1152 50.7887 54.3983 44.1262C56.2369 41.266 57.2397 39.462 57.8944 37.6691C58.5351 35.9143 58.9247 33.9393 59.2 30.6809C59.8126 23.4294 60.1776 18.1888 57.4324 14.0451C56.2324 12.2338 55.1029 11.1235 53.9442 10.4074C52.8026 9.70209 51.3681 9.21567 49.3104 9.04415Z" fill="#A4CCFF"/>
</svg>
